<?xml version="1.0" encoding="utf-8"?>
<!-- Generator: Adobe Illustrator 16.0.0, SVG Export Plug-In . SVG Version: 6.00 Build 0)  -->
<!DOCTYPE svg PUBLIC "-//W3C//DTD SVG 1.1//EN" "http://www.w3.org/Graphics/SVG/1.1/DTD/svg11.dtd">
<svg version="1.1" id="Layer_1" xmlns="http://www.w3.org/2000/svg" xmlns:xlink="http://www.w3.org/1999/xlink" x="0px" y="0px"
	 width="47.117px" height="43.349px" viewBox="0 0 47.117 43.349" enable-background="new 0 0 47.117 43.349" xml:space="preserve">
<g>
	<path fill="#FFFFFF" d="M40.64,0H6.478C2.906,0,0,2.905,0,6.478v20.906c0,3.564,2.893,6.466,6.455,6.479v9.486l13.633-9.486H40.64
		c3.571,0,6.478-2.906,6.478-6.479V6.478C47.117,2.905,44.211,0,40.64,0z M44.357,27.384c0,2.05-1.668,3.718-3.718,3.718H19.223
		L9.215,38.064v-6.963H6.478c-2.05,0-3.718-1.668-3.718-3.718V6.478c0-2.05,1.668-3.717,3.718-3.717H40.64
		c2.05,0,3.718,1.667,3.718,3.717V27.384z"/>
	<path fill="#FFFFFF" d="M12.61,9.756h21.896v2.761H12.61V9.756z"/>
	<path fill="#FFFFFF" d="M12.61,15.646h21.896v2.761H12.61V15.646z"/>
	<path fill="#FFFFFF" d="M12.61,21.535h21.896v2.761H12.61V21.535z"/>
</g>
</svg>
