<?xml version="1.0" encoding="utf-8"?>
<!-- Generator: Adobe Illustrator 16.0.0, SVG Export Plug-In . SVG Version: 6.00 Build 0)  -->
<!DOCTYPE svg PUBLIC "-//W3C//DTD SVG 1.1//EN" "http://www.w3.org/Graphics/SVG/1.1/DTD/svg11.dtd">
<svg version="1.1" id="Layer_1" xmlns="http://www.w3.org/2000/svg" xmlns:xlink="http://www.w3.org/1999/xlink" x="0px" y="0px"
	 width="50.222px" height="43.924px" viewBox="0 0 50.222 43.924" enable-background="new 0 0 50.222 43.924" xml:space="preserve">
<g>
	<path fill="#FFFFFF" d="M45.6,0H23.534c-2.548,0-4.623,2.074-4.623,4.623v14.154l-4.096-2.038
		c-0.139-0.068-0.279-0.133-0.421-0.196c1.202-1.255,1.944-2.956,1.944-4.827c0-3.854-3.135-6.987-6.987-6.987
		c-3.854,0-6.987,3.134-6.987,6.987c0,2.094,0.926,3.974,2.391,5.256C2.059,18.488,0,21.446,0,25.112v4.727
		c0,2.037,1.321,3.769,3.151,4.384v8.226c0,0.813,0.659,1.472,1.472,1.472h9.456c0.813,0,1.472-0.659,1.472-1.472V25.915l4.71,2.355
		c1.803,0.902,4.248,0.365,5.354-1.688h5.275l-5.586,15.361c-0.278,0.764,0.115,1.608,0.88,1.886
		c0.872,0.318,1.648-0.229,1.887-0.88l5.951-16.367h1.03l6.013,16.372c0.229,0.621,1,1.201,1.889,0.874
		c0.764-0.28,1.154-1.125,0.875-1.889l-5.641-15.357H45.6c2.499,0,4.622-2.017,4.622-4.623V4.623C50.222,2.017,48.099,0,45.6,0z
		 M5.307,11.716c0-2.23,1.814-4.045,4.044-4.045c2.23,0,4.046,1.814,4.046,4.045c0,2.229-1.815,4.044-4.046,4.044
		C7.121,15.76,5.307,13.945,5.307,11.716z M23.101,25.01c-0.004,0.011-0.008,0.021-0.012,0.033c-0.101,0.28-0.328,0.516-0.605,0.63
		c-0.293,0.119-0.625,0.107-0.906-0.033c-2.798-1.4-6.841-3.421-6.841-3.421c-0.976-0.487-2.129,0.224-2.129,1.316v17.441H6.095
		v-7.985c0-0.813-0.659-1.472-1.472-1.472c-0.928,0-1.681-0.753-1.681-1.681v-4.727c0-3.596,2.927-6.409,6.408-6.409h1.301
		c0.986,0,1.972,0.231,2.852,0.671c0,0,7.298,3.629,9.156,4.556C23.058,24.126,23.247,24.592,23.101,25.01z M47.28,21.96
		c0,0.449-0.175,0.871-0.492,1.188c-0.313,0.312-0.746,0.491-1.188,0.491H25.935c-0.002-0.008-0.004-0.016-0.007-0.023l3.651-7.303
		c0.363-0.727,0.068-1.61-0.658-1.974c-0.727-0.364-1.609-0.068-1.975,0.658l-3.113,6.229c-0.58-0.29-1.254-0.626-1.979-0.985V4.623
		c0-0.926,0.754-1.68,1.68-1.68H45.6c0.442,0,0.876,0.18,1.189,0.492c0.316,0.316,0.491,0.738,0.491,1.188V21.96z"/>
	<path fill="#FFFFFF" d="M42.447,6.305H26.687c-0.813,0-1.471,0.658-1.471,1.47c0,0.813,0.658,1.473,1.471,1.473h15.761
		c0.813,0,1.472-0.659,1.472-1.473C43.919,6.963,43.261,6.305,42.447,6.305z"/>
	<path fill="#FFFFFF" d="M42.447,11.82h-7.88c-0.813,0-1.472,0.658-1.472,1.472c0,0.813,0.659,1.471,1.472,1.471h7.88
		c0.813,0,1.472-0.658,1.472-1.471C43.919,12.479,43.261,11.82,42.447,11.82z"/>
	<path fill="#FFFFFF" d="M42.447,17.336h-7.88c-0.813,0-1.472,0.659-1.472,1.473c0,0.812,0.659,1.47,1.472,1.47h7.88
		c0.813,0,1.472-0.658,1.472-1.47C43.919,17.995,43.261,17.336,42.447,17.336z"/>
</g>
</svg>
