<?xml version="1.0" encoding="utf-8"?>
<!-- Generator: Adobe Illustrator 16.0.0, SVG Export Plug-In . SVG Version: 6.00 Build 0)  -->
<!DOCTYPE svg PUBLIC "-//W3C//DTD SVG 1.1//EN" "http://www.w3.org/Graphics/SVG/1.1/DTD/svg11.dtd">
<svg version="1.1" id="Layer_1" xmlns="http://www.w3.org/2000/svg" xmlns:xlink="http://www.w3.org/1999/xlink" x="0px" y="0px"
	 width="17.777px" height="16.992px" viewBox="0 0 17.777 16.992" enable-background="new 0 0 17.777 16.992" xml:space="preserve">
<g>
	<g>
		<path fill="#FCB4C4" d="M2.156,0C0.854,0,0,0.855,0,1.98c0,1.102,0.828,1.982,2.107,1.982h0.023c1.328,0,2.156-0.881,2.156-1.982
			C4.262,0.855,3.459,0,2.156,0z"/>
		<path fill="#FCB4C4" d="M0.227,5.527h3.811v11.465H0.227V5.527z"/>
		<path fill="#FCB4C4" d="M13.391,5.258c-2.057,0-3.434,1.932-3.434,1.932V5.527H6.145v11.465h3.813V10.59
			c0-0.344,0.023-0.686,0.125-0.932c0.275-0.684,0.902-1.393,1.955-1.393c1.379,0,1.93,1.051,1.93,2.594v6.133h3.811v-6.574
			C17.777,6.896,15.898,5.258,13.391,5.258z"/>
	</g>
</g>
</svg>
