<?xml version="1.0" encoding="utf-8"?>
<!-- Generator: Adobe Illustrator 16.0.0, SVG Export Plug-In . SVG Version: 6.00 Build 0)  -->
<!DOCTYPE svg PUBLIC "-//W3C//DTD SVG 1.1//EN" "http://www.w3.org/Graphics/SVG/1.1/DTD/svg11.dtd">
<svg version="1.1" id="Layer_1" xmlns="http://www.w3.org/2000/svg" xmlns:xlink="http://www.w3.org/1999/xlink" x="0px" y="0px"
	 width="183.187px" height="18.573px" viewBox="0 0 183.187 18.573" enable-background="new 0 0 183.187 18.573"
	 xml:space="preserve">
<g>
	<path fill="#FFFFFF" d="M10.213,13.365c-0.215,0.165-0.481,0.354-0.8,0.569c-0.318,0.215-0.692,0.451-1.122,0.709
		c-0.387,0.222-0.729,0.413-1.025,0.574c-0.297,0.161-0.546,0.281-0.747,0.36c-0.293,0.136-0.605,0.234-0.934,0.295
		c-0.33,0.061-0.666,0.091-1.01,0.091c-0.107,0-0.227-0.016-0.36-0.048c-0.132-0.032-0.273-0.07-0.424-0.113
		c-0.187-0.05-0.344-0.093-0.473-0.129c-0.129-0.036-0.236-0.058-0.322-0.064L2.867,15.48l-0.312-0.043
		c-0.136-0.007-0.299-0.075-0.488-0.204c-0.19-0.129-0.396-0.308-0.618-0.537c-0.215-0.214-0.389-0.418-0.521-0.612
		s-0.227-0.369-0.285-0.526l-0.29-0.923c-0.101-0.315-0.176-0.569-0.226-0.763c-0.05-0.193-0.072-0.318-0.064-0.376l0.118-0.483
		c-0.058-0.165-0.102-0.301-0.134-0.408S0,10.415,0,10.358s0.018-0.232,0.054-0.526C0.089,9.538,0.14,9.13,0.204,8.607
		c0.05-0.1,0.104-0.222,0.161-0.365c0.057-0.143,0.111-0.304,0.161-0.483L0.494,7.523c0-0.058,0.012-0.124,0.038-0.199
		C0.557,7.249,0.59,7.165,0.633,7.072c0.165-0.351,0.33-0.705,0.494-1.063C1.292,5.65,1.457,5.303,1.622,4.967
		c0.143-0.258,0.328-0.522,0.553-0.795C2.4,3.9,2.66,3.617,2.953,3.324c0.064-0.071,0.143-0.165,0.236-0.279
		c0.093-0.114,0.204-0.24,0.333-0.376c0.122-0.071,0.27-0.181,0.446-0.328c0.175-0.146,0.384-0.334,0.628-0.563
		c0.072-0.029,0.157-0.068,0.258-0.118c0.1-0.05,0.222-0.111,0.365-0.183C5.255,1.455,5.3,1.419,5.354,1.369
		c0.054-0.05,0.116-0.104,0.188-0.161C5.62,1.137,5.906,1.029,6.4,0.886c0.494-0.143,0.816-0.215,0.967-0.215
		c0.329,0,0.608,0.023,0.837,0.07c0.229,0.047,0.412,0.12,0.548,0.22l0.344,0.064C9.382,1.09,9.593,1.309,9.729,1.681
		C9.865,2.053,9.934,2.59,9.934,3.292c0,0.33-0.004,0.592-0.011,0.789C9.916,4.278,9.905,4.412,9.891,4.483
		C9.848,4.698,9.799,4.969,9.746,5.294C9.692,5.62,9.623,5.998,9.537,6.427C9.53,6.542,9.482,6.73,9.393,6.991
		S9.187,7.577,9.044,7.963c-0.15,0.423-0.279,0.743-0.386,0.961c-0.107,0.218-0.196,0.338-0.268,0.36
		C8.105,9.355,7.797,9.434,7.469,9.52c-0.157,0-0.268-0.012-0.333-0.038C7.072,9.458,7.04,9.417,7.04,9.359
		c0-0.05,0.012-0.129,0.038-0.236C7.102,9.016,7.115,8.94,7.115,8.897C7.093,8.625,7.072,8.35,7.05,8.07
		c0-0.1,0.028-0.297,0.086-0.59c0.057-0.293,0.143-0.669,0.258-1.128c0.121-0.501,0.228-0.896,0.321-1.187
		c0.092-0.29,0.167-0.471,0.224-0.542C8.146,4.43,8.297,4.246,8.393,4.07c0.096-0.176,0.145-0.335,0.145-0.478
		c0-0.201-0.048-0.376-0.145-0.526S8.151,2.801,7.958,2.722C7.771,2.679,7.583,2.638,7.394,2.599C7.204,2.56,7.016,2.511,6.83,2.454
		C6.68,2.511,6.545,2.554,6.427,2.583c-0.118,0.029-0.22,0.054-0.306,0.075c-0.479,0.079-0.939,0.301-1.38,0.666
		S3.88,4.193,3.479,4.838C3.15,5.396,2.885,5.957,2.685,6.519c-0.2,0.562-0.336,1.126-0.408,1.691
		C2.248,8.382,2.212,8.595,2.169,8.849S2.065,9.402,1.987,9.746c0.064,0.215,0.122,0.412,0.172,0.591l-0.107,0.977
		c0,0.036,0.032,0.109,0.097,0.22c0.064,0.111,0.165,0.274,0.3,0.489c0.079,0.122,0.15,0.265,0.215,0.43s0.115,0.351,0.15,0.558
		c0.014,0.05,0.041,0.104,0.081,0.161c0.04,0.058,0.084,0.104,0.134,0.14c0.107,0.093,0.211,0.176,0.312,0.247
		c0.308,0.33,0.635,0.578,0.982,0.747c0.347,0.168,0.718,0.252,1.112,0.252c0.036,0,0.17-0.018,0.402-0.054
		c0.233-0.036,0.553-0.093,0.961-0.172c0.071-0.05,0.167-0.1,0.285-0.15s0.259-0.104,0.424-0.161
		c0.144-0.143,0.287-0.245,0.43-0.306c0.143-0.061,0.275-0.091,0.397-0.091c0.036-0.05,0.081-0.111,0.134-0.183
		c0.054-0.071,0.124-0.15,0.209-0.236c0.215-0.086,0.412-0.199,0.59-0.338c0.179-0.14,0.351-0.303,0.516-0.489
		C10.069,13,10.213,13.329,10.213,13.365z"/>
	<path fill="#FFFFFF" d="M9.772,12.377c0.064-0.072,0.129-0.159,0.193-0.263c0.064-0.104,0.15-0.216,0.258-0.338l0.709-0.623
		c0.028-0.021,0.044-0.05,0.048-0.086c0.003-0.036,0.005-0.086,0.005-0.15c-0.007-0.093-0.018-0.168-0.032-0.226
		c0-0.165,0.032-0.44,0.096-0.827c0.064-0.387,0.122-0.619,0.172-0.698l-0.064-0.204c0.093-0.479,0.224-1.004,0.392-1.573
		c0.168-0.569,0.36-1.187,0.575-1.853c0.071-0.115,0.146-0.26,0.226-0.435c0.079-0.175,0.168-0.374,0.269-0.596
		c0.122-0.372,0.283-0.762,0.483-1.17c0.201-0.408,0.426-0.827,0.677-1.256c0.336-0.565,0.635-0.992,0.896-1.278
		c0.261-0.286,0.496-0.429,0.704-0.429c0.415,0,0.7,0.081,0.854,0.241c0.154,0.161,0.231,0.464,0.231,0.908
		c0,0.115-0.02,0.292-0.059,0.532c-0.039,0.24-0.059,0.42-0.059,0.542c0,0.122-0.039,0.294-0.118,0.516
		c-0.079,0.222-0.118,0.426-0.118,0.612c-0.007,0.057-0.025,0.114-0.054,0.172l0.011,0.15c-0.029,0.1-0.072,0.222-0.129,0.365
		c-0.058,0.144-0.133,0.315-0.226,0.516c-0.05,0.179-0.115,0.387-0.193,0.623c-0.079,0.236-0.172,0.494-0.279,0.773
		c-0.043,0.072-0.099,0.16-0.167,0.263c-0.068,0.104-0.142,0.22-0.22,0.349c-0.021,0.093-0.057,0.201-0.107,0.322
		c-0.05,0.122-0.118,0.265-0.204,0.429c-0.043,0.086-0.1,0.179-0.171,0.279c-0.072,0.101-0.158,0.229-0.258,0.387
		c-0.043,0.072-0.09,0.161-0.14,0.269c-0.05,0.107-0.107,0.229-0.172,0.365c-0.079,0.122-0.183,0.272-0.312,0.451
		c-0.129,0.179-0.276,0.391-0.44,0.634c-0.222,0.394-0.451,0.77-0.687,1.127c0,0.695,0.138,1.219,0.413,1.574
		c0.276,0.354,0.689,0.531,1.241,0.531c0.036,0,0.143-0.025,0.322-0.075c0.179-0.05,0.426-0.129,0.741-0.236
		c0.093-0.057,0.204-0.138,0.333-0.241c0.129-0.104,0.275-0.228,0.44-0.371l0.418,0.988c-0.186,0.165-0.372,0.333-0.558,0.505
		c-0.187,0.172-0.376,0.34-0.569,0.505c-0.222,0.186-0.447,0.327-0.677,0.424c-0.229,0.097-0.455,0.145-0.676,0.145
		c-0.115,0-0.29-0.012-0.526-0.038c-0.236-0.025-0.415-0.038-0.537-0.038c-0.401,0-0.732-0.161-0.993-0.483
		c-0.261-0.322-0.446-0.806-0.553-1.45c-0.014-0.064-0.034-0.122-0.059-0.171c-0.025-0.05-0.07-0.107-0.134-0.172
		c-0.093,0.093-0.203,0.204-0.328,0.333c-0.125,0.129-0.278,0.276-0.457,0.44L9.772,12.377z M14.895,3.947L14.82,3.904
		c-0.401,0.386-0.703,0.751-0.907,1.095s-0.306,0.677-0.306,0.999c0,0.05-0.023,0.134-0.07,0.252
		c-0.047,0.118-0.116,0.271-0.209,0.457c-0.115,0.222-0.232,0.465-0.354,0.73c-0.136,0.401-0.24,0.727-0.311,0.977
		c-0.072,0.25-0.107,0.43-0.107,0.537l0.064,0.086c0.064-0.007,0.143-0.072,0.236-0.193c0.093-0.122,0.201-0.301,0.322-0.537
		c0.057-0.129,0.14-0.279,0.247-0.451s0.229-0.375,0.365-0.612c0.114-0.158,0.297-0.562,0.548-1.214
		c0.25-0.651,0.386-1.066,0.408-1.246c0.007-0.143,0.027-0.285,0.059-0.424S14.866,4.083,14.895,3.947z"/>
	<path fill="#FFFFFF" d="M16.173,11.904l0.977-0.645c0.036-0.036,0.079-0.084,0.129-0.145c0.05-0.061,0.107-0.149,0.172-0.263
		c0.05-0.093,0.116-0.172,0.199-0.236s0.177-0.122,0.285-0.172c0.057-0.071,0.14-0.161,0.247-0.269s0.243-0.232,0.408-0.376
		c0.079-0.043,0.179-0.105,0.3-0.188c0.122-0.082,0.254-0.191,0.397-0.327C19.938,8.668,20.51,8.207,21,7.898
		c0.49-0.308,0.904-0.461,1.24-0.461c0.187,0,0.324,0.039,0.414,0.118c0.089,0.079,0.134,0.189,0.134,0.333
		c0,0.15-0.027,0.283-0.081,0.397c-0.054,0.115-0.138,0.211-0.252,0.29c-0.179,0.129-0.372,0.272-0.58,0.43
		c-0.115,0.15-0.254,0.31-0.419,0.478c-0.165,0.168-0.358,0.335-0.58,0.5c-0.071,0.093-0.132,0.176-0.183,0.247
		c-0.036,0.036-0.104,0.101-0.204,0.193c-0.1,0.093-0.232,0.201-0.397,0.322c-0.072,0.157-0.228,0.361-0.467,0.612
		c-0.24,0.251-0.56,0.552-0.961,0.902c-0.05,0.05-0.14,0.165-0.269,0.344c-0.129,0.179-0.297,0.415-0.505,0.708l0.075,0.097
		c0.157-0.05,0.322-0.136,0.494-0.258c0.172-0.122,0.361-0.283,0.569-0.483c0.244-0.222,0.442-0.403,0.596-0.542
		s0.263-0.231,0.328-0.274c0.05-0.028,0.1-0.057,0.15-0.086c0.05-0.028,0.107-0.064,0.172-0.107
		c0.329-0.394,0.637-0.686,0.923-0.875c0.286-0.19,0.551-0.285,0.795-0.285c0.15,0,0.265,0.059,0.343,0.177
		c0.079,0.118,0.125,0.295,0.14,0.531c-0.014,0.358-0.021,0.702-0.021,1.031c-0.007,0.229,0.056,0.435,0.188,0.618
		c0.132,0.182,0.306,0.273,0.521,0.273c0.064,0,0.127-0.018,0.188-0.054c0.061-0.036,0.124-0.082,0.188-0.14
		c0.05-0.064,0.098-0.125,0.145-0.182c0.046-0.058,0.095-0.115,0.145-0.172c0.028-0.015,0.07-0.04,0.123-0.075
		c0.054-0.036,0.106-0.079,0.156-0.129c0.101,0.215,0.185,0.403,0.252,0.563c0.068,0.161,0.12,0.303,0.156,0.424
		c-0.165,0.15-0.328,0.306-0.489,0.467c-0.161,0.161-0.331,0.313-0.51,0.457c-0.215,0.165-0.423,0.288-0.623,0.371
		c-0.201,0.082-0.401,0.123-0.602,0.123c-0.465,0-0.823-0.132-1.074-0.397c-0.25-0.265-0.397-0.666-0.44-1.203
		c0-0.064-0.009-0.13-0.027-0.199c-0.018-0.068-0.055-0.138-0.113-0.209c-0.036,0.036-0.075,0.073-0.118,0.113
		c-0.042,0.039-0.093,0.091-0.15,0.155c-0.093,0.072-0.209,0.161-0.349,0.269s-0.303,0.236-0.489,0.387
		c-0.25,0.258-0.462,0.469-0.634,0.634c-0.171,0.165-0.293,0.283-0.365,0.354c-0.144,0.122-0.31,0.243-0.5,0.365
		c-0.19,0.122-0.403,0.247-0.639,0.376c-0.15,0.079-0.279,0.142-0.386,0.188c-0.107,0.046-0.187,0.07-0.236,0.07
		c-0.344,0-0.598-0.084-0.763-0.252c-0.165-0.168-0.247-0.428-0.247-0.778c0-0.193,0.042-0.378,0.124-0.553
		c0.083-0.175,0.206-0.345,0.371-0.51c0.014-0.093,0.021-0.168,0.021-0.226c0-0.036-0.009-0.073-0.027-0.113
		c-0.018-0.039-0.041-0.084-0.07-0.134c-0.043-0.1-0.091-0.213-0.145-0.338c-0.054-0.125-0.113-0.26-0.177-0.403
		c0.029-0.029,0.07-0.084,0.124-0.167C16.039,12.128,16.102,12.026,16.173,11.904z"/>
	<path fill="#FFFFFF" d="M24.087,12.377c0.029-0.021,0.052-0.046,0.07-0.075c0.018-0.029,0.027-0.064,0.027-0.107
		c0.122-0.1,0.26-0.238,0.414-0.414c0.154-0.175,0.328-0.381,0.521-0.618c0.157-0.214,0.32-0.429,0.488-0.644
		c0.168-0.215,0.349-0.43,0.542-0.645c0.157-0.215,0.313-0.438,0.467-0.671c0.154-0.233,0.317-0.46,0.488-0.682
		c0.287-0.136,0.508-0.232,0.666-0.29c0.157-0.057,0.265-0.086,0.322-0.086c0.107,0,0.189,0.034,0.247,0.102
		c0.057,0.068,0.086,0.167,0.086,0.295c0,0.043-0.011,0.104-0.032,0.183s-0.047,0.165-0.075,0.258
		c-0.05,0.143-0.107,0.29-0.172,0.44c-0.058,0.251-0.125,0.501-0.204,0.752c-0.079,0.25-0.154,0.498-0.226,0.741
		c-0.072,0.308-0.127,0.59-0.167,0.848s-0.059,0.494-0.059,0.709c0,0.401,0.02,0.698,0.059,0.891s0.095,0.279,0.167,0.258
		c0.071-0.043,0.161-0.095,0.269-0.156c0.107-0.061,0.232-0.13,0.376-0.209c0.129-0.136,0.274-0.304,0.435-0.504
		c0.161-0.201,0.356-0.437,0.585-0.709c0.129-0.2,0.261-0.397,0.397-0.591c0.05-0.057,0.109-0.125,0.177-0.204
		c0.068-0.079,0.13-0.157,0.188-0.236c0.136-0.344,0.288-0.6,0.456-0.768c0.168-0.168,0.356-0.252,0.564-0.252
		c0.186,0,0.334,0.023,0.446,0.07c0.111,0.047,0.188,0.117,0.231,0.209c0.021,0.05,0.039,0.136,0.054,0.258
		c0.014,0.122,0.021,0.283,0.021,0.483c0,0.079,0.016,0.193,0.048,0.343s0.048,0.262,0.048,0.333c0,0.265,0.046,0.464,0.14,0.596
		c0.093,0.132,0.236,0.199,0.429,0.199c0.057,0,0.125-0.011,0.204-0.032s0.157-0.046,0.236-0.075l0.43,0.988
		c-0.43,0.258-0.782,0.453-1.058,0.585c-0.275,0.132-0.481,0.199-0.617,0.199c-0.358,0-0.652-0.093-0.881-0.279
		s-0.397-0.462-0.504-0.827c-0.015-0.086-0.045-0.171-0.091-0.257c-0.047-0.086-0.106-0.172-0.177-0.258
		c-0.064,0.071-0.138,0.157-0.22,0.258c-0.083,0.1-0.17,0.2-0.263,0.3c-0.193,0.236-0.387,0.467-0.58,0.693s-0.39,0.449-0.59,0.671
		c-0.251,0.293-0.503,0.506-0.757,0.639c-0.254,0.133-0.492,0.199-0.714,0.199c-0.33,0-0.595-0.098-0.795-0.295
		c-0.201-0.197-0.33-0.488-0.387-0.875c-0.064-0.372-0.107-0.662-0.129-0.87c-0.021-0.208-0.025-0.333-0.011-0.375
		c-0.014-0.208-0.034-0.365-0.059-0.473c-0.025-0.107-0.063-0.161-0.113-0.161L25.44,12.27l-0.612,0.634
		c-0.021,0.05-0.058,0.112-0.107,0.188c-0.05,0.075-0.118,0.167-0.204,0.274c-0.029-0.107-0.079-0.24-0.15-0.397
		C24.295,12.81,24.202,12.613,24.087,12.377z"/>
	<path fill="#FFFFFF" d="M33.022,12.377l0.064-0.075l0.032-0.107c0.129-0.157,0.24-0.281,0.333-0.371
		c0.093-0.089,0.165-0.159,0.215-0.209c0.036-0.036,0.114-0.082,0.236-0.14c0.122-0.057,0.286-0.129,0.494-0.215l0.14-0.086
		c0.05-0.079,0.14-0.193,0.269-0.343s0.283-0.322,0.462-0.516c0.036-0.043,0.089-0.089,0.161-0.14
		c0.071-0.05,0.146-0.114,0.226-0.193c0.172-0.165,0.343-0.334,0.515-0.51c0.172-0.175,0.333-0.349,0.483-0.521
		c0.064-0.064,0.197-0.181,0.397-0.349c0.2-0.168,0.473-0.403,0.816-0.704c0.05-0.036,0.14-0.087,0.269-0.156
		c0.129-0.068,0.297-0.148,0.505-0.241c0.093-0.043,0.163-0.113,0.209-0.209c0.046-0.097,0.07-0.22,0.07-0.371
		c0.057-0.093,0.113-0.206,0.167-0.338c0.054-0.132,0.105-0.288,0.156-0.467c0.071-0.222,0.127-0.402,0.166-0.542
		c0.04-0.14,0.07-0.234,0.091-0.285c0.122-0.322,0.287-0.7,0.494-1.133c0.208-0.433,0.455-0.929,0.741-1.487
		c0.143-0.293,0.312-0.619,0.504-0.977c0.122-0.179,0.258-0.313,0.408-0.403c0.15-0.089,0.308-0.134,0.473-0.134
		c0.129,0,0.224,0.05,0.285,0.15c0.061,0.101,0.091,0.247,0.091,0.44c0,0.308-0.021,0.601-0.064,0.88s-0.122,0.541-0.236,0.784
		c-0.021,0.05-0.04,0.125-0.054,0.226c-0.015,0.1-0.029,0.222-0.043,0.365c-0.007,0.1-0.034,0.197-0.081,0.29
		c-0.047,0.093-0.106,0.179-0.177,0.258c0,0.05-0.007,0.109-0.021,0.177c-0.014,0.068-0.029,0.149-0.043,0.242l-0.15,0.193
		c-0.014,0.043-0.021,0.095-0.021,0.156s0,0.124,0,0.188c0,0.043-0.025,0.127-0.075,0.252c-0.05,0.125-0.125,0.302-0.226,0.531
		c-0.114,0.244-0.206,0.437-0.273,0.58c-0.068,0.143-0.106,0.233-0.113,0.269c-0.029,0.036-0.066,0.093-0.113,0.172
		c-0.047,0.079-0.102,0.168-0.167,0.269l0.032,0.236l-0.688,2.47c0,0.272,0.003,0.505,0.011,0.698
		c0.007,0.193,0.029,0.347,0.064,0.461c0.036,0.122,0.095,0.271,0.177,0.446c0.082,0.176,0.188,0.363,0.317,0.564
		c0.079,0.136,0.172,0.234,0.279,0.295c0.107,0.061,0.222,0.091,0.343,0.091c0.136,0,0.274-0.038,0.414-0.113
		s0.281-0.191,0.424-0.349c0.086,0.186,0.167,0.361,0.242,0.526c0.075,0.165,0.138,0.318,0.188,0.461
		c-0.036,0.021-0.113,0.095-0.231,0.22c-0.118,0.125-0.274,0.303-0.467,0.532c-0.115,0.136-0.256,0.234-0.424,0.295
		c-0.168,0.061-0.374,0.091-0.617,0.091c-0.537,0-0.974-0.14-1.311-0.419c-0.336-0.279-0.573-0.698-0.708-1.256
		c-0.029-0.115-0.054-0.215-0.075-0.301s-0.043-0.165-0.064-0.236c-0.05-0.136-0.136-0.283-0.258-0.44
		c-0.05,0.072-0.089,0.125-0.118,0.161c-0.086,0.058-0.181,0.14-0.285,0.247c-0.104,0.107-0.209,0.244-0.316,0.408
		c-0.021,0.071-0.061,0.159-0.118,0.263c-0.058,0.104-0.136,0.228-0.236,0.371c-0.229,0.265-0.462,0.532-0.698,0.8
		s-0.473,0.532-0.708,0.789c-0.322,0.358-0.62,0.622-0.892,0.79s-0.508,0.252-0.708,0.252c-0.358,0-0.623-0.084-0.795-0.252
		s-0.258-0.431-0.258-0.79c0-0.165,0.061-0.396,0.183-0.692s0.183-0.517,0.183-0.661l-0.064-0.172L33.022,12.377z M38.424,9.306
		c0-0.036-0.014-0.09-0.043-0.161c-0.107,0.107-0.24,0.232-0.397,0.375c-0.157,0.144-0.343,0.301-0.558,0.473
		c-0.05,0.115-0.165,0.295-0.344,0.542c-0.179,0.247-0.43,0.553-0.752,0.918c-0.093,0.107-0.218,0.292-0.375,0.553
		c-0.158,0.261-0.351,0.582-0.58,0.961c-0.079,0.15-0.161,0.333-0.247,0.548c0,0.043,0.028,0.09,0.086,0.14
		c0.215-0.064,0.478-0.252,0.789-0.564c0.312-0.311,0.682-0.743,1.112-1.294c0.444-0.587,0.773-1.086,0.988-1.498
		S38.424,9.556,38.424,9.306z"/>
	<path fill="#FFFFFF" d="M42,12.377l0.064-0.075l0.032-0.107c0.193-0.265,0.533-0.61,1.021-1.037
		c0.487-0.426,0.823-0.771,1.009-1.036c0.071-0.114,0.154-0.197,0.247-0.247c0.093-0.05,0.186-0.075,0.279-0.075
		c0.25,0,0.461,0.063,0.633,0.188c0.172,0.125,0.287,0.313,0.344,0.564c0.05,0.222,0.097,0.446,0.14,0.671
		c0.043,0.226,0.079,0.453,0.107,0.682c0.05,0.144,0.111,0.36,0.183,0.65c0.071,0.29,0.125,0.456,0.161,0.499
		c0.036,0.072,0.089,0.124,0.161,0.156c0.071,0.032,0.161,0.048,0.269,0.048c0.128,0,0.261-0.023,0.397-0.07
		c0.136-0.046,0.276-0.127,0.419-0.242c0.107-0.093,0.22-0.188,0.338-0.284s0.234-0.191,0.349-0.285l0.429,0.988
		c-0.114,0.115-0.267,0.246-0.456,0.392c-0.19,0.147-0.417,0.317-0.682,0.51c-0.293,0.215-0.544,0.374-0.752,0.478
		c-0.208,0.104-0.365,0.156-0.472,0.156c-0.652,0-1.074-0.075-1.268-0.225c-0.193-0.15-0.408-0.569-0.644-1.257
		c-0.029-0.057-0.072-0.125-0.129-0.204c-0.058-0.079-0.122-0.172-0.193-0.279c-0.086-0.165-0.161-0.288-0.226-0.37
		c-0.064-0.083-0.118-0.124-0.161-0.124c-0.114,0-0.269,0.077-0.461,0.231c-0.193,0.154-0.43,0.385-0.709,0.692
		c-0.036-0.093-0.081-0.204-0.134-0.333c-0.054-0.128-0.109-0.279-0.167-0.451c-0.014-0.043-0.032-0.083-0.054-0.118
		S42.029,12.398,42,12.377z M46.49,3.904c0.179,0,0.31,0.036,0.392,0.107c0.083,0.071,0.124,0.175,0.124,0.311
		c-0.043,0.201-0.079,0.369-0.107,0.505c-0.071,0.258-0.134,0.469-0.188,0.634s-0.095,0.283-0.123,0.354
		c-0.064,0.157-0.152,0.295-0.263,0.413c-0.111,0.118-0.246,0.224-0.403,0.317c-0.165,0.115-0.303,0.195-0.414,0.242
		c-0.111,0.047-0.188,0.066-0.231,0.059c-0.122-0.014-0.238-0.027-0.349-0.038c-0.111-0.011-0.22-0.016-0.328-0.016
		c-0.093-0.05-0.167-0.146-0.22-0.29c-0.054-0.143-0.081-0.336-0.081-0.58c0-0.214,0.13-0.485,0.392-0.811
		c0.261-0.326,0.492-0.5,0.692-0.521c0.122-0.15,0.265-0.322,0.43-0.516c0.071-0.05,0.165-0.091,0.279-0.123
		C46.207,3.92,46.339,3.904,46.49,3.904z"/>
	<path fill="#FFFFFF" d="M48.487,11.904l0.977-0.645c0.036-0.036,0.079-0.084,0.129-0.145c0.05-0.061,0.107-0.149,0.172-0.263
		c0.05-0.093,0.116-0.172,0.199-0.236s0.177-0.122,0.285-0.172c0.057-0.071,0.14-0.161,0.247-0.269s0.243-0.232,0.408-0.376
		c0.079-0.043,0.179-0.105,0.3-0.188c0.122-0.082,0.254-0.191,0.397-0.327c0.651-0.616,1.223-1.078,1.713-1.386
		c0.49-0.308,0.904-0.461,1.24-0.461c0.187,0,0.324,0.039,0.414,0.118c0.089,0.079,0.134,0.189,0.134,0.333
		c0,0.15-0.027,0.283-0.081,0.397c-0.054,0.115-0.138,0.211-0.252,0.29c-0.179,0.129-0.372,0.272-0.58,0.43
		c-0.115,0.15-0.254,0.31-0.419,0.478c-0.165,0.168-0.358,0.335-0.58,0.5c-0.071,0.093-0.132,0.176-0.183,0.247
		c-0.036,0.036-0.104,0.101-0.204,0.193c-0.1,0.093-0.232,0.201-0.397,0.322c-0.072,0.157-0.228,0.361-0.467,0.612
		c-0.24,0.251-0.56,0.552-0.961,0.902c-0.05,0.05-0.14,0.165-0.269,0.344c-0.129,0.179-0.297,0.415-0.505,0.708l0.075,0.097
		c0.157-0.05,0.322-0.136,0.494-0.258c0.172-0.122,0.361-0.283,0.569-0.483c0.244-0.222,0.442-0.403,0.596-0.542
		s0.263-0.231,0.328-0.274c0.05-0.028,0.1-0.057,0.15-0.086c0.05-0.028,0.107-0.064,0.172-0.107
		c0.329-0.394,0.637-0.686,0.923-0.875c0.286-0.19,0.551-0.285,0.795-0.285c0.15,0,0.265,0.059,0.343,0.177
		c0.079,0.118,0.125,0.295,0.14,0.531c-0.014,0.358-0.021,0.702-0.021,1.031c-0.007,0.229,0.056,0.435,0.188,0.618
		c0.132,0.182,0.306,0.273,0.521,0.273c0.064,0,0.127-0.018,0.188-0.054c0.061-0.036,0.124-0.082,0.188-0.14
		c0.05-0.064,0.098-0.125,0.145-0.182c0.046-0.058,0.095-0.115,0.145-0.172c0.028-0.015,0.07-0.04,0.123-0.075
		c0.054-0.036,0.106-0.079,0.156-0.129c0.101,0.215,0.185,0.403,0.252,0.563c0.068,0.161,0.12,0.303,0.156,0.424
		c-0.165,0.15-0.328,0.306-0.489,0.467c-0.161,0.161-0.331,0.313-0.51,0.457c-0.215,0.165-0.423,0.288-0.623,0.371
		c-0.201,0.082-0.401,0.123-0.602,0.123c-0.465,0-0.823-0.132-1.074-0.397c-0.25-0.265-0.397-0.666-0.44-1.203
		c0-0.064-0.009-0.13-0.027-0.199c-0.018-0.068-0.055-0.138-0.113-0.209c-0.036,0.036-0.075,0.073-0.118,0.113
		c-0.042,0.039-0.093,0.091-0.15,0.155c-0.093,0.072-0.209,0.161-0.349,0.269s-0.303,0.236-0.489,0.387
		c-0.25,0.258-0.462,0.469-0.634,0.634c-0.171,0.165-0.293,0.283-0.365,0.354c-0.144,0.122-0.31,0.243-0.5,0.365
		c-0.19,0.122-0.403,0.247-0.639,0.376c-0.15,0.079-0.279,0.142-0.386,0.188c-0.107,0.046-0.187,0.07-0.236,0.07
		c-0.344,0-0.598-0.084-0.763-0.252c-0.165-0.168-0.247-0.428-0.247-0.778c0-0.193,0.042-0.378,0.124-0.553
		c0.083-0.175,0.206-0.345,0.371-0.51c0.014-0.093,0.021-0.168,0.021-0.226c0-0.036-0.009-0.073-0.027-0.113
		c-0.018-0.039-0.041-0.084-0.07-0.134c-0.043-0.1-0.091-0.213-0.145-0.338c-0.054-0.125-0.113-0.26-0.177-0.403
		c0.029-0.029,0.07-0.084,0.124-0.167C48.353,12.128,48.416,12.026,48.487,11.904z"/>
	<path fill="#FFFFFF" d="M72.79,13.365c-0.215,0.165-0.481,0.354-0.8,0.569c-0.318,0.215-0.692,0.451-1.122,0.709
		c-0.387,0.222-0.729,0.413-1.025,0.574c-0.297,0.161-0.546,0.281-0.747,0.36c-0.293,0.136-0.605,0.234-0.934,0.295
		c-0.33,0.061-0.666,0.091-1.01,0.091c-0.107,0-0.227-0.016-0.36-0.048c-0.132-0.032-0.273-0.07-0.424-0.113
		c-0.187-0.05-0.344-0.093-0.473-0.129c-0.129-0.036-0.236-0.058-0.322-0.064l-0.129-0.129l-0.312-0.043
		c-0.136-0.007-0.299-0.075-0.488-0.204c-0.19-0.129-0.396-0.308-0.618-0.537c-0.215-0.214-0.389-0.418-0.521-0.612
		s-0.227-0.369-0.285-0.526l-0.29-0.923c-0.101-0.315-0.176-0.569-0.226-0.763c-0.05-0.193-0.072-0.318-0.064-0.376l0.118-0.483
		c-0.058-0.165-0.102-0.301-0.134-0.408s-0.048-0.19-0.048-0.247s0.018-0.232,0.054-0.526c0.036-0.293,0.086-0.702,0.15-1.224
		c0.05-0.1,0.104-0.222,0.161-0.365c0.057-0.143,0.111-0.304,0.161-0.483l-0.032-0.236c0-0.058,0.012-0.124,0.038-0.199
		c0.025-0.075,0.059-0.159,0.102-0.252c0.165-0.351,0.33-0.705,0.494-1.063c0.165-0.358,0.329-0.705,0.494-1.042
		c0.143-0.258,0.328-0.522,0.553-0.795c0.225-0.272,0.485-0.555,0.778-0.848c0.064-0.071,0.143-0.165,0.236-0.279
		c0.093-0.114,0.204-0.24,0.333-0.376c0.122-0.071,0.27-0.181,0.446-0.328c0.175-0.146,0.384-0.334,0.628-0.563
		c0.072-0.029,0.157-0.068,0.258-0.118c0.1-0.05,0.222-0.111,0.365-0.183c0.036-0.021,0.081-0.057,0.134-0.107
		c0.054-0.05,0.116-0.104,0.188-0.161c0.079-0.071,0.365-0.179,0.859-0.322c0.494-0.143,0.816-0.215,0.967-0.215
		c0.329,0,0.608,0.023,0.837,0.07c0.229,0.047,0.412,0.12,0.548,0.22l0.344,0.064c0.286,0.064,0.497,0.283,0.633,0.655
		c0.136,0.372,0.204,0.909,0.204,1.611c0,0.33-0.004,0.592-0.011,0.789c-0.007,0.197-0.018,0.332-0.032,0.403
		c-0.043,0.215-0.091,0.485-0.145,0.811c-0.054,0.326-0.124,0.703-0.209,1.133c-0.007,0.115-0.055,0.303-0.145,0.564
		s-0.206,0.585-0.348,0.972c-0.15,0.423-0.279,0.743-0.386,0.961c-0.107,0.218-0.196,0.338-0.268,0.36
		c-0.286,0.071-0.593,0.15-0.922,0.236c-0.157,0-0.268-0.012-0.333-0.038c-0.064-0.025-0.097-0.066-0.097-0.123
		c0-0.05,0.012-0.129,0.038-0.236c0.025-0.107,0.038-0.183,0.038-0.226C69.67,8.625,69.648,8.35,69.627,8.07
		c0-0.1,0.028-0.297,0.086-0.59c0.057-0.293,0.143-0.669,0.258-1.128c0.121-0.501,0.228-0.896,0.321-1.187
		c0.092-0.29,0.167-0.471,0.224-0.542c0.207-0.193,0.358-0.377,0.454-0.553c0.096-0.176,0.145-0.335,0.145-0.478
		c0-0.201-0.048-0.376-0.145-0.526s-0.242-0.265-0.435-0.344c-0.186-0.043-0.374-0.084-0.563-0.124
		c-0.19-0.039-0.378-0.087-0.564-0.145c-0.15,0.058-0.285,0.101-0.403,0.129c-0.118,0.029-0.22,0.054-0.306,0.075
		c-0.479,0.079-0.939,0.301-1.38,0.666s-0.861,0.87-1.262,1.514c-0.33,0.559-0.594,1.119-0.795,1.681
		c-0.2,0.562-0.336,1.126-0.408,1.691c-0.028,0.172-0.064,0.385-0.107,0.639s-0.104,0.553-0.183,0.896
		c0.064,0.215,0.122,0.412,0.172,0.591l-0.107,0.977c0,0.036,0.032,0.109,0.097,0.22c0.064,0.111,0.165,0.274,0.3,0.489
		c0.079,0.122,0.15,0.265,0.215,0.43s0.115,0.351,0.15,0.558c0.014,0.05,0.041,0.104,0.081,0.161c0.04,0.058,0.084,0.104,0.134,0.14
		c0.107,0.093,0.211,0.176,0.312,0.247c0.308,0.33,0.635,0.578,0.982,0.747c0.347,0.168,0.718,0.252,1.112,0.252
		c0.036,0,0.17-0.018,0.402-0.054c0.233-0.036,0.553-0.093,0.961-0.172c0.071-0.05,0.167-0.1,0.285-0.15s0.259-0.104,0.424-0.161
		c0.144-0.143,0.287-0.245,0.43-0.306c0.143-0.061,0.275-0.091,0.397-0.091c0.036-0.05,0.081-0.111,0.134-0.183
		c0.054-0.071,0.124-0.15,0.209-0.236c0.215-0.086,0.412-0.199,0.59-0.338c0.179-0.14,0.351-0.303,0.516-0.489
		C72.646,13,72.79,13.329,72.79,13.365z"/>
	<path fill="#FFFFFF" d="M75.861,14.868c0,0.101-0.027,0.197-0.081,0.29c-0.054,0.093-0.134,0.183-0.242,0.269
		c-0.036,0.107-0.081,0.188-0.134,0.242s-0.123,0.081-0.209,0.081c-0.294,0-0.544-0.104-0.752-0.312s-0.373-0.516-0.494-0.923
		l0.075-0.075l-0.107-0.279c0.036-0.115,0.068-0.226,0.097-0.333s0.057-0.215,0.086-0.322c0.036-0.136,0.095-0.234,0.177-0.295
		c0.082-0.061,0.177-0.091,0.285-0.091c0.186,0,0.36,0.05,0.521,0.15c0.161,0.101,0.306,0.254,0.435,0.462
		c0.122,0.187,0.209,0.374,0.263,0.564C75.834,14.483,75.861,14.675,75.861,14.868z"/>
	<path fill="#FFFFFF" d="M90.327,12.366l0.43,0.988c-0.101,0.079-0.321,0.146-0.661,0.204c-0.34,0.057-0.782,0.107-1.326,0.15
		c-0.63,0.614-1.258,1.125-1.885,1.532c-0.626,0.408-1.248,0.708-1.863,0.901c-0.144,0.043-0.308,0.089-0.494,0.14
		c-0.115,0-0.24-0.023-0.376-0.07c-0.136-0.047-0.286-0.113-0.451-0.199c-0.172-0.107-0.305-0.211-0.397-0.312
		c-0.093-0.101-0.14-0.204-0.14-0.312c0-0.215,0.104-0.422,0.312-0.623c0.208-0.2,0.512-0.39,0.913-0.569
		c0.802-0.372,1.593-0.748,2.374-1.128c0.114,0,0.197,0.023,0.247,0.07c0.05,0.047,0.075,0.106,0.075,0.177
		c0,0.193-0.138,0.356-0.414,0.489c-0.276,0.132-0.414,0.228-0.414,0.285c0.05,0.072,0.093,0.107,0.129,0.107
		c0.093,0,0.299-0.14,0.618-0.419c0.318-0.279,0.474-0.455,0.467-0.526l-0.054-0.247l0.021-0.043
		c0.187-0.165,0.324-0.311,0.414-0.44s0.134-0.233,0.134-0.312c0-0.179-0.089-0.419-0.269-0.72
		c-0.179-0.301-0.447-0.662-0.805-1.084c-0.272-0.329-0.544-0.625-0.816-0.886c-0.272-0.261-0.533-0.492-0.784-0.692
		c-0.101-0.086-0.187-0.17-0.258-0.252c-0.072-0.082-0.129-0.159-0.172-0.231c-0.079-0.143-0.142-0.261-0.188-0.354
		c-0.046-0.093-0.088-0.154-0.124-0.183c-0.036-0.043-0.084-0.095-0.145-0.156c-0.061-0.061-0.134-0.13-0.22-0.209
		c-0.15-0.158-0.267-0.376-0.349-0.655c-0.083-0.279-0.124-0.626-0.124-1.042c0-0.272,0.038-0.535,0.113-0.79
		c0.075-0.254,0.184-0.481,0.327-0.682c0.021-0.043,0.043-0.093,0.064-0.15c0.021-0.057,0.047-0.122,0.075-0.193
		c0.165-0.336,0.444-0.7,0.838-1.09c0.394-0.39,0.909-0.804,1.546-1.24c0.086-0.043,0.189-0.1,0.312-0.172
		c0.122-0.071,0.258-0.165,0.408-0.279c0.086-0.071,0.181-0.136,0.285-0.193c0.104-0.057,0.228-0.111,0.371-0.161
		c0.193-0.079,0.412-0.165,0.655-0.257c0.358-0.187,0.655-0.322,0.891-0.408S90.033,0,90.155,0c0.236,0,0.414,0.072,0.532,0.215
		c0.118,0.143,0.177,0.351,0.177,0.623c0,0.301-0.023,0.546-0.07,0.736c-0.046,0.19-0.109,0.317-0.188,0.381
		c-0.845,0.673-1.525,1.18-2.041,1.52c-0.516,0.34-0.877,0.51-1.085,0.51c-0.1,0-0.179-0.029-0.236-0.086
		c-0.058-0.058-0.086-0.144-0.086-0.258c0-0.193,0.161-0.406,0.483-0.639c0.322-0.232,0.479-0.41,0.473-0.532l-0.097-0.064
		c-0.036,0-0.077,0.011-0.124,0.032s-0.095,0.05-0.145,0.086c-0.63,0.509-1.104,0.965-1.423,1.37
		c-0.318,0.404-0.478,0.757-0.478,1.058c0,0.236,0.042,0.476,0.124,0.72c0.083,0.243,0.202,0.494,0.36,0.751
		c0.114,0.179,0.281,0.407,0.5,0.682c0.218,0.275,0.496,0.606,0.832,0.993c0.465,0.537,0.823,0.952,1.074,1.246
		c0.25,0.293,0.39,0.447,0.418,0.461c0.144,0.187,0.265,0.373,0.365,0.559s0.168,0.365,0.204,0.537
		c0.036,0.136,0.061,0.304,0.075,0.504c0.014,0.201,0.021,0.444,0.021,0.73c0,0.168,0.025,0.265,0.075,0.29
		c0.05,0.025,0.132,0.038,0.247,0.038c0.043,0,0.077-0.009,0.102-0.027C90.271,12.418,90.298,12.395,90.327,12.366z"/>
	<path fill="#FFFFFF" d="M90.316,12.377l0.064-0.075l0.032-0.107c0.193-0.265,0.533-0.61,1.021-1.037
		c0.487-0.426,0.823-0.771,1.009-1.036c0.072-0.114,0.154-0.197,0.248-0.247c0.092-0.05,0.186-0.075,0.279-0.075
		c0.25,0,0.461,0.063,0.633,0.188c0.172,0.125,0.287,0.313,0.344,0.564c0.051,0.222,0.097,0.446,0.14,0.671
		c0.043,0.226,0.079,0.453,0.107,0.682c0.05,0.144,0.11,0.36,0.183,0.65c0.071,0.29,0.125,0.456,0.161,0.499
		c0.036,0.072,0.089,0.124,0.161,0.156c0.071,0.032,0.161,0.048,0.269,0.048c0.128,0,0.261-0.023,0.397-0.07
		c0.136-0.046,0.275-0.127,0.418-0.242c0.107-0.093,0.221-0.188,0.339-0.284s0.234-0.191,0.349-0.285l0.43,0.988
		c-0.114,0.115-0.267,0.246-0.456,0.392c-0.19,0.147-0.417,0.317-0.683,0.51c-0.293,0.215-0.543,0.374-0.752,0.478
		c-0.207,0.104-0.364,0.156-0.472,0.156c-0.651,0-1.074-0.075-1.268-0.225c-0.192-0.15-0.407-0.569-0.644-1.257
		c-0.029-0.057-0.072-0.125-0.129-0.204c-0.059-0.079-0.123-0.172-0.193-0.279c-0.086-0.165-0.162-0.288-0.227-0.37
		c-0.064-0.083-0.117-0.124-0.16-0.124c-0.115,0-0.27,0.077-0.462,0.231c-0.193,0.154-0.43,0.385-0.709,0.692
		c-0.036-0.093-0.081-0.204-0.134-0.333c-0.054-0.128-0.109-0.279-0.167-0.451c-0.014-0.043-0.032-0.083-0.054-0.118
		S90.345,12.398,90.316,12.377z M94.805,3.904c0.179,0,0.31,0.036,0.392,0.107c0.083,0.071,0.124,0.175,0.124,0.311
		c-0.043,0.201-0.079,0.369-0.107,0.505c-0.072,0.258-0.135,0.469-0.188,0.634s-0.095,0.283-0.123,0.354
		c-0.064,0.157-0.152,0.295-0.263,0.413c-0.111,0.118-0.246,0.224-0.403,0.317c-0.165,0.115-0.303,0.195-0.413,0.242
		c-0.111,0.047-0.188,0.066-0.231,0.059c-0.122-0.014-0.237-0.027-0.349-0.038s-0.221-0.016-0.328-0.016
		c-0.093-0.05-0.166-0.146-0.22-0.29c-0.054-0.143-0.081-0.336-0.081-0.58c0-0.214,0.131-0.485,0.393-0.811s0.492-0.5,0.692-0.521
		c0.122-0.15,0.265-0.322,0.43-0.516c0.071-0.05,0.165-0.091,0.279-0.123S94.655,3.904,94.805,3.904z"/>
	<path fill="#FFFFFF" d="M96.458,12.377l0.097-0.086c0.008-0.079,0.058-0.172,0.15-0.279c0.094-0.107,0.226-0.232,0.397-0.376
		c0.107-0.079,0.22-0.154,0.339-0.226c0.117-0.071,0.23-0.15,0.338-0.236c0.451-0.386,0.887-0.759,1.311-1.117
		c0.242-0.215,0.486-0.399,0.729-0.553c0.243-0.154,0.473-0.277,0.688-0.37c0.15-0.193,0.431-0.39,0.843-0.591
		c0.412-0.2,0.746-0.301,1.004-0.301c0.101,0,0.182,0.029,0.242,0.086c0.061,0.058,0.098,0.129,0.113,0.215v0.591
		c0,0.208-0.06,0.392-0.178,0.553s-0.295,0.31-0.531,0.446c-0.158,0.072-0.315,0.15-0.473,0.236
		c-0.158,0.086-0.315,0.165-0.473,0.236c-0.058,0.072-0.209,0.206-0.457,0.403c-0.246,0.197-0.582,0.46-1.004,0.789
		c-0.193,0.15-0.354,0.285-0.482,0.403s-0.219,0.213-0.27,0.285c-0.071,0.136-0.127,0.286-0.166,0.451
		c-0.039,0.165-0.059,0.354-0.059,0.569c0,0.165,0.024,0.306,0.074,0.424c0.051,0.118,0.125,0.213,0.227,0.285
		c0.07,0.05,0.17,0.1,0.295,0.15c0.125,0.05,0.281,0.1,0.467,0.15c0.107-0.043,0.249-0.084,0.424-0.124
		c0.176-0.04,0.371-0.091,0.586-0.156c0.243-0.143,0.492-0.293,0.746-0.451c0.254-0.157,0.506-0.318,0.758-0.483
		c0.035-0.021,0.08-0.044,0.134-0.07c0.054-0.025,0.108-0.063,0.167-0.113c0.07-0.093,0.17-0.2,0.295-0.322
		c0.125-0.122,0.277-0.261,0.456-0.419c0.286,0.623,0.43,0.952,0.43,0.988c-0.265,0.215-0.533,0.435-0.806,0.661
		c-0.271,0.226-0.584,0.41-0.934,0.553c-0.115,0.093-0.212,0.179-0.291,0.257c-0.357,0.358-0.774,0.628-1.25,0.811
		c-0.477,0.183-1.02,0.274-1.627,0.274c-0.137,0-0.258-0.011-0.365-0.032s-0.197-0.05-0.27-0.086
		c-0.215-0.144-0.396-0.269-0.547-0.376c-0.158-0.114-0.29-0.224-0.397-0.328c-0.107-0.104-0.187-0.202-0.236-0.295
		c-0.064-0.1-0.108-0.222-0.134-0.365s-0.038-0.319-0.038-0.526c0-0.057,0.019-0.15,0.054-0.279s0.054-0.218,0.054-0.269
		c-0.05-0.157-0.11-0.318-0.183-0.483C96.634,12.717,96.551,12.549,96.458,12.377z"/>
	<path fill="#FFFFFF" d="M103.235,12.377l0.064-0.075l0.032-0.107c0.193-0.265,0.533-0.61,1.021-1.037
		c0.486-0.426,0.823-0.771,1.01-1.036c0.07-0.114,0.153-0.197,0.246-0.247c0.094-0.05,0.187-0.075,0.279-0.075
		c0.251,0,0.462,0.063,0.634,0.188c0.172,0.125,0.286,0.313,0.344,0.564c0.05,0.222,0.097,0.446,0.14,0.671
		c0.043,0.226,0.078,0.453,0.107,0.682c0.05,0.144,0.111,0.36,0.183,0.65s0.125,0.456,0.161,0.499
		c0.035,0.072,0.09,0.124,0.161,0.156s0.161,0.048,0.269,0.048c0.129,0,0.262-0.023,0.396-0.07c0.137-0.046,0.276-0.127,0.42-0.242
		c0.107-0.093,0.22-0.188,0.338-0.284s0.234-0.191,0.35-0.285l0.429,0.988c-0.114,0.115-0.267,0.246-0.456,0.392
		c-0.189,0.147-0.418,0.317-0.682,0.51c-0.294,0.215-0.545,0.374-0.752,0.478c-0.208,0.104-0.365,0.156-0.473,0.156
		c-0.652,0-1.074-0.075-1.268-0.225c-0.193-0.15-0.408-0.569-0.645-1.257c-0.028-0.057-0.071-0.125-0.129-0.204
		c-0.057-0.079-0.121-0.172-0.193-0.279c-0.086-0.165-0.16-0.288-0.225-0.37c-0.064-0.083-0.119-0.124-0.162-0.124
		c-0.113,0-0.268,0.077-0.461,0.231s-0.43,0.385-0.709,0.692c-0.036-0.093-0.08-0.204-0.135-0.333
		c-0.053-0.128-0.108-0.279-0.166-0.451c-0.014-0.043-0.032-0.083-0.054-0.118S103.264,12.398,103.235,12.377z M107.724,3.904
		c0.179,0,0.31,0.036,0.392,0.107c0.082,0.071,0.123,0.175,0.123,0.311c-0.043,0.201-0.078,0.369-0.107,0.505
		c-0.07,0.258-0.134,0.469-0.188,0.634s-0.095,0.283-0.123,0.354c-0.064,0.157-0.152,0.295-0.264,0.413s-0.245,0.224-0.402,0.317
		c-0.165,0.115-0.303,0.195-0.414,0.242c-0.11,0.047-0.188,0.066-0.23,0.059c-0.121-0.014-0.238-0.027-0.349-0.038
		c-0.111-0.011-0.22-0.016-0.327-0.016c-0.094-0.05-0.167-0.146-0.221-0.29c-0.054-0.143-0.08-0.336-0.08-0.58
		c0-0.214,0.13-0.485,0.392-0.811c0.261-0.326,0.492-0.5,0.692-0.521c0.121-0.15,0.266-0.322,0.43-0.516
		c0.071-0.05,0.164-0.091,0.279-0.123C107.441,3.92,107.574,3.904,107.724,3.904z"/>
	<path fill="#FFFFFF" d="M109.377,12.377c0.064-0.072,0.129-0.159,0.193-0.263c0.064-0.104,0.15-0.216,0.258-0.338l0.709-0.623
		c0.028-0.021,0.045-0.05,0.049-0.086c0.003-0.036,0.005-0.086,0.005-0.15c-0.007-0.093-0.019-0.168-0.032-0.226
		c0-0.165,0.032-0.44,0.096-0.827c0.064-0.387,0.123-0.619,0.172-0.698l-0.064-0.204c0.094-0.479,0.225-1.004,0.393-1.573
		c0.168-0.569,0.359-1.187,0.574-1.853c0.072-0.115,0.146-0.26,0.227-0.435c0.078-0.175,0.168-0.374,0.268-0.596
		c0.122-0.372,0.283-0.762,0.483-1.17s0.426-0.827,0.677-1.256c0.336-0.565,0.635-0.992,0.896-1.278
		c0.262-0.286,0.496-0.429,0.703-0.429c0.416,0,0.7,0.081,0.854,0.241c0.154,0.161,0.231,0.464,0.231,0.908
		c0,0.115-0.02,0.292-0.06,0.532c-0.039,0.24-0.059,0.42-0.059,0.542c0,0.122-0.039,0.294-0.118,0.516
		c-0.079,0.222-0.118,0.426-0.118,0.612c-0.007,0.057-0.025,0.114-0.053,0.172l0.01,0.15c-0.028,0.1-0.071,0.222-0.129,0.365
		c-0.057,0.144-0.133,0.315-0.225,0.516c-0.051,0.179-0.115,0.387-0.193,0.623c-0.08,0.236-0.172,0.494-0.279,0.773
		c-0.043,0.072-0.1,0.16-0.167,0.263c-0.067,0.104-0.142,0.22-0.22,0.349c-0.021,0.093-0.058,0.201-0.107,0.322
		c-0.051,0.122-0.119,0.265-0.205,0.429c-0.043,0.086-0.1,0.179-0.171,0.279c-0.071,0.101-0.157,0.229-0.258,0.387
		c-0.043,0.072-0.09,0.161-0.14,0.269c-0.051,0.107-0.107,0.229-0.172,0.365c-0.079,0.122-0.183,0.272-0.312,0.451
		c-0.129,0.179-0.276,0.391-0.44,0.634c-0.222,0.394-0.451,0.77-0.688,1.127c0,0.695,0.139,1.219,0.414,1.574
		c0.275,0.354,0.689,0.531,1.24,0.531c0.035,0,0.143-0.025,0.322-0.075c0.179-0.05,0.426-0.129,0.74-0.236
		c0.094-0.057,0.205-0.138,0.334-0.241c0.129-0.104,0.275-0.228,0.439-0.371l0.419,0.988c-0.187,0.165-0.372,0.333-0.558,0.505
		c-0.188,0.172-0.377,0.34-0.57,0.505c-0.222,0.186-0.447,0.327-0.676,0.424c-0.229,0.097-0.455,0.145-0.677,0.145
		c-0.114,0-0.29-0.012-0.526-0.038c-0.236-0.025-0.415-0.038-0.537-0.038c-0.4,0-0.732-0.161-0.993-0.483
		c-0.261-0.322-0.446-0.806-0.554-1.45c-0.014-0.064-0.033-0.122-0.059-0.171c-0.025-0.05-0.07-0.107-0.134-0.172
		c-0.093,0.093-0.202,0.204-0.327,0.333c-0.126,0.129-0.278,0.276-0.457,0.44L109.377,12.377z M114.5,3.947l-0.076-0.043
		c-0.4,0.386-0.703,0.751-0.906,1.095c-0.205,0.344-0.307,0.677-0.307,0.999c0,0.05-0.023,0.134-0.07,0.252
		s-0.115,0.271-0.209,0.457c-0.115,0.222-0.232,0.465-0.354,0.73c-0.136,0.401-0.239,0.727-0.312,0.977
		c-0.071,0.25-0.107,0.43-0.107,0.537l0.064,0.086c0.064-0.007,0.144-0.072,0.236-0.193c0.094-0.122,0.201-0.301,0.322-0.537
		c0.057-0.129,0.14-0.279,0.247-0.451s0.229-0.375,0.365-0.612c0.114-0.158,0.297-0.562,0.548-1.214
		c0.25-0.651,0.387-1.066,0.408-1.246c0.007-0.143,0.026-0.285,0.059-0.424S114.471,4.083,114.5,3.947z"/>
	<path fill="#FFFFFF" d="M115.434,12.377l0.064-0.075l0.033-0.107c0.193-0.265,0.533-0.61,1.02-1.037
		c0.487-0.426,0.824-0.771,1.01-1.036c0.071-0.114,0.154-0.197,0.247-0.247c0.093-0.05,0.187-0.075,0.279-0.075
		c0.251,0,0.462,0.063,0.634,0.188c0.172,0.125,0.286,0.313,0.344,0.564c0.05,0.222,0.096,0.446,0.139,0.671
		c0.043,0.226,0.079,0.453,0.107,0.682c0.051,0.144,0.111,0.36,0.184,0.65c0.07,0.29,0.125,0.456,0.16,0.499
		c0.036,0.072,0.09,0.124,0.162,0.156c0.07,0.032,0.16,0.048,0.268,0.048c0.129,0,0.262-0.023,0.397-0.07
		c0.136-0.046,0.276-0.127,0.419-0.242c0.107-0.093,0.221-0.188,0.338-0.284c0.119-0.097,0.234-0.191,0.35-0.285l0.429,0.988
		c-0.113,0.115-0.266,0.246-0.455,0.392c-0.19,0.147-0.418,0.317-0.683,0.51c-0.293,0.215-0.544,0.374-0.752,0.478
		c-0.207,0.104-0.365,0.156-0.473,0.156c-0.651,0-1.074-0.075-1.268-0.225c-0.192-0.15-0.407-0.569-0.644-1.257
		c-0.028-0.057-0.071-0.125-0.129-0.204c-0.058-0.079-0.122-0.172-0.193-0.279c-0.086-0.165-0.161-0.288-0.226-0.37
		c-0.064-0.083-0.118-0.124-0.161-0.124c-0.114,0-0.269,0.077-0.462,0.231s-0.43,0.385-0.709,0.692
		c-0.035-0.093-0.08-0.204-0.134-0.333c-0.054-0.128-0.108-0.279-0.167-0.451c-0.014-0.043-0.031-0.083-0.053-0.118
		S115.463,12.398,115.434,12.377z M119.924,3.904c0.178,0,0.309,0.036,0.391,0.107c0.083,0.071,0.124,0.175,0.124,0.311
		c-0.043,0.201-0.079,0.369-0.107,0.505c-0.071,0.258-0.134,0.469-0.188,0.634c-0.053,0.165-0.094,0.283-0.123,0.354
		c-0.064,0.157-0.152,0.295-0.263,0.413c-0.111,0.118-0.245,0.224-0.403,0.317c-0.164,0.115-0.303,0.195-0.413,0.242
		c-0.11,0.047-0.188,0.066-0.231,0.059c-0.121-0.014-0.237-0.027-0.348-0.038c-0.111-0.011-0.221-0.016-0.328-0.016
		c-0.094-0.05-0.166-0.146-0.221-0.29c-0.053-0.143-0.08-0.336-0.08-0.58c0-0.214,0.131-0.485,0.393-0.811
		c0.261-0.326,0.492-0.5,0.691-0.521c0.122-0.15,0.266-0.322,0.43-0.516c0.072-0.05,0.165-0.091,0.279-0.123
		C119.641,3.92,119.774,3.904,119.924,3.904z"/>
	<path fill="#FFFFFF" d="M121.921,11.904l0.978-0.645c0.035-0.036,0.078-0.084,0.129-0.145c0.05-0.061,0.107-0.149,0.172-0.263
		c0.05-0.093,0.116-0.172,0.198-0.236s0.178-0.122,0.284-0.172c0.058-0.071,0.14-0.161,0.247-0.269s0.244-0.232,0.408-0.376
		c0.079-0.043,0.179-0.105,0.301-0.188c0.122-0.082,0.254-0.191,0.397-0.327c0.651-0.616,1.223-1.078,1.713-1.386
		c0.49-0.308,0.904-0.461,1.24-0.461c0.187,0,0.324,0.039,0.414,0.118c0.089,0.079,0.134,0.189,0.134,0.333
		c0,0.15-0.026,0.283-0.08,0.397c-0.054,0.115-0.139,0.211-0.253,0.29c-0.179,0.129-0.372,0.272-0.58,0.43
		c-0.114,0.15-0.254,0.31-0.419,0.478c-0.164,0.168-0.357,0.335-0.579,0.5c-0.072,0.093-0.133,0.176-0.183,0.247
		c-0.036,0.036-0.104,0.101-0.204,0.193c-0.101,0.093-0.233,0.201-0.397,0.322c-0.072,0.157-0.228,0.361-0.467,0.612
		c-0.24,0.251-0.561,0.552-0.962,0.902c-0.05,0.05-0.14,0.165-0.269,0.344c-0.129,0.179-0.297,0.415-0.504,0.708l0.074,0.097
		c0.158-0.05,0.322-0.136,0.494-0.258c0.172-0.122,0.361-0.283,0.569-0.483c0.243-0.222,0.442-0.403,0.597-0.542
		c0.153-0.14,0.263-0.231,0.327-0.274c0.05-0.028,0.1-0.057,0.15-0.086c0.05-0.028,0.107-0.064,0.172-0.107
		c0.329-0.394,0.637-0.686,0.924-0.875c0.286-0.19,0.551-0.285,0.794-0.285c0.15,0,0.265,0.059,0.344,0.177s0.125,0.295,0.14,0.531
		c-0.015,0.358-0.021,0.702-0.021,1.031c-0.007,0.229,0.056,0.435,0.188,0.618c0.132,0.182,0.306,0.273,0.521,0.273
		c0.064,0,0.127-0.018,0.188-0.054c0.062-0.036,0.124-0.082,0.188-0.14c0.05-0.064,0.099-0.125,0.145-0.182
		c0.047-0.058,0.095-0.115,0.146-0.172c0.028-0.015,0.069-0.04,0.123-0.075s0.105-0.079,0.156-0.129
		c0.1,0.215,0.184,0.403,0.252,0.563c0.068,0.161,0.12,0.303,0.156,0.424c-0.165,0.15-0.328,0.306-0.489,0.467
		s-0.331,0.313-0.51,0.457c-0.215,0.165-0.423,0.288-0.623,0.371c-0.2,0.082-0.401,0.123-0.602,0.123
		c-0.465,0-0.823-0.132-1.073-0.397c-0.251-0.265-0.397-0.666-0.44-1.203c0-0.064-0.01-0.13-0.027-0.199
		c-0.018-0.068-0.056-0.138-0.112-0.209c-0.036,0.036-0.075,0.073-0.118,0.113c-0.043,0.039-0.094,0.091-0.15,0.155
		c-0.094,0.072-0.21,0.161-0.35,0.269s-0.302,0.236-0.488,0.387c-0.251,0.258-0.462,0.469-0.634,0.634s-0.293,0.283-0.365,0.354
		c-0.143,0.122-0.31,0.243-0.499,0.365c-0.189,0.122-0.402,0.247-0.639,0.376c-0.15,0.079-0.279,0.142-0.387,0.188
		s-0.187,0.07-0.236,0.07c-0.344,0-0.598-0.084-0.763-0.252s-0.247-0.428-0.247-0.778c0-0.193,0.041-0.378,0.123-0.553
		c0.083-0.175,0.207-0.345,0.371-0.51c0.015-0.093,0.021-0.168,0.021-0.226c0-0.036-0.009-0.073-0.027-0.113
		c-0.018-0.039-0.041-0.084-0.069-0.134c-0.043-0.1-0.091-0.213-0.146-0.338c-0.053-0.125-0.112-0.26-0.177-0.403
		c0.028-0.029,0.069-0.084,0.124-0.167C121.787,12.128,121.85,12.026,121.921,11.904z"/>
	<path fill="#FFFFFF" d="M129.835,12.377c0.028-0.05,0.066-0.105,0.113-0.167c0.046-0.061,0.102-0.134,0.166-0.22
		c0.071-0.057,0.165-0.14,0.279-0.247s0.243-0.232,0.387-0.376c0.129-0.143,0.286-0.32,0.473-0.531
		c0.186-0.211,0.411-0.467,0.677-0.768c0.114-0.122,0.257-0.277,0.429-0.467c0.172-0.189,0.376-0.417,0.612-0.682
		c0.2-0.236,0.415-0.412,0.645-0.526c0.229-0.114,0.473-0.172,0.73-0.172s0.447,0.081,0.569,0.242
		c0.121,0.161,0.183,0.396,0.183,0.704c0,0.165-0.062,0.479-0.183,0.945c-0.122,0.465-0.312,1.081-0.569,1.847
		c-0.064,0.144-0.126,0.279-0.183,0.408c-0.043,0.093-0.072,0.175-0.086,0.247c-0.015,0.071-0.021,0.125-0.021,0.161
		c0,0.043,0.024,0.097,0.075,0.161c0.035-0.021,0.069-0.05,0.102-0.085c0.032-0.036,0.07-0.079,0.113-0.129
		c0.057-0.107,0.145-0.22,0.263-0.338s0.26-0.249,0.425-0.392c0.064-0.122,0.148-0.242,0.252-0.36s0.22-0.227,0.349-0.328
		c0.029-0.028,0.066-0.075,0.113-0.14c0.046-0.064,0.102-0.132,0.166-0.204c0.094-0.093,0.204-0.19,0.333-0.29
		s0.279-0.204,0.451-0.312c0.193-0.1,0.367-0.179,0.521-0.236c0.154-0.057,0.288-0.086,0.403-0.086c0.222,0,0.419,0.054,0.591,0.161
		s0.318,0.276,0.44,0.505c0.143,0.444,0.278,0.855,0.407,1.235c0.079,0.222,0.167,0.387,0.264,0.494s0.205,0.161,0.327,0.161
		c0.093,0,0.178-0.018,0.253-0.054s0.145-0.089,0.209-0.161l0.43,0.988c-0.122,0.101-0.247,0.204-0.376,0.312
		s-0.254,0.211-0.376,0.312c-0.165,0.15-0.318,0.256-0.462,0.317c-0.143,0.061-0.286,0.091-0.43,0.091
		c-0.164,0-0.321-0.036-0.472-0.107c-0.15-0.072-0.279-0.179-0.387-0.322c-0.058-0.057-0.129-0.163-0.215-0.317
		c-0.086-0.154-0.187-0.345-0.301-0.575c-0.094-0.093-0.199-0.216-0.317-0.37c-0.118-0.154-0.256-0.335-0.413-0.542l-0.097-0.032
		c-0.136,0.043-0.271,0.107-0.402,0.193s-0.273,0.197-0.424,0.333c-0.321,0.286-0.554,0.465-0.697,0.537
		c-0.143,0.072-0.239,0.154-0.289,0.247c-0.101,0.172-0.271,0.394-0.515,0.666s-0.548,0.594-0.912,0.966
		c-0.093,0.093-0.186,0.185-0.279,0.274c-0.093,0.09-0.186,0.177-0.278,0.263c-0.093,0.079-0.198,0.134-0.316,0.167
		s-0.249,0.048-0.392,0.048c-0.286,0-0.442-0.099-0.467-0.295c-0.025-0.197-0.049-0.396-0.07-0.596
		c0.107-0.3,0.229-0.676,0.365-1.127s0.292-0.977,0.47-1.579c0-0.036,0.012-0.084,0.037-0.145c0.024-0.061,0.055-0.141,0.09-0.242
		c0.036-0.093,0.061-0.173,0.074-0.242c0.015-0.068,0.021-0.127,0.021-0.177c0-0.05-0.018-0.089-0.054-0.118
		c-0.035-0.028-0.093-0.043-0.172-0.043c-0.071,0-0.166,0.043-0.284,0.129s-0.26,0.222-0.424,0.408
		c-0.201,0.215-0.362,0.383-0.483,0.505c-0.122,0.122-0.204,0.193-0.247,0.215c-0.072,0.05-0.156,0.122-0.253,0.215
		c-0.097,0.093-0.205,0.197-0.327,0.311c-0.015,0.029-0.036,0.072-0.064,0.129c-0.028,0.058-0.075,0.122-0.14,0.193
		c-0.028-0.107-0.079-0.24-0.15-0.397C130.043,12.81,129.95,12.613,129.835,12.377z"/>
	<path fill="#FFFFFF" d="M140.102,12.377c0.05-0.05,0.103-0.116,0.156-0.199c0.054-0.082,0.116-0.173,0.188-0.274l0.827-0.569
		c0.1-0.122,0.254-0.277,0.462-0.467c0.207-0.19,0.465-0.421,0.772-0.693c0.036-0.079,0.095-0.17,0.178-0.274
		c0.082-0.104,0.181-0.206,0.295-0.306c0.101-0.093,0.2-0.181,0.301-0.263c0.101-0.083,0.193-0.163,0.279-0.242
		c0.107-0.107,0.21-0.215,0.307-0.322c0.096-0.107,0.194-0.211,0.295-0.312c0.114-0.1,0.232-0.179,0.354-0.236
		c0.121-0.057,0.254-0.086,0.397-0.086c0.157,0,0.277,0.02,0.359,0.059c0.082,0.04,0.127,0.095,0.135,0.167
		c-0.072,0.165-0.147,0.33-0.226,0.494l0.064,0.097c0.314-0.122,0.562-0.211,0.74-0.269c0.18-0.057,0.294-0.086,0.344-0.086
		c0.522,0,0.915,0.159,1.176,0.478c0.262,0.318,0.393,0.8,0.393,1.444c0,0.122-0.015,0.265-0.043,0.43
		c-0.029,0.165-0.075,0.343-0.14,0.537c-0.071,0.215-0.148,0.394-0.231,0.537c-0.082,0.143-0.159,0.247-0.23,0.312
		c0.028,0.093,0.061,0.159,0.097,0.199c0.036,0.039,0.082,0.059,0.14,0.059s0.116-0.018,0.177-0.054
		c0.062-0.036,0.135-0.089,0.221-0.161c0.071,0.158,0.142,0.32,0.209,0.489c0.068,0.168,0.138,0.334,0.21,0.499
		c-0.129,0.115-0.255,0.226-0.376,0.333c-0.122,0.107-0.251,0.211-0.387,0.312c-0.165,0.136-0.32,0.234-0.467,0.295
		c-0.147,0.061-0.292,0.091-0.436,0.091c-0.165,0-0.301-0.04-0.408-0.118s-0.193-0.19-0.258-0.333
		c-0.179,0.236-0.396,0.453-0.649,0.65c-0.254,0.197-0.535,0.359-0.843,0.488c-0.18,0.086-0.342,0.152-0.489,0.199
		c-0.146,0.047-0.28,0.07-0.402,0.07c-0.036,0-0.105,0.015-0.209,0.043c-0.104,0.029-0.188,0.043-0.253,0.043
		c-0.408,0-0.776-0.172-1.105-0.516c-0.33-0.343-0.494-0.727-0.494-1.149c0-0.172,0.039-0.399,0.118-0.682
		c0.078-0.283,0.118-0.449,0.118-0.499c0-0.05-0.017-0.091-0.049-0.124s-0.077-0.048-0.134-0.048c-0.036,0-0.122,0.054-0.258,0.161
		c-0.137,0.107-0.33,0.261-0.58,0.461c-0.021,0.029-0.047,0.072-0.075,0.129c-0.028,0.058-0.075,0.122-0.14,0.193
		c-0.058-0.165-0.122-0.331-0.193-0.499C140.267,12.697,140.188,12.535,140.102,12.377z M145.268,10.412
		c-0.036,0.007-0.088,0.045-0.156,0.113s-0.134,0.152-0.198,0.252c-0.101,0.165-0.215,0.344-0.344,0.537
		c-0.079,0.086-0.163,0.152-0.253,0.199c-0.089,0.047-0.191,0.081-0.306,0.102c-0.071,0.007-0.146,0.077-0.226,0.209
		c-0.079,0.133-0.157,0.324-0.236,0.575c-0.079,0.222-0.136,0.412-0.172,0.569c-0.036,0.158-0.054,0.29-0.054,0.397
		c0,0.201,0.05,0.351,0.15,0.451c0.101,0.101,0.254,0.15,0.462,0.15c0.329,0,0.632-0.091,0.907-0.274s0.535-0.457,0.778-0.821
		c0.115-0.136,0.223-0.265,0.322-0.387c0.058-0.043,0.104-0.113,0.14-0.209c0.036-0.097,0.072-0.216,0.107-0.36l0.193-0.612
		c-0.064-0.214-0.125-0.385-0.183-0.51c-0.057-0.125-0.114-0.202-0.172-0.231c-0.035-0.021-0.114-0.045-0.236-0.07
		C145.672,10.467,145.497,10.44,145.268,10.412z"/>
	<path fill="#FFFFFF" d="M161.914,0.8c0.164,0.05,0.333,0.106,0.504,0.167c0.172,0.061,0.341,0.124,0.505,0.188
		c0.058,0.029,0.146,0.107,0.264,0.236s0.27,0.312,0.456,0.548c0.208,0.25,0.331,0.417,0.37,0.499
		c0.04,0.083,0.117,0.285,0.231,0.607c0.079,0.122,0.181,0.342,0.306,0.661c0.126,0.318,0.188,0.549,0.188,0.692
		c0,0.258-0.193,0.571-0.58,0.94s-0.691,0.553-0.913,0.553c-0.144,0-0.249-0.044-0.316-0.134c-0.068-0.09-0.103-0.22-0.103-0.392
		c-0.064-0.287-0.114-0.533-0.15-0.741c-0.2-0.78-0.467-1.367-0.8-1.761c-0.333-0.394-0.739-0.59-1.219-0.59
		c-0.243,0-0.481,0.041-0.714,0.123c-0.233,0.083-0.446,0.206-0.64,0.371c-0.1,0.079-0.232,0.211-0.397,0.397
		c-0.164,0.186-0.361,0.419-0.59,0.698c-0.029,0.05-0.068,0.107-0.118,0.172c-0.051,0.064-0.111,0.15-0.183,0.257
		c-0.064,0.122-0.148,0.267-0.253,0.435c-0.104,0.168-0.23,0.36-0.381,0.575c-0.064,0.186-0.129,0.358-0.193,0.516
		c-0.064,0.157-0.144,0.304-0.236,0.44c-0.021,0.029-0.043,0.084-0.064,0.167c-0.021,0.083-0.047,0.192-0.075,0.328
		c-0.05,0.165-0.105,0.344-0.166,0.537c-0.062,0.193-0.128,0.404-0.199,0.633c-0.114,0.781-0.197,1.398-0.247,1.853
		c-0.05,0.455-0.075,0.75-0.075,0.886c0,0.308,0.027,0.616,0.081,0.923c0.054,0.308,0.138,0.616,0.252,0.924
		c0.086,0.222,0.168,0.412,0.247,0.569c0.079,0.158,0.154,0.272,0.226,0.344c0.107,0.107,0.243,0.19,0.408,0.247
		c0.165,0.058,0.347,0.086,0.548,0.086c0.286,0,0.559-0.05,0.816-0.15c0.257-0.1,0.497-0.24,0.719-0.419
		c0.064-0.057,0.193-0.188,0.387-0.392c0.193-0.204,0.455-0.481,0.784-0.833c0.071-0.057,0.159-0.138,0.263-0.242
		c0.104-0.104,0.217-0.22,0.339-0.349c0.136-0.186,0.263-0.372,0.381-0.558s0.238-0.365,0.36-0.537
		c0.15-0.193,0.316-0.336,0.499-0.43c0.183-0.093,0.381-0.14,0.596-0.14c0.294,0,0.512,0.064,0.655,0.193s0.215,0.322,0.215,0.58
		c0,0.086-0.025,0.206-0.075,0.36c-0.051,0.154-0.083,0.274-0.097,0.359c-0.015,0.129-0.036,0.289-0.064,0.478
		c-0.029,0.19-0.062,0.414-0.098,0.671c-0.014,0.322-0.048,0.608-0.102,0.859c-0.054,0.251-0.128,0.469-0.221,0.655
		c-0.115,0.244-0.214,0.634-0.296,1.17c-0.083,0.537-0.185,0.931-0.307,1.182c-0.043,0.071-0.083,0.184-0.118,0.338
		c-0.036,0.154-0.075,0.349-0.118,0.585c-0.029,0.15-0.063,0.279-0.103,0.387c-0.04,0.107-0.096,0.193-0.167,0.258
		c-0.058,0.043-0.137,0.089-0.236,0.14c-0.101,0.05-0.24,0.104-0.42,0.161c-0.028,0.165-0.079,0.288-0.15,0.37
		c-0.072,0.083-0.169,0.124-0.291,0.124c-0.1,0-0.177-0.043-0.23-0.129s-0.081-0.225-0.081-0.418c0-0.072,0.013-0.185,0.038-0.338
		c0.025-0.154,0.069-0.349,0.134-0.585c0.029-0.115,0.054-0.269,0.075-0.462c0.021-0.193,0.036-0.429,0.043-0.708
		c0.015-0.144,0.052-0.369,0.113-0.677c0.061-0.308,0.148-0.687,0.263-1.138l-0.14-0.698c0.028-0.086,0.054-0.183,0.075-0.29
		c0-0.05-0.013-0.087-0.037-0.113c-0.025-0.025-0.063-0.038-0.113-0.038c-0.25,0.172-0.458,0.337-0.622,0.494
		c-0.365,0.315-0.673,0.573-0.923,0.773c-0.251,0.2-0.443,0.347-0.58,0.44c-0.286,0.186-0.575,0.34-0.869,0.461
		c-0.293,0.122-0.594,0.204-0.901,0.247l-0.472-0.097c-0.144,0.021-0.265,0.043-0.365,0.064c-0.157,0-0.325-0.039-0.504-0.118
		c-0.179-0.079-0.372-0.193-0.58-0.344c-0.179-0.143-0.345-0.315-0.499-0.515c-0.153-0.201-0.287-0.44-0.402-0.72
		c-0.043-0.086-0.097-0.258-0.161-0.516c-0.063-0.257-0.149-0.587-0.257-0.988c0.064-0.172,0.104-0.358,0.118-0.559
		c0.014-0.2,0.007-0.415-0.021-0.644l0.215-1.611c0.172-1.346,0.51-2.542,1.015-3.587s1.161-1.958,1.971-2.739
		c0.271-0.272,0.501-0.49,0.688-0.655c0.186-0.165,0.304-0.279,0.354-0.343c0.157-0.122,0.331-0.244,0.521-0.365
		s0.396-0.243,0.617-0.365c0.114-0.064,0.245-0.13,0.393-0.199c0.146-0.068,0.32-0.138,0.521-0.209l0.999-0.118l0.333,0.086
		L161.914,0.8z"/>
	<path fill="#FFFFFF" d="M164.297,12.377l0.064-0.075l0.032-0.107c0.193-0.265,0.533-0.61,1.021-1.037
		c0.486-0.426,0.823-0.771,1.009-1.036c0.072-0.114,0.154-0.197,0.247-0.247c0.094-0.05,0.187-0.075,0.279-0.075
		c0.251,0,0.462,0.063,0.634,0.188c0.172,0.125,0.286,0.313,0.344,0.564c0.05,0.222,0.097,0.446,0.14,0.671
		c0.043,0.226,0.079,0.453,0.107,0.682c0.05,0.144,0.111,0.36,0.183,0.65s0.125,0.456,0.161,0.499
		c0.035,0.072,0.089,0.124,0.161,0.156c0.071,0.032,0.161,0.048,0.269,0.048c0.129,0,0.261-0.023,0.397-0.07
		c0.136-0.046,0.275-0.127,0.419-0.242c0.106-0.093,0.22-0.188,0.338-0.284s0.234-0.191,0.349-0.285l0.43,0.988
		c-0.114,0.115-0.267,0.246-0.456,0.392c-0.19,0.147-0.417,0.317-0.682,0.51c-0.294,0.215-0.545,0.374-0.752,0.478
		c-0.208,0.104-0.365,0.156-0.473,0.156c-0.651,0-1.074-0.075-1.268-0.225c-0.193-0.15-0.408-0.569-0.645-1.257
		c-0.028-0.057-0.071-0.125-0.129-0.204c-0.057-0.079-0.121-0.172-0.192-0.279c-0.086-0.165-0.161-0.288-0.226-0.37
		c-0.064-0.083-0.118-0.124-0.161-0.124c-0.115,0-0.269,0.077-0.462,0.231s-0.43,0.385-0.709,0.692
		c-0.036-0.093-0.08-0.204-0.134-0.333c-0.054-0.128-0.109-0.279-0.167-0.451c-0.015-0.043-0.032-0.083-0.054-0.118
		S164.326,12.398,164.297,12.377z M168.787,3.904c0.179,0,0.31,0.036,0.392,0.107c0.082,0.071,0.124,0.175,0.124,0.311
		c-0.043,0.201-0.079,0.369-0.107,0.505c-0.072,0.258-0.135,0.469-0.188,0.634s-0.095,0.283-0.123,0.354
		c-0.064,0.157-0.152,0.295-0.264,0.413c-0.11,0.118-0.245,0.224-0.402,0.317c-0.165,0.115-0.303,0.195-0.413,0.242
		c-0.111,0.047-0.188,0.066-0.231,0.059c-0.122-0.014-0.238-0.027-0.349-0.038c-0.111-0.011-0.221-0.016-0.328-0.016
		c-0.093-0.05-0.166-0.146-0.22-0.29c-0.054-0.143-0.081-0.336-0.081-0.58c0-0.214,0.131-0.485,0.393-0.811
		c0.261-0.326,0.492-0.5,0.692-0.521c0.122-0.15,0.265-0.322,0.43-0.516c0.071-0.05,0.165-0.091,0.279-0.123
		S168.636,3.904,168.787,3.904z"/>
	<path fill="#FFFFFF" d="M170.44,12.377c0.064-0.072,0.129-0.159,0.193-0.263c0.064-0.104,0.15-0.216,0.258-0.338l0.709-0.623
		c0.028-0.021,0.044-0.05,0.048-0.086c0.004-0.036,0.006-0.086,0.006-0.15c-0.008-0.093-0.019-0.168-0.032-0.226
		c0-0.165,0.032-0.44,0.097-0.827s0.121-0.619,0.172-0.698l-0.064-0.204c0.093-0.479,0.224-1.004,0.392-1.573
		c0.168-0.569,0.359-1.187,0.574-1.853c0.072-0.115,0.147-0.26,0.226-0.435c0.079-0.175,0.169-0.374,0.269-0.596
		c0.122-0.372,0.283-0.762,0.483-1.17s0.426-0.827,0.677-1.256c0.336-0.565,0.635-0.992,0.896-1.278
		c0.262-0.286,0.496-0.429,0.703-0.429c0.416,0,0.7,0.081,0.854,0.241c0.153,0.161,0.23,0.464,0.23,0.908
		c0,0.115-0.02,0.292-0.059,0.532c-0.04,0.24-0.06,0.42-0.06,0.542c0,0.122-0.039,0.294-0.118,0.516
		c-0.079,0.222-0.118,0.426-0.118,0.612c-0.007,0.057-0.025,0.114-0.054,0.172l0.011,0.15c-0.028,0.1-0.071,0.222-0.129,0.365
		c-0.057,0.144-0.132,0.315-0.226,0.516c-0.05,0.179-0.114,0.387-0.193,0.623c-0.078,0.236-0.172,0.494-0.278,0.773
		c-0.043,0.072-0.099,0.16-0.167,0.263c-0.068,0.104-0.142,0.22-0.22,0.349c-0.021,0.093-0.058,0.201-0.107,0.322
		c-0.051,0.122-0.118,0.265-0.204,0.429c-0.043,0.086-0.101,0.179-0.172,0.279c-0.072,0.101-0.158,0.229-0.258,0.387
		c-0.043,0.072-0.09,0.161-0.14,0.269s-0.107,0.229-0.172,0.365c-0.079,0.122-0.183,0.272-0.312,0.451
		c-0.129,0.179-0.275,0.391-0.44,0.634c-0.222,0.394-0.451,0.77-0.688,1.127c0,0.695,0.138,1.219,0.414,1.574
		c0.275,0.354,0.688,0.531,1.24,0.531c0.035,0,0.143-0.025,0.322-0.075c0.179-0.05,0.426-0.129,0.741-0.236
		c0.093-0.057,0.204-0.138,0.332-0.241c0.129-0.104,0.276-0.228,0.44-0.371l0.419,0.988c-0.187,0.165-0.372,0.333-0.559,0.505
		c-0.186,0.172-0.376,0.34-0.568,0.505c-0.223,0.186-0.448,0.327-0.677,0.424c-0.229,0.097-0.455,0.145-0.677,0.145
		c-0.114,0-0.29-0.012-0.526-0.038c-0.236-0.025-0.415-0.038-0.537-0.038c-0.4,0-0.731-0.161-0.993-0.483
		c-0.262-0.322-0.445-0.806-0.553-1.45c-0.015-0.064-0.034-0.122-0.06-0.171c-0.025-0.05-0.069-0.107-0.134-0.172
		c-0.094,0.093-0.202,0.204-0.328,0.333c-0.125,0.129-0.277,0.276-0.456,0.44L170.44,12.377z M175.563,3.947l-0.075-0.043
		c-0.401,0.386-0.704,0.751-0.908,1.095s-0.306,0.677-0.306,0.999c0,0.05-0.023,0.134-0.069,0.252
		c-0.047,0.118-0.117,0.271-0.21,0.457c-0.114,0.222-0.232,0.465-0.354,0.73c-0.136,0.401-0.24,0.727-0.312,0.977
		s-0.107,0.43-0.107,0.537l0.064,0.086c0.064-0.007,0.144-0.072,0.236-0.193s0.2-0.301,0.322-0.537
		c0.058-0.129,0.14-0.279,0.247-0.451s0.229-0.375,0.365-0.612c0.114-0.158,0.297-0.562,0.548-1.214
		c0.25-0.651,0.387-1.066,0.408-1.246c0.007-0.143,0.026-0.285,0.059-0.424S175.534,4.083,175.563,3.947z"/>
	<path fill="#FFFFFF" d="M176.497,12.377c0.064-0.072,0.129-0.159,0.193-0.263c0.064-0.104,0.15-0.216,0.258-0.338l0.709-0.623
		c0.028-0.021,0.044-0.05,0.048-0.086c0.004-0.036,0.006-0.086,0.006-0.15c-0.008-0.093-0.019-0.168-0.032-0.226
		c0-0.165,0.032-0.44,0.097-0.827s0.121-0.619,0.172-0.698l-0.064-0.204c0.093-0.479,0.224-1.004,0.392-1.573
		c0.168-0.569,0.359-1.187,0.574-1.853c0.072-0.115,0.147-0.26,0.226-0.435c0.079-0.175,0.169-0.374,0.269-0.596
		c0.122-0.372,0.283-0.762,0.483-1.17s0.426-0.827,0.677-1.256c0.336-0.565,0.635-0.992,0.896-1.278
		c0.262-0.286,0.496-0.429,0.703-0.429c0.416,0,0.7,0.081,0.854,0.241c0.153,0.161,0.23,0.464,0.23,0.908
		c0,0.115-0.02,0.292-0.059,0.532c-0.04,0.24-0.06,0.42-0.06,0.542c0,0.122-0.039,0.294-0.118,0.516
		c-0.079,0.222-0.118,0.426-0.118,0.612c-0.007,0.057-0.025,0.114-0.054,0.172l0.011,0.15c-0.028,0.1-0.071,0.222-0.129,0.365
		c-0.057,0.144-0.132,0.315-0.226,0.516c-0.05,0.179-0.114,0.387-0.193,0.623c-0.078,0.236-0.172,0.494-0.278,0.773
		c-0.043,0.072-0.099,0.16-0.167,0.263c-0.068,0.104-0.142,0.22-0.22,0.349c-0.021,0.093-0.058,0.201-0.107,0.322
		c-0.051,0.122-0.118,0.265-0.204,0.429c-0.043,0.086-0.101,0.179-0.172,0.279c-0.072,0.101-0.158,0.229-0.258,0.387
		c-0.043,0.072-0.09,0.161-0.14,0.269s-0.107,0.229-0.172,0.365c-0.079,0.122-0.183,0.272-0.312,0.451
		c-0.129,0.179-0.275,0.391-0.44,0.634c-0.222,0.394-0.451,0.77-0.688,1.127c0,0.695,0.138,1.219,0.414,1.574
		c0.275,0.354,0.688,0.531,1.24,0.531c0.035,0,0.143-0.025,0.322-0.075c0.179-0.05,0.426-0.129,0.741-0.236
		c0.093-0.057,0.204-0.138,0.332-0.241c0.129-0.104,0.276-0.228,0.44-0.371l0.419,0.988c-0.187,0.165-0.372,0.333-0.559,0.505
		c-0.186,0.172-0.376,0.34-0.568,0.505c-0.223,0.186-0.448,0.327-0.677,0.424c-0.229,0.097-0.455,0.145-0.677,0.145
		c-0.114,0-0.29-0.012-0.526-0.038c-0.236-0.025-0.415-0.038-0.537-0.038c-0.4,0-0.731-0.161-0.993-0.483
		c-0.262-0.322-0.445-0.806-0.553-1.45c-0.015-0.064-0.034-0.122-0.06-0.171c-0.025-0.05-0.069-0.107-0.134-0.172
		c-0.094,0.093-0.202,0.204-0.328,0.333c-0.125,0.129-0.277,0.276-0.456,0.44L176.497,12.377z M181.62,3.947l-0.075-0.043
		c-0.401,0.386-0.704,0.751-0.908,1.095s-0.306,0.677-0.306,0.999c0,0.05-0.023,0.134-0.069,0.252
		c-0.047,0.118-0.117,0.271-0.21,0.457c-0.114,0.222-0.232,0.465-0.354,0.73c-0.136,0.401-0.24,0.727-0.312,0.977
		s-0.107,0.43-0.107,0.537l0.064,0.086c0.064-0.007,0.144-0.072,0.236-0.193s0.2-0.301,0.322-0.537
		c0.058-0.129,0.14-0.279,0.247-0.451s0.229-0.375,0.365-0.612c0.114-0.158,0.297-0.562,0.548-1.214
		c0.25-0.651,0.387-1.066,0.408-1.246c0.007-0.143,0.026-0.285,0.059-0.424S181.59,4.083,181.62,3.947z"/>
</g>
</svg>
