<?xml version="1.0" encoding="utf-8"?>
<!-- Generator: Adobe Illustrator 16.0.0, SVG Export Plug-In . SVG Version: 6.00 Build 0)  -->
<!DOCTYPE svg PUBLIC "-//W3C//DTD SVG 1.1//EN" "http://www.w3.org/Graphics/SVG/1.1/DTD/svg11.dtd">
<svg version="1.1" id="Layer_1" xmlns="http://www.w3.org/2000/svg" xmlns:xlink="http://www.w3.org/1999/xlink" x="0px" y="0px"
	 width="59.812px" height="55.889px" viewBox="0 0 59.812 55.889" enable-background="new 0 0 59.812 55.889" xml:space="preserve">
<g>
	<g>
		<g>
			<g>
				<g>
					<path fill="#003051" d="M53.065,28.248L46.56,18.199c-0.506-0.777-1.359-1.244-2.289-1.244H15.562
						c-0.928,0-1.781,0.465-2.287,1.242L6.747,28.246c-0.666,1.027-0.563,2.383,0.252,3.297L27.87,54.977
						c0.516,0.578,1.258,0.912,2.035,0.912l0,0c0.777,0,1.518-0.334,2.035-0.912l20.873-23.434
						C53.628,30.629,53.731,29.275,53.065,28.248z M42.954,19.293l-5.473,8.461l-5.477-8.461H42.954z M35.333,28.738H24.476
						l5.43-8.391L35.333,28.738z M27.804,19.293l-5.461,8.439l-5.457-8.439H27.804z M14.726,20.254l5.486,8.484H9.216L14.726,20.254
						z M9.708,31.074h11.758l6.217,20.178L9.708,31.074z M29.905,50.529l-5.994-19.455h11.988L29.905,50.529z M32.126,51.254
						l6.217-20.18h11.76L32.126,51.254z M39.628,28.738l5.482-8.479l5.488,8.479H39.628z"/>
				</g>
			</g>
		</g>
		<g>
			<g>
				<g>
					<path fill="#003051" d="M3.544,28.738H1.169c-0.646,0-1.17,0.521-1.17,1.168c0,0.645,0.523,1.168,1.17,1.168h2.375
						c0.645,0,1.168-0.523,1.168-1.168C4.712,29.26,4.188,28.738,3.544,28.738z"/>
				</g>
			</g>
		</g>
		<g>
			<g>
				<g>
					<path fill="#003051" d="M58.644,28.738h-2.375c-0.645,0-1.168,0.521-1.168,1.168c0,0.645,0.523,1.168,1.168,1.168h2.375
						c0.645,0,1.168-0.523,1.168-1.168C59.812,29.26,59.288,28.738,58.644,28.738z"/>
				</g>
			</g>
		</g>
		<g>
			<g>
				<g>
					<path fill="#003051" d="M51.067,8.766c-0.455-0.457-1.195-0.457-1.652,0l-3.879,3.879c-0.457,0.457-0.457,1.197,0,1.652
						c0.227,0.229,0.525,0.342,0.826,0.342c0.299,0,0.598-0.113,0.824-0.342l3.881-3.879C51.524,9.961,51.524,9.221,51.067,8.766z"
						/>
				</g>
			</g>
		</g>
		<g>
			<g>
				<g>
					<path fill="#003051" d="M14.327,12.625l-3.881-3.881c-0.455-0.457-1.195-0.457-1.652,0c-0.455,0.457-0.455,1.195,0,1.652
						l3.881,3.881c0.229,0.229,0.527,0.342,0.826,0.342s0.598-0.115,0.826-0.342C14.784,13.82,14.784,13.08,14.327,12.625z"/>
				</g>
			</g>
		</g>
		<g>
			<g>
				<g>
					<path fill="#003051" d="M29.937,0c-0.646,0-1.17,0.523-1.17,1.168v7.613c0,0.645,0.523,1.168,1.17,1.168
						c0.645,0,1.168-0.523,1.168-1.168V1.168C31.104,0.523,30.581,0,29.937,0z"/>
				</g>
			</g>
		</g>
		<g>
			<g>
				<g>
					<path fill="#003051" d="M30.761,11.906c-0.217-0.217-0.518-0.342-0.826-0.342c-0.307,0-0.607,0.125-0.826,0.342
						c-0.217,0.219-0.342,0.52-0.342,0.826c0,0.309,0.125,0.609,0.342,0.826c0.219,0.219,0.52,0.342,0.826,0.342
						c0.309,0,0.609-0.123,0.826-0.342c0.219-0.217,0.344-0.518,0.344-0.826C31.104,12.426,30.979,12.125,30.761,11.906z"/>
				</g>
			</g>
		</g>
	</g>
</g>
</svg>
