<?xml version="1.0" encoding="utf-8"?>
<!-- Generator: Adobe Illustrator 16.0.0, SVG Export Plug-In . SVG Version: 6.00 Build 0)  -->
<!DOCTYPE svg PUBLIC "-//W3C//DTD SVG 1.1//EN" "http://www.w3.org/Graphics/SVG/1.1/DTD/svg11.dtd">
<svg version="1.1" id="Layer_1" xmlns="http://www.w3.org/2000/svg" xmlns:xlink="http://www.w3.org/1999/xlink" x="0px" y="0px"
	 width="85.937px" height="37.387px" viewBox="0 0 85.937 37.387" enable-background="new 0 0 85.937 37.387" xml:space="preserve">
<g>
	<g>
		<path fill="#FFFFFF" d="M3.224,8.859C3.182,8.711,3.083,8.512,2.93,8.264C2.776,8.015,2.583,7.699,2.35,7.318
			C2.106,6.969,1.927,6.697,1.811,6.5C1.693,6.305,1.636,6.17,1.636,6.096c0-0.295,0.341-0.783,1.024-1.464
			C3.343,3.951,3.843,3.61,4.16,3.61c0.232,0.096,0.402,0.19,0.508,0.286h0.477c0.286,0.148,0.58,0.285,0.882,0.412
			s0.595,0.26,0.882,0.396c0.857,0.392,1.391,0.707,1.604,0.944c0.211,0.238,0.551,0.505,1.016,0.802
			c0.064,0.084,0.191,0.225,0.381,0.42c0.191,0.195,0.451,0.441,0.779,0.738c0.041,0.031,0.095,0.09,0.158,0.174
			c0.063,0.085,0.133,0.175,0.207,0.27c0.455,0.54,0.838,1.037,1.15,1.492s0.549,0.878,0.707,1.27
			c0.201,0.476,0.352,0.983,0.453,1.523c0.1,0.539,0.15,1.126,0.15,1.76c0,1.175-0.159,2.164-0.477,2.967
			c-0.317,0.805-0.811,1.402-1.477,1.793c-0.064,0.054-0.154,0.115-0.27,0.184c-0.117,0.068-0.233,0.145-0.35,0.229l-0.207,0.206
			c-0.18,0.201-0.479,0.416-0.896,0.643c-0.419,0.229-0.967,0.474-1.645,0.738c-0.899,0.35-1.848,0.73-2.842,1.143
			c-0.275,0.137-0.512,0.248-0.707,0.333S4.298,22.46,4.192,22.46c-0.308,0-0.493,0.021-0.556,0.063
			c-0.064,0.043-0.122,0.467-0.175,1.273c-0.032,0.52-0.063,1.028-0.095,1.526c0,0.181,0.055,0.39,0.166,0.629
			s0.283,0.495,0.516,0.771c-0.095,0.212-0.203,0.419-0.325,0.622c-0.122,0.201-0.272,0.419-0.452,0.652
			c-0.191,0.287-0.387,0.503-0.588,0.646c-0.201,0.143-0.392,0.215-0.572,0.215c-0.349,0-0.605-0.186-0.77-0.557
			s-0.246-0.928-0.246-1.67c0-0.232,0.037-0.526,0.111-0.882c0.074-0.354,0.186-0.792,0.334-1.312l-0.08-0.922
			c-0.138-0.064-0.272-0.133-0.404-0.207c-0.133-0.074-0.263-0.154-0.39-0.238c-0.19-0.085-0.325-0.181-0.405-0.287
			c-0.079-0.105-0.119-0.211-0.119-0.317c0-0.127,0.257-0.315,0.771-0.563c0.513-0.249,0.771-0.58,0.771-0.992
			c0-0.117-0.024-0.287-0.072-0.509c-0.047-0.222-0.07-0.386-0.07-0.492c0.095-0.614,0.2-1.233,0.316-1.858
			c0.021-0.063,0.049-0.254,0.08-0.571s0.074-0.772,0.127-1.366c0.031-0.18,0.079-0.406,0.143-0.682
			c0.064-0.275,0.133-0.594,0.207-0.953l-0.111-0.572L3.224,8.859z M4.525,6.969c-0.063,0-0.108,0.016-0.135,0.047
			c-0.026,0.032-0.039,0.08-0.039,0.144C5.6,8.461,6.225,9.424,6.225,10.047c0,0.191-0.203,1.014-0.611,2.469
			s-0.686,2.336-0.834,2.643l0.127,0.666c-0.285,1.069-0.5,1.987-0.643,2.754c-0.143,0.768-0.215,1.379-0.215,1.834
			c0,0.115,0.024,0.201,0.072,0.254c0.047,0.053,0.113,0.078,0.198,0.078c0.105,0,0.296-0.047,0.571-0.143
			c0.275-0.095,0.63-0.259,1.064-0.492c0.275-0.147,0.551-0.285,0.826-0.412c0.274-0.127,0.555-0.26,0.841-0.396
			c0.116-0.064,0.251-0.146,0.405-0.246c0.153-0.101,0.32-0.22,0.5-0.357c0.254-0.19,0.455-0.346,0.604-0.468
			s0.243-0.198,0.285-0.23c0.455-0.317,0.8-0.714,1.033-1.19c0.232-0.477,0.35-1.042,0.35-1.698c0-0.392-0.046-0.788-0.136-1.19
			s-0.226-0.814-0.405-1.237l-0.031-0.382c-0.021-0.053-0.059-0.113-0.111-0.182s-0.111-0.146-0.175-0.23
			c-0.063-0.063-0.132-0.148-0.206-0.254s-0.143-0.243-0.207-0.412C9.358,10.895,9.051,10.486,8.607,10
			C8.162,9.514,7.569,8.953,6.828,8.318c-0.085-0.074-0.18-0.162-0.285-0.262C6.437,7.955,6.32,7.848,6.193,7.73
			C5.992,7.635,5.754,7.527,5.479,7.405S4.885,7.139,4.525,6.969z"/>
		<path fill="#FFFFFF" d="M14.323,21.635l1.444-0.953c0.054-0.053,0.117-0.125,0.191-0.215s0.158-0.219,0.254-0.389
			c0.074-0.138,0.172-0.254,0.294-0.35s0.262-0.18,0.421-0.254c0.084-0.105,0.206-0.238,0.365-0.396
			c0.158-0.16,0.359-0.345,0.604-0.557c0.116-0.063,0.264-0.156,0.444-0.277c0.18-0.122,0.376-0.283,0.587-0.484
			c0.964-0.91,1.809-1.594,2.533-2.049s1.336-0.683,1.834-0.683c0.275,0,0.479,0.058,0.611,0.175
			c0.133,0.116,0.199,0.28,0.199,0.492c0,0.223-0.04,0.418-0.119,0.588c-0.08,0.169-0.205,0.313-0.373,0.428
			c-0.266,0.191-0.551,0.402-0.857,0.636c-0.17,0.222-0.377,0.458-0.62,0.706c-0.243,0.25-0.529,0.496-0.857,0.738
			c-0.106,0.139-0.196,0.26-0.271,0.365c-0.053,0.054-0.152,0.148-0.301,0.287c-0.148,0.137-0.344,0.296-0.588,0.476
			c-0.105,0.233-0.336,0.534-0.69,0.905s-0.829,0.815-1.421,1.334c-0.074,0.074-0.207,0.244-0.397,0.508
			c-0.19,0.266-0.439,0.614-0.747,1.049l0.111,0.143c0.233-0.074,0.477-0.201,0.73-0.381s0.535-0.418,0.842-0.715
			c0.359-0.328,0.654-0.596,0.882-0.803c0.228-0.205,0.389-0.341,0.483-0.404c0.074-0.042,0.148-0.084,0.223-0.127
			s0.159-0.096,0.254-0.158c0.487-0.583,0.942-1.014,1.366-1.295c0.423-0.28,0.815-0.421,1.175-0.421
			c0.223,0,0.392,0.087,0.508,0.263c0.117,0.174,0.186,0.436,0.207,0.785c-0.021,0.529-0.031,1.038-0.031,1.525
			c-0.012,0.338,0.082,0.643,0.277,0.912c0.195,0.271,0.453,0.405,0.77,0.405c0.096,0,0.188-0.026,0.278-0.079
			s0.183-0.122,0.278-0.207c0.074-0.095,0.145-0.185,0.215-0.27c0.068-0.084,0.14-0.17,0.214-0.254
			c0.042-0.021,0.103-0.059,0.183-0.111c0.079-0.053,0.156-0.117,0.23-0.19c0.148,0.317,0.271,0.595,0.373,0.833
			c0.1,0.238,0.177,0.447,0.23,0.628c-0.244,0.222-0.484,0.452-0.723,0.69s-0.49,0.463-0.754,0.675
			c-0.318,0.243-0.625,0.427-0.922,0.548c-0.297,0.122-0.593,0.183-0.889,0.183c-0.689,0-1.218-0.196-1.588-0.587
			c-0.371-0.393-0.588-0.984-0.651-1.779c0-0.095-0.014-0.193-0.04-0.293c-0.026-0.102-0.082-0.204-0.166-0.311
			c-0.054,0.054-0.111,0.109-0.176,0.167c-0.063,0.059-0.137,0.136-0.222,0.23c-0.138,0.106-0.31,0.238-0.517,0.397
			c-0.206,0.158-0.447,0.349-0.723,0.571c-0.37,0.381-0.682,0.693-0.937,0.937c-0.254,0.244-0.435,0.418-0.54,0.524
			c-0.211,0.181-0.457,0.36-0.738,0.54c-0.28,0.18-0.596,0.365-0.945,0.556c-0.222,0.116-0.412,0.209-0.57,0.278
			c-0.16,0.068-0.275,0.103-0.35,0.103c-0.509,0-0.885-0.124-1.128-0.373s-0.365-0.632-0.365-1.151c0-0.285,0.062-0.559,0.183-0.818
			c0.122-0.259,0.305-0.51,0.548-0.754c0.021-0.137,0.032-0.248,0.032-0.333c0-0.054-0.014-0.108-0.04-0.167
			s-0.062-0.125-0.104-0.198c-0.063-0.148-0.135-0.315-0.214-0.501c-0.08-0.185-0.167-0.383-0.262-0.595
			c0.042-0.042,0.103-0.124,0.182-0.247C14.125,21.965,14.217,21.814,14.323,21.635z"/>
		<path fill="#FFFFFF" d="M37.381,22.333c0.115,0.254,0.232,0.503,0.349,0.746s0.212,0.481,0.286,0.715
			c-0.127,0.073-0.23,0.167-0.31,0.278c-0.079,0.11-0.136,0.229-0.167,0.356c-0.285,0.36-0.561,0.826-0.826,1.397
			c-0.264,0.572-0.518,1.233-0.762,1.985c-0.19,0.614-0.373,1.22-0.548,1.817c-0.175,0.599-0.353,1.199-0.532,1.803
			c-0.031,0.201-0.084,0.441-0.158,0.723c-0.074,0.28-0.17,0.605-0.286,0.977c-0.095,0.307-0.233,0.68-0.413,1.119
			s-0.387,0.955-0.619,1.549c-0.085,0.223-0.22,0.392-0.404,0.508c-0.186,0.117-0.405,0.175-0.66,0.175
			c-0.201,0-0.349-0.026-0.443-0.079c-0.096-0.053-0.144-0.143-0.144-0.27c0.053-0.213,0.105-0.397,0.159-0.557
			c0.031-0.211,0.058-0.412,0.079-0.604c0.032-0.243,0.119-0.588,0.262-1.031c0.144-0.445,0.336-0.996,0.579-1.652l-0.11-0.604
			c0.2-0.582,0.397-1.232,0.587-1.953c0.191-0.72,0.382-1.498,0.572-2.334c0.243-1.037,0.426-1.924,0.548-2.66
			c0.122-0.735,0.183-1.31,0.183-1.723c0-0.074-0.019-0.129-0.056-0.167c-0.037-0.036-0.103-0.056-0.198-0.056
			c-0.424,0.286-0.837,0.582-1.238,0.89c-0.436,0.317-0.789,0.569-1.064,0.755c-0.275,0.185-0.492,0.309-0.651,0.373
			c-0.169,0.264-0.574,0.559-1.214,0.881c-0.641,0.322-1.131,0.484-1.47,0.484c-0.36,0-0.593-0.037-0.698-0.111
			c-0.106-0.074-0.238-0.28-0.397-0.619c-0.085-0.19-0.175-0.392-0.27-0.604c0-0.244,0.105-0.619,0.317-1.127
			c0.211-0.509,0.317-0.8,0.317-0.874l-0.127-0.127c-0.181,0.095-0.333,0.196-0.46,0.302c-0.148,0.127-0.303,0.249-0.461,0.365
			c-0.021,0.096-0.056,0.172-0.104,0.23c-0.047,0.059-0.104,0.119-0.166,0.183c-0.043-0.159-0.117-0.354-0.223-0.588
			c-0.105-0.232-0.244-0.524-0.413-0.873c0.063-0.106,0.148-0.23,0.255-0.374c0.105-0.143,0.243-0.304,0.412-0.484
			c0.254-0.18,0.566-0.381,0.938-0.603c0.37-0.223,0.814-0.461,1.334-0.715c0.063-0.138,0.227-0.317,0.492-0.54
			c0.264-0.223,0.64-0.471,1.127-0.746c0.529-0.297,0.938-0.543,1.223-0.738s0.461-0.347,0.523-0.453
			c1.928-1.048,3.171-1.572,3.732-1.572c0.223,0,0.437,0.088,0.643,0.263c0.207,0.175,0.395,0.427,0.564,0.754
			c0.01,0.096-0.029,0.178-0.119,0.247c-0.09,0.068-0.221,0.14-0.389,0.214c-0.191,0.085-0.408,0.19-0.652,0.317
			c-0.211,0.117-0.473,0.277-0.785,0.484s-0.691,0.447-1.136,0.723c-0.032,0.043-0.074,0.09-0.127,0.143
			c-0.054,0.053-0.116,0.111-0.19,0.175c-0.328,0.275-0.659,0.546-0.992,0.81c-0.334,0.266-0.654,0.54-0.961,0.826
			c-0.487,0.434-0.848,0.815-1.08,1.143c-0.232,0.329-0.35,0.6-0.35,0.811c0,0.127,0.019,0.22,0.057,0.277
			c0.036,0.059,0.086,0.088,0.15,0.088c0.19-0.116,0.484-0.277,0.881-0.484s1.193-0.781,2.391-1.723
			c0.55-0.413,1.029-0.744,1.437-0.992c0.407-0.249,0.755-0.41,1.04-0.484c0.212,0.116,0.408,0.227,0.588,0.333
			c0.169,0.106,0.296,0.254,0.381,0.444c0.084,0.191,0.127,0.435,0.127,0.73c0,0.074-0.011,0.164-0.031,0.27
			c-0.021,0.106-0.043,0.213-0.064,0.318C37.412,21.941,37.391,22.121,37.381,22.333z"/>
		<path fill="#FFFFFF" d="M37.364,22.333c0.042-0.032,0.077-0.069,0.104-0.111s0.04-0.095,0.04-0.159
			c0.18-0.148,0.383-0.352,0.611-0.611c0.227-0.259,0.484-0.563,0.77-0.912c0.232-0.318,0.474-0.636,0.723-0.953
			c0.248-0.318,0.516-0.636,0.802-0.953c0.233-0.317,0.464-0.648,0.69-0.992c0.229-0.344,0.469-0.68,0.723-1.009
			c0.424-0.2,0.752-0.344,0.984-0.429c0.233-0.084,0.393-0.127,0.477-0.127c0.159,0,0.281,0.051,0.365,0.15
			c0.085,0.102,0.127,0.246,0.127,0.438c0,0.063-0.016,0.153-0.047,0.27c-0.032,0.117-0.069,0.244-0.111,0.381
			c-0.074,0.213-0.159,0.43-0.254,0.651c-0.085,0.37-0.186,0.741-0.303,1.112c-0.115,0.37-0.227,0.735-0.333,1.096
			c-0.106,0.455-0.188,0.873-0.246,1.254s-0.087,0.73-0.087,1.048c0,0.593,0.029,1.032,0.087,1.318s0.14,0.413,0.246,0.381
			c0.106-0.063,0.238-0.14,0.397-0.23c0.158-0.089,0.344-0.192,0.556-0.31c0.19-0.201,0.405-0.449,0.644-0.746
			s0.525-0.646,0.865-1.049c0.19-0.295,0.386-0.587,0.588-0.873c0.073-0.084,0.16-0.185,0.262-0.301
			c0.1-0.117,0.192-0.233,0.277-0.35c0.201-0.508,0.426-0.887,0.675-1.136s0.526-0.373,0.834-0.373c0.274,0,0.495,0.034,0.659,0.103
			c0.164,0.069,0.277,0.173,0.342,0.311c0.031,0.074,0.058,0.201,0.078,0.381c0.021,0.18,0.032,0.418,0.032,0.715
			c0,0.116,0.024,0.285,0.071,0.508c0.048,0.223,0.072,0.387,0.072,0.492c0,0.393,0.068,0.686,0.206,0.881
			c0.138,0.197,0.349,0.295,0.636,0.295c0.084,0,0.185-0.017,0.301-0.049c0.117-0.031,0.232-0.068,0.35-0.11l0.635,1.461
			c-0.635,0.381-1.156,0.669-1.564,0.865c-0.406,0.196-0.711,0.294-0.912,0.294c-0.529,0-0.964-0.138-1.303-0.413
			c-0.338-0.274-0.588-0.683-0.746-1.223c-0.021-0.127-0.066-0.254-0.135-0.382c-0.068-0.127-0.156-0.254-0.262-0.381
			c-0.096,0.106-0.204,0.233-0.326,0.381c-0.121,0.148-0.252,0.297-0.389,0.445c-0.286,0.35-0.572,0.691-0.857,1.024
			c-0.286,0.333-0.577,0.664-0.873,0.992c-0.371,0.435-0.744,0.749-1.12,0.944c-0.376,0.197-0.728,0.295-1.056,0.295
			c-0.487,0-0.879-0.146-1.176-0.438c-0.296-0.291-0.486-0.723-0.571-1.294c-0.095-0.55-0.159-0.979-0.19-1.286
			s-0.037-0.492-0.016-0.556c-0.021-0.308-0.051-0.54-0.088-0.698c-0.037-0.16-0.093-0.238-0.166-0.238l-0.096,0.047l-0.905,0.938
			c-0.032,0.074-0.085,0.166-0.159,0.277S38.127,23.635,38,23.794c-0.043-0.159-0.117-0.354-0.223-0.588
			C37.672,22.974,37.533,22.682,37.364,22.333z"/>
		<path fill="#FFFFFF" d="M50.576,22.333c0.127-0.223,0.291-0.447,0.492-0.675c0.201-0.229,0.455-0.463,0.762-0.707
			c0.032-0.211,0.064-0.421,0.096-0.627c0.032-0.207,0.053-0.416,0.064-0.627c0.031-0.148,0.081-0.323,0.15-0.524
			c0.068-0.201,0.145-0.419,0.23-0.651c0.095-0.232,0.225-0.523,0.389-0.873s0.379-0.741,0.643-1.176
			c0.223-0.242,0.455-0.51,0.699-0.801c0.243-0.291,0.486-0.586,0.73-0.882c0.116-0.095,0.243-0.185,0.381-0.271
			c0.138-0.084,0.275-0.18,0.413-0.285c0.127-0.043,0.271-0.08,0.429-0.111s0.334-0.048,0.523-0.048
			c0.266,0,0.479,0.026,0.644,0.079c0.164,0.054,0.3,0.144,0.405,0.271c0.074,0.085,0.145,0.212,0.215,0.381
			c0.068,0.169,0.135,0.376,0.197,0.62c0.032,0.211,0.069,0.443,0.111,0.698c0-0.063-0.018-0.037-0.055,0.079
			c-0.037,0.117-0.094,0.302-0.167,0.556l-0.144,0.509c-0.148,0.508-0.481,1.096-1,1.762c-0.519,0.668-1.217,1.43-2.096,2.287
			c-0.074,0.074-0.139,0.167-0.191,0.277c-0.053,0.111-0.079,0.23-0.079,0.357c0,0.223,0.04,0.419,0.119,0.588
			c0.079,0.17,0.193,0.297,0.342,0.381c0.085,0.064,0.22,0.127,0.405,0.191c0.185,0.063,0.404,0.121,0.658,0.174
			c0.413-0.031,0.789-0.1,1.127-0.206c0.34-0.105,0.641-0.233,0.906-0.381c0.053-0.032,0.137-0.077,0.254-0.136
			c0.116-0.058,0.232-0.135,0.35-0.229c0.137,0.308,0.259,0.582,0.365,0.825c0.105,0.244,0.189,0.455,0.254,0.636
			c-0.604,0.593-1.151,1.04-1.645,1.342c-0.492,0.302-0.944,0.452-1.357,0.452c-0.169,0.105-0.362,0.183-0.579,0.23
			c-0.218,0.048-0.474,0.071-0.771,0.071c-0.392,0-0.738-0.058-1.04-0.175c-0.302-0.116-0.554-0.285-0.754-0.508
			c-0.106-0.105-0.212-0.262-0.317-0.469C52.63,24.532,52.52,24.286,52.402,24c-0.096-0.232-0.186-0.404-0.27-0.516
			c-0.085-0.111-0.181-0.167-0.286-0.167c-0.085,0-0.181,0.04-0.286,0.119s-0.223,0.198-0.35,0.357
			c-0.042-0.159-0.115-0.354-0.222-0.588C50.883,22.974,50.746,22.682,50.576,22.333z M55.658,17.172
			c-0.233,0-0.546,0.305-0.938,0.913s-0.588,1.056-0.588,1.342c0,0.063,0.014,0.108,0.04,0.136c0.026,0.025,0.082,0.039,0.167,0.039
			c0.116,0,0.211-0.061,0.285-0.183s0.144-0.235,0.207-0.341c0.116-0.106,0.23-0.221,0.342-0.342
			c0.111-0.122,0.219-0.241,0.325-0.357c0.127-0.148,0.222-0.297,0.286-0.445c0.063-0.147,0.095-0.296,0.095-0.444
			c0-0.095-0.019-0.172-0.056-0.229C55.787,17.201,55.731,17.172,55.658,17.172z"/>
		<path fill="#FFFFFF" d="M58.563,22.333l0.063-0.128c0.063-0.084,0.146-0.189,0.246-0.316c0.102-0.127,0.221-0.275,0.357-0.445
			c0.752-0.699,1.484-1.532,2.199-2.501s1.422-2.083,2.12-3.343c0.085-0.116,0.18-0.27,0.286-0.461
			c0.105-0.189,0.223-0.428,0.35-0.714c0-0.063-0.017-0.111-0.049-0.144c-0.031-0.031-0.084-0.047-0.158-0.047
			c-0.063,0-0.166,0.019-0.31,0.055c-0.144,0.038-0.251,0.057-0.325,0.057h-1.985c-0.085,0-0.226-0.006-0.421-0.016
			c-0.195-0.012-0.336-0.017-0.421-0.017c-0.106-0.053-0.204-0.098-0.294-0.135s-0.178-0.077-0.262-0.119
			c-0.127-0.042-0.225-0.098-0.294-0.167c-0.069-0.068-0.103-0.15-0.103-0.246c0-0.678,0.07-1.196,0.214-1.557
			c0.144-0.359,0.363-0.539,0.659-0.539c0.297,0,0.575,0.014,0.835,0.039c0.259,0.027,0.489,0.062,0.691,0.104
			c0.159-0.031,0.307-0.063,0.444-0.096c0.286,0,0.529,0.012,0.731,0.032c0.201,0.021,0.354,0.048,0.461,0.079
			c0.138-0.031,0.272-0.061,0.405-0.087s0.278-0.056,0.438-0.087l0.523,0.158c0.371-0.042,0.767-0.561,1.186-1.557
			c0.418-0.994,0.866-1.492,1.344-1.492c0.254,0,0.449,0.079,0.588,0.238c0.137,0.158,0.206,0.392,0.206,0.699
			c0,0.243-0.071,0.563-0.215,0.96s-0.226,0.696-0.247,0.897c0.021,0.043,0.05,0.088,0.086,0.135
			c0.037,0.048,0.092,0.104,0.164,0.167c0.063,0.042,0.107,0.114,0.133,0.214c0.025,0.102,0.039,0.226,0.039,0.373
			c0,0.636-0.029,1.125-0.087,1.469c-0.058,0.345-0.15,0.521-0.276,0.533l-1.077,0.222c-0.021,0.106-0.048,0.235-0.079,0.39
			c-0.032,0.152-0.074,0.33-0.127,0.531c-0.182,0.529-0.383,1.201-0.605,2.017s-0.473,1.778-0.748,2.89
			c-0.17,0.891-0.3,1.609-0.391,2.16c-0.09,0.551-0.135,0.922-0.135,1.111c0,0.17,0.026,0.297,0.08,0.381
			c0.053,0.086,0.132,0.128,0.238,0.128c0.063,0,0.293-0.153,0.69-0.461c0.397-0.307,0.95-0.763,1.659-1.365l0.619,1.461
			c-0.105,0.116-0.254,0.254-0.444,0.413c-0.19,0.158-0.419,0.328-0.683,0.508c-0.106,0.117-0.238,0.246-0.397,0.389
			s-0.333,0.311-0.524,0.5c-0.189,0.213-0.378,0.424-0.563,0.636c-0.186,0.212-0.374,0.419-0.564,0.619
			c-0.254,0.275-0.503,0.474-0.746,0.596c-0.244,0.122-0.471,0.183-0.684,0.183c-0.465,0-0.813-0.138-1.039-0.413
			c-0.229-0.274-0.342-0.693-0.342-1.255c0-0.613,0.021-1.146,0.063-1.596c0.042-0.449,0.111-0.813,0.206-1.088
			c0.043-0.084,0.074-0.158,0.096-0.222c0-0.106,0.016-0.249,0.048-0.429s0.069-0.392,0.112-0.635
			c0.063-0.414,0.131-0.826,0.206-1.239c0.116-0.254,0.238-0.524,0.365-0.81c0-0.053-0.042-0.102-0.127-0.143l-0.159,0.095
			c-0.158,0.254-0.365,0.521-0.619,0.802c-0.254,0.281-0.557,0.574-0.906,0.881c-0.539,0.52-1.09,1.043-1.65,1.572
			c-0.033,0.053-0.091,0.133-0.176,0.238c-0.084,0.105-0.18,0.238-0.285,0.397C59.146,23.666,59.08,23.506,59,23.31
			c-0.079-0.196-0.161-0.421-0.246-0.675c-0.021-0.064-0.047-0.122-0.079-0.175C58.643,22.406,58.605,22.365,58.563,22.333z"/>
		<path fill="#FFFFFF" d="M67.361,22.333c0.127-0.223,0.291-0.447,0.492-0.675c0.201-0.229,0.455-0.463,0.762-0.707
			c0.031-0.211,0.064-0.421,0.096-0.627c0.031-0.207,0.053-0.416,0.063-0.627c0.032-0.148,0.081-0.323,0.151-0.524
			c0.068-0.201,0.145-0.419,0.229-0.651c0.095-0.232,0.226-0.523,0.39-0.873s0.378-0.741,0.643-1.176
			c0.223-0.242,0.455-0.51,0.699-0.801c0.242-0.291,0.486-0.586,0.73-0.882c0.115-0.095,0.242-0.185,0.381-0.271
			c0.137-0.084,0.275-0.18,0.412-0.285c0.127-0.043,0.271-0.08,0.43-0.111c0.158-0.031,0.333-0.048,0.523-0.048
			c0.265,0,0.479,0.026,0.643,0.079c0.164,0.054,0.3,0.144,0.406,0.271c0.073,0.085,0.145,0.212,0.214,0.381s0.135,0.376,0.198,0.62
			c0.031,0.211,0.068,0.443,0.111,0.698c0-0.063-0.019-0.037-0.056,0.079c-0.037,0.117-0.093,0.302-0.167,0.556l-0.143,0.509
			c-0.148,0.508-0.482,1.096-1,1.762c-0.52,0.668-1.218,1.43-2.097,2.287c-0.074,0.074-0.138,0.167-0.19,0.277
			c-0.053,0.111-0.08,0.23-0.08,0.357c0,0.223,0.041,0.419,0.119,0.588c0.08,0.17,0.193,0.297,0.342,0.381
			c0.085,0.064,0.22,0.127,0.405,0.191c0.185,0.063,0.405,0.121,0.659,0.174c0.412-0.031,0.788-0.1,1.127-0.206
			c0.339-0.105,0.641-0.233,0.905-0.381c0.053-0.032,0.138-0.077,0.255-0.136c0.115-0.058,0.232-0.135,0.349-0.229
			c0.138,0.308,0.259,0.582,0.365,0.825c0.105,0.244,0.19,0.455,0.254,0.636c-0.603,0.593-1.151,1.04-1.644,1.342
			s-0.945,0.452-1.357,0.452c-0.17,0.105-0.363,0.183-0.58,0.23s-0.474,0.071-0.77,0.071c-0.393,0-0.738-0.058-1.041-0.175
			c-0.301-0.116-0.553-0.285-0.754-0.508c-0.105-0.105-0.211-0.262-0.317-0.469c-0.106-0.206-0.217-0.452-0.333-0.738
			c-0.096-0.232-0.186-0.404-0.271-0.516s-0.181-0.167-0.286-0.167c-0.084,0-0.18,0.04-0.285,0.119s-0.223,0.198-0.35,0.357
			c-0.043-0.159-0.116-0.354-0.223-0.588C67.668,22.974,67.53,22.682,67.361,22.333z M72.442,17.172
			c-0.233,0-0.546,0.305-0.937,0.913c-0.393,0.608-0.588,1.056-0.588,1.342c0,0.063,0.014,0.108,0.039,0.136
			c0.027,0.025,0.082,0.039,0.168,0.039c0.115,0,0.211-0.061,0.285-0.183s0.143-0.235,0.207-0.341
			c0.115-0.106,0.23-0.221,0.341-0.342c0.111-0.122,0.22-0.241,0.325-0.357c0.127-0.148,0.223-0.297,0.286-0.445
			c0.063-0.147,0.095-0.296,0.095-0.444c0-0.095-0.018-0.172-0.055-0.229C72.572,17.201,72.516,17.172,72.442,17.172z"/>
		<path fill="#FFFFFF" d="M75.348,22.333l0.096-0.111c0.043-0.147,0.135-0.308,0.277-0.477c0.144-0.169,0.348-0.339,0.612-0.508
			c0.349-0.223,0.622-0.402,0.817-0.54s0.314-0.238,0.357-0.302c0.096-0.116,0.158-0.206,0.19-0.271
			c0.116-0.084,0.259-0.201,0.429-0.349c0.17-0.148,0.359-0.328,0.572-0.54c0.074-0.053,0.152-0.138,0.238-0.254
			c0.084-0.117,0.169-0.249,0.254-0.397c0.137-0.095,0.293-0.217,0.469-0.365c0.174-0.147,0.378-0.339,0.611-0.571
			c0.264-0.286,0.563-0.602,0.896-0.945s0.707-0.701,1.119-1.072c0.139-0.063,0.268-0.113,0.39-0.15s0.241-0.055,0.357-0.055
			c0.476,0,0.833,0.113,1.071,0.341s0.357,0.554,0.357,0.977c0,0.106-0.019,0.28-0.055,0.524c-0.038,0.243-0.078,0.551-0.119,0.92
			c-0.148,1.07-0.255,1.721-0.318,1.954s-0.285,0.964-0.667,2.191c-0.085,0.201-0.172,0.45-0.262,0.746
			c-0.091,0.296-0.198,0.657-0.325,1.08c0.021,0.042,0.074,0.085,0.158,0.127c0.074,0,0.207-0.071,0.396-0.214
			c0.191-0.144,0.445-0.357,0.763-0.644c0.37-0.339,0.661-0.599,0.874-0.778c0.211-0.18,0.344-0.285,0.396-0.317
			c0.127,0.286,0.244,0.548,0.35,0.786s0.195,0.463,0.27,0.675c-0.138,0.085-0.262,0.18-0.373,0.286
			c-0.111,0.105-0.215,0.222-0.31,0.349c-0.222,0.148-0.479,0.317-0.771,0.509c-0.291,0.189-0.611,0.396-0.961,0.619
			c-0.158,0.158-0.373,0.352-0.643,0.579s-0.574,0.484-0.913,0.771l-0.302,0.063c-0.148,0.2-0.289,0.354-0.421,0.46
			s-0.251,0.18-0.356,0.223c-0.17,0.063-0.34,0.125-0.509,0.183s-0.349,0.119-0.54,0.183c-0.117-0.031-0.201-0.101-0.254-0.206
			c-0.053-0.106-0.074-0.243-0.063-0.413c-0.159-0.285-0.286-0.613-0.382-0.984c-0.095-0.371-0.143-0.783-0.143-1.238
			c0-0.085,0.006-0.176,0.016-0.271c0.011-0.095,0.021-0.18,0.032-0.254c-0.074-0.275-0.11-0.439-0.11-0.492
			c0-0.317,0.121-0.58,0.365-0.786c0.242-0.207,0.518-0.31,0.825-0.31c0.159,0,0.272,0.082,0.341,0.246
			c0.069,0.164,0.141,0.246,0.215,0.246s0.15-0.146,0.23-0.437c0.079-0.291,0.156-0.717,0.23-1.279
			c0.073-0.486,0.121-0.91,0.143-1.27s0.031-0.635,0.031-0.826c0-0.137-0.029-0.24-0.087-0.31c-0.059-0.068-0.156-0.103-0.294-0.103
			s-0.582,0.316-1.334,0.952s-1.8,1.583-3.145,2.843c-0.042,0.074-0.103,0.164-0.182,0.27c-0.08,0.105-0.172,0.238-0.278,0.397
			c-0.042-0.159-0.116-0.354-0.222-0.588C75.655,22.974,75.518,22.682,75.348,22.333z"/>
	</g>
</g>
</svg>
