<?xml version="1.0" encoding="utf-8"?>
<!-- Generator: Adobe Illustrator 16.0.0, SVG Export Plug-In . SVG Version: 6.00 Build 0)  -->
<!DOCTYPE svg PUBLIC "-//W3C//DTD SVG 1.1//EN" "http://www.w3.org/Graphics/SVG/1.1/DTD/svg11.dtd">
<svg version="1.1" id="Layer_1" xmlns="http://www.w3.org/2000/svg" xmlns:xlink="http://www.w3.org/1999/xlink" x="0px" y="0px"
	 width="88.037px" height="24.256px" viewBox="0 0 88.037 24.256" enable-background="new 0 0 88.037 24.256" xml:space="preserve">
<g>
	<g>
		<path fill="#003051" d="M10.592,18.286l0.635,1.461c-0.148,0.116-0.474,0.217-0.977,0.301c-0.503,0.084-1.157,0.159-1.961,0.222
			c-0.932,0.908-1.86,1.664-2.787,2.266c-0.927,0.602-1.845,1.046-2.755,1.332C2.535,23.931,2.292,24,2.017,24.074
			c-0.169,0-0.354-0.034-0.556-0.103s-0.423-0.167-0.667-0.294c-0.254-0.159-0.45-0.313-0.587-0.46C0.069,23.068,0,22.915,0,22.756
			c0-0.318,0.153-0.625,0.46-0.921s0.757-0.577,1.35-0.842c1.185-0.55,2.355-1.106,3.509-1.667c0.169,0,0.291,0.035,0.365,0.104
			c0.074,0.069,0.111,0.156,0.111,0.262c0,0.286-0.204,0.527-0.611,0.723s-0.611,0.336-0.611,0.421
			c0.074,0.106,0.138,0.159,0.191,0.159c0.137,0,0.442-0.207,0.913-0.619c0.471-0.413,0.701-0.672,0.69-0.778L6.289,19.23
			l0.032-0.063c0.275-0.244,0.479-0.46,0.611-0.651c0.132-0.191,0.198-0.344,0.198-0.461c0-0.264-0.132-0.619-0.397-1.063
			c-0.265-0.445-0.662-0.979-1.191-1.604c-0.402-0.487-0.805-0.924-1.207-1.31s-0.789-0.728-1.159-1.024
			C3.028,12.926,2.9,12.802,2.795,12.68c-0.106-0.122-0.19-0.235-0.254-0.341c-0.117-0.212-0.209-0.387-0.278-0.524
			c-0.069-0.137-0.129-0.228-0.183-0.27c-0.053-0.064-0.125-0.141-0.214-0.23s-0.198-0.193-0.325-0.31
			c-0.223-0.233-0.395-0.556-0.516-0.969C0.902,9.623,0.842,9.11,0.842,8.496c0-0.402,0.056-0.791,0.167-1.167
			C1.12,6.953,1.281,6.617,1.493,6.32c0.032-0.063,0.063-0.138,0.095-0.222c0.032-0.085,0.069-0.18,0.111-0.286
			C1.942,5.314,2.355,4.777,2.938,4.2C3.52,3.624,4.282,3.012,5.225,2.366c0.127-0.063,0.28-0.148,0.46-0.254
			c0.18-0.106,0.381-0.244,0.604-0.413c0.127-0.105,0.267-0.201,0.42-0.286S7.045,1.25,7.257,1.175
			c0.286-0.116,0.609-0.244,0.969-0.381c0.529-0.275,0.969-0.476,1.318-0.603C9.893,0.063,10.158,0,10.338,0
			c0.349,0,0.611,0.106,0.786,0.318c0.175,0.212,0.262,0.519,0.262,0.921c0,0.445-0.035,0.808-0.103,1.088
			c-0.069,0.28-0.162,0.468-0.278,0.563C9.755,3.885,8.75,4.635,7.987,5.137C7.225,5.64,6.69,5.892,6.384,5.892
			c-0.148,0-0.265-0.042-0.35-0.127C5.949,5.68,5.907,5.553,5.907,5.383c0-0.286,0.238-0.601,0.715-0.945
			C7.098,4.095,7.331,3.833,7.32,3.652L7.178,3.557c-0.053,0-0.114,0.016-0.183,0.048S6.854,3.679,6.781,3.732
			C5.849,4.484,5.147,5.159,4.677,5.756C4.206,6.355,3.97,6.876,3.97,7.321c0,0.349,0.061,0.704,0.183,1.064s0.299,0.73,0.532,1.111
			c0.169,0.265,0.416,0.601,0.738,1.008c0.323,0.408,0.733,0.897,1.231,1.469c0.688,0.794,1.217,1.408,1.588,1.842
			c0.37,0.434,0.577,0.662,0.619,0.683c0.211,0.275,0.392,0.55,0.54,0.826c0.148,0.275,0.249,0.54,0.302,0.794
			c0.053,0.201,0.09,0.45,0.111,0.746c0.021,0.297,0.032,0.657,0.032,1.08c0,0.249,0.037,0.392,0.111,0.429
			c0.074,0.037,0.196,0.056,0.365,0.056c0.063,0,0.114-0.013,0.151-0.04C10.51,18.363,10.549,18.328,10.592,18.286z"/>
		<path fill="#003051" d="M10.576,18.302c0.074-0.074,0.151-0.172,0.23-0.294c0.079-0.122,0.172-0.257,0.278-0.405l1.223-0.842
			c0.148-0.18,0.375-0.41,0.683-0.691c0.307-0.28,0.688-0.622,1.144-1.024c0.053-0.117,0.14-0.251,0.262-0.405
			c0.122-0.153,0.267-0.304,0.437-0.453c0.148-0.137,0.296-0.267,0.445-0.389c0.148-0.122,0.286-0.241,0.413-0.357
			c0.159-0.159,0.31-0.318,0.453-0.477s0.288-0.312,0.437-0.46c0.169-0.148,0.344-0.265,0.524-0.349
			c0.18-0.085,0.375-0.127,0.587-0.127c0.232,0,0.41,0.029,0.532,0.087c0.122,0.059,0.188,0.141,0.199,0.246
			c-0.106,0.244-0.217,0.487-0.333,0.73l0.095,0.143c0.466-0.18,0.831-0.312,1.096-0.397c0.265-0.084,0.434-0.127,0.508-0.127
			c0.772,0,1.352,0.236,1.739,0.707c0.386,0.471,0.58,1.183,0.58,2.136c0,0.18-0.021,0.392-0.063,0.635
			c-0.042,0.244-0.111,0.508-0.207,0.794c-0.106,0.318-0.22,0.583-0.341,0.794c-0.122,0.212-0.236,0.365-0.342,0.46
			c0.042,0.138,0.09,0.236,0.143,0.294c0.053,0.059,0.122,0.087,0.207,0.087c0.084,0,0.172-0.026,0.262-0.08
			c0.089-0.053,0.198-0.132,0.325-0.238c0.106,0.233,0.209,0.474,0.31,0.722c0.101,0.249,0.204,0.495,0.31,0.739
			c-0.191,0.169-0.376,0.333-0.556,0.492c-0.18,0.159-0.371,0.312-0.571,0.46c-0.244,0.201-0.474,0.347-0.691,0.437
			c-0.217,0.09-0.432,0.135-0.643,0.135c-0.244,0-0.445-0.058-0.604-0.175c-0.159-0.116-0.286-0.28-0.381-0.492
			c-0.265,0.349-0.585,0.669-0.96,0.96c-0.376,0.292-0.792,0.532-1.247,0.723c-0.265,0.127-0.506,0.225-0.723,0.294
			S15.917,22.7,15.737,22.7c-0.053,0-0.156,0.021-0.31,0.063c-0.154,0.042-0.278,0.063-0.374,0.063
			c-0.604,0-1.148-0.254-1.635-0.762c-0.487-0.508-0.73-1.074-0.73-1.699c0-0.254,0.058-0.59,0.174-1.008
			c0.117-0.418,0.175-0.664,0.175-0.738c0-0.074-0.024-0.135-0.071-0.183c-0.048-0.048-0.114-0.071-0.199-0.071
			c-0.053,0-0.18,0.079-0.381,0.238c-0.201,0.159-0.487,0.387-0.857,0.683c-0.032,0.042-0.069,0.106-0.111,0.19
			c-0.042,0.085-0.111,0.18-0.207,0.286c-0.084-0.244-0.18-0.49-0.286-0.739C10.819,18.775,10.703,18.535,10.576,18.302z
			 M18.214,15.396c-0.053,0.011-0.13,0.066-0.23,0.167s-0.198,0.225-0.293,0.373c-0.148,0.244-0.318,0.508-0.508,0.794
			c-0.117,0.127-0.241,0.225-0.373,0.294s-0.283,0.119-0.453,0.151c-0.106,0.01-0.217,0.114-0.333,0.31
			c-0.117,0.196-0.233,0.479-0.349,0.85c-0.117,0.328-0.202,0.609-0.254,0.841c-0.053,0.233-0.079,0.429-0.079,0.588
			c0,0.296,0.074,0.519,0.222,0.667c0.148,0.148,0.375,0.223,0.683,0.223c0.487,0,0.935-0.135,1.342-0.405
			c0.408-0.27,0.792-0.675,1.151-1.214c0.169-0.201,0.328-0.392,0.477-0.572c0.084-0.063,0.153-0.167,0.207-0.31
			c0.053-0.143,0.105-0.32,0.159-0.532l0.286-0.905c-0.095-0.317-0.185-0.569-0.27-0.754c-0.084-0.185-0.169-0.299-0.254-0.342
			c-0.053-0.032-0.169-0.066-0.349-0.103C18.812,15.478,18.553,15.438,18.214,15.396z"/>
		<path fill="#003051" d="M22.057,18.302c0.127-0.148,0.281-0.328,0.46-0.54c0.18-0.212,0.408-0.466,0.683-0.762
			c0.105-0.296,0.204-0.665,0.293-1.104c0.09-0.439,0.167-0.956,0.23-1.548c0.074-0.604,0.156-1.13,0.246-1.58
			s0.172-0.813,0.246-1.088c0.477-1.493,0.847-2.649,1.112-3.47c0.264-0.82,0.418-1.305,0.46-1.453
			c0.349-0.963,0.717-1.823,1.104-2.58c0.386-0.757,0.775-1.416,1.167-1.977c0.095-0.106,0.196-0.22,0.302-0.342
			c0.106-0.122,0.228-0.251,0.365-0.389c0.392-0.18,0.757-0.355,1.096-0.524c0.19-0.084,0.384-0.153,0.58-0.206
			c0.196-0.053,0.389-0.08,0.58-0.08c0.296,0,0.524,0.141,0.683,0.421c0.159,0.281,0.238,0.701,0.238,1.262
			c0,0.35-0.047,0.739-0.143,1.167s-0.228,0.897-0.397,1.405c-0.254,0.72-0.45,1.294-0.588,1.723s-0.222,0.696-0.254,0.802
			c-0.042,0.222-0.143,0.503-0.302,0.841c-0.159,0.339-0.371,0.752-0.635,1.239c-0.328,0.625-0.585,1.106-0.77,1.445
			c-0.186,0.339-0.294,0.54-0.326,0.603c-0.074,0.074-0.151,0.151-0.23,0.23c-0.08,0.08-0.162,0.162-0.246,0.246v0.365
			c-0.053,0.127-0.106,0.217-0.159,0.27c-0.18,0.349-0.421,0.784-0.723,1.302s-0.675,1.111-1.12,1.778
			c-0.254,0.35-0.445,0.657-0.572,0.921c-0.127,0.265-0.19,0.493-0.19,0.683v1.397c0.053,0.275,0.111,0.548,0.175,0.818
			c0.063,0.27,0.127,0.532,0.19,0.786c0.053,0.339,0.153,0.596,0.302,0.771c0.148,0.174,0.317,0.262,0.508,0.262
			c0.423,0,0.775-0.103,1.056-0.31s0.49-0.521,0.627-0.945c-0.286-0.116-0.506-0.251-0.659-0.405s-0.23-0.315-0.23-0.484
			c0.053-0.106,0.098-0.222,0.135-0.35c0.037-0.127,0.077-0.259,0.119-0.397c0.01-0.074,0.029-0.148,0.056-0.222
			c0.026-0.074,0.045-0.169,0.056-0.286c0.487-0.89,0.931-1.559,1.333-2.009c0.402-0.45,0.762-0.675,1.08-0.675
			c0.074,0,0.196,0.014,0.365,0.04c0.169,0.026,0.296,0.04,0.381,0.04c0.063,0,0.164-0.019,0.302-0.056
			c0.138-0.037,0.238-0.056,0.302-0.056c0.18,0,0.307,0.061,0.381,0.183c0.074,0.122,0.111,0.289,0.111,0.5
			c0,0.455-0.132,0.947-0.397,1.477c-0.265,0.53-0.397,0.832-0.397,0.905c0,0.063,0.042,0.132,0.127,0.207
			c0.064-0.021,0.13-0.053,0.199-0.095s0.135-0.095,0.199-0.159c0.042,0.138,0.108,0.296,0.198,0.476
			c0.09,0.18,0.188,0.387,0.294,0.62c0.053,0.074,0.09,0.14,0.111,0.198c0.021,0.058,0.032,0.114,0.032,0.167
			c-0.444,0.455-0.836,0.804-1.175,1.048c-0.339,0.244-0.625,0.376-0.857,0.397c-0.074,0-0.165-0.002-0.27-0.008
			c-0.106-0.005-0.233-0.013-0.381-0.024c-0.148,0.18-0.325,0.387-0.532,0.619c-0.207,0.233-0.437,0.508-0.691,0.826
			c-0.106,0.074-0.238,0.172-0.397,0.294s-0.339,0.272-0.54,0.453c-0.307,0.307-0.611,0.532-0.913,0.675s-0.606,0.214-0.913,0.214
			c-0.138,0-0.272-0.019-0.405-0.056s-0.283-0.108-0.453-0.214c-0.127-0.063-0.262-0.151-0.405-0.262
			c-0.143-0.111-0.299-0.241-0.468-0.389c-0.212-0.646-0.365-1.244-0.461-1.794c-0.095-0.55-0.143-1.074-0.143-1.572
			c0-0.084-0.008-0.156-0.024-0.214c-0.016-0.058-0.04-0.108-0.071-0.151l-0.143-0.047l-0.111,0.047l-0.159,0.159
			c-0.084-0.233-0.18-0.471-0.286-0.715C22.3,18.805,22.184,18.556,22.057,18.302z M29.409,5.391c0-0.053-0.008-0.098-0.024-0.135
			c-0.016-0.037-0.045-0.071-0.087-0.103c-0.063-0.011-0.138,0.061-0.222,0.214c-0.085,0.153-0.165,0.373-0.238,0.659
			c-0.042,0.212-0.138,0.46-0.286,0.747c-0.148,0.286-0.339,0.625-0.571,1.016c-0.201,0.339-0.397,0.717-0.588,1.135
			c-0.19,0.418-0.381,0.871-0.571,1.358c-0.244,0.572-0.424,1.075-0.54,1.509c-0.117,0.434-0.175,0.783-0.175,1.048l0.032,0.143
			c0.084-0.042,0.225-0.249,0.421-0.62c0.196-0.37,0.453-0.905,0.77-1.604c0.296-0.614,0.516-1.096,0.659-1.445
			c0.143-0.349,0.23-0.582,0.262-0.699c0.084-0.286,0.185-0.619,0.301-1c0.117-0.381,0.249-0.804,0.397-1.27
			c0.106-0.18,0.196-0.333,0.27-0.46c0.063-0.085,0.111-0.169,0.143-0.254C29.393,5.545,29.409,5.465,29.409,5.391z"/>
		<path fill="#003051" d="M31.553,18.302c0.169-0.223,0.339-0.455,0.508-0.699c0.772-0.635,1.405-1.247,1.897-1.834
			c0.492-0.587,0.85-1.135,1.072-1.644l-0.159-0.762c0.138-0.264,0.479-0.577,1.024-0.937c0.545-0.36,0.987-0.54,1.326-0.54
			c0.36,0,0.665,0.106,0.913,0.317c0.249,0.212,0.49,0.434,0.723,0.667c0.116,0.074,0.201,0.132,0.254,0.175
			c0.423,0.317,0.741,0.757,0.953,1.318c0.211,0.562,0.317,1.244,0.317,2.048c0,0.424-0.164,1.03-0.492,1.818
			c-0.328,0.789-0.492,1.384-0.492,1.787c0,0.053,0.018,0.095,0.056,0.127c0.037,0.032,0.087,0.048,0.151,0.048
			c0.137,0,0.301-0.061,0.492-0.183c0.19-0.122,0.397-0.289,0.619-0.5c0.561-0.55,0.9-0.854,1.016-0.913
			c0.117-0.058,0.259-0.156,0.429-0.293c0.085,0.212,0.186,0.439,0.302,0.683c0.117,0.244,0.228,0.503,0.333,0.778
			c-0.095,0.084-0.204,0.185-0.325,0.301c-0.122,0.117-0.268,0.249-0.437,0.397c-0.36,0.265-0.828,0.585-1.405,0.961
			c-0.577,0.376-1.268,0.808-2.072,1.294c-0.212,0.138-0.455,0.249-0.73,0.333c-0.444,0-0.778-0.066-1-0.199
			c-0.222-0.132-0.333-0.347-0.333-0.643c0-0.116,0.024-0.251,0.072-0.405c0.047-0.153,0.113-0.32,0.198-0.5
			c0.063-0.137,0.132-0.278,0.207-0.421c0.074-0.143,0.138-0.288,0.19-0.437c0.233-0.667,0.41-1.286,0.532-1.858
			c0.122-0.572,0.183-1.085,0.183-1.541c0-0.561-0.087-0.99-0.262-1.286s-0.437-0.466-0.786-0.508
			c-0.233,0.127-0.487,0.307-0.762,0.54s-0.556,0.524-0.841,0.874c-0.307,0.381-0.583,0.693-0.826,0.937
			c-0.244,0.244-0.445,0.407-0.604,0.492c-0.095,0.159-0.249,0.339-0.46,0.54c-0.212,0.202-0.493,0.418-0.842,0.651
			c-0.021,0.042-0.053,0.106-0.095,0.19c-0.042,0.085-0.111,0.18-0.207,0.286c-0.084-0.244-0.18-0.484-0.286-0.723
			S31.68,18.556,31.553,18.302z"/>
		<path fill="#003051" d="M42.144,18.302c0.127-0.223,0.292-0.447,0.492-0.675c0.201-0.228,0.455-0.463,0.762-0.707
			c0.032-0.211,0.064-0.421,0.096-0.627c0.032-0.207,0.053-0.416,0.063-0.627c0.032-0.148,0.082-0.323,0.151-0.524
			c0.068-0.201,0.145-0.418,0.23-0.651c0.095-0.232,0.225-0.524,0.389-0.873c0.164-0.35,0.378-0.741,0.643-1.175
			c0.222-0.243,0.455-0.511,0.699-0.802c0.243-0.291,0.487-0.585,0.73-0.881c0.116-0.095,0.243-0.185,0.381-0.27
			c0.138-0.084,0.275-0.18,0.413-0.286c0.127-0.042,0.27-0.079,0.429-0.111s0.333-0.048,0.524-0.048c0.265,0,0.479,0.027,0.643,0.08
			c0.164,0.053,0.299,0.143,0.405,0.27c0.074,0.085,0.145,0.212,0.214,0.381c0.069,0.169,0.135,0.376,0.198,0.62
			c0.032,0.212,0.069,0.444,0.111,0.699c0-0.064-0.019-0.037-0.056,0.079c-0.037,0.117-0.093,0.302-0.167,0.556l-0.143,0.508
			c-0.148,0.508-0.482,1.096-1,1.763s-1.217,1.429-2.096,2.287c-0.074,0.074-0.138,0.167-0.19,0.278
			c-0.053,0.111-0.08,0.23-0.08,0.357c0,0.222,0.04,0.418,0.119,0.587c0.08,0.169,0.193,0.297,0.342,0.381
			c0.084,0.063,0.219,0.127,0.405,0.19c0.185,0.063,0.405,0.122,0.659,0.175c0.413-0.032,0.789-0.101,1.127-0.207
			c0.339-0.105,0.641-0.233,0.905-0.381c0.053-0.032,0.138-0.077,0.254-0.135c0.116-0.058,0.232-0.135,0.349-0.23
			c0.138,0.307,0.259,0.582,0.365,0.826c0.105,0.244,0.19,0.455,0.254,0.635c-0.603,0.593-1.151,1.04-1.644,1.342
			c-0.492,0.302-0.945,0.452-1.357,0.452c-0.169,0.106-0.363,0.183-0.58,0.23c-0.217,0.048-0.474,0.071-0.771,0.071
			c-0.392,0-0.738-0.058-1.04-0.174c-0.302-0.117-0.553-0.286-0.754-0.508c-0.106-0.106-0.212-0.262-0.318-0.468
			c-0.106-0.207-0.217-0.453-0.333-0.739c-0.095-0.232-0.185-0.405-0.27-0.516c-0.084-0.111-0.18-0.167-0.286-0.167
			c-0.085,0-0.18,0.04-0.286,0.119c-0.106,0.079-0.223,0.198-0.35,0.357c-0.042-0.159-0.116-0.355-0.222-0.588
			C42.451,18.942,42.313,18.651,42.144,18.302z M47.226,13.141c-0.233,0-0.545,0.304-0.937,0.913s-0.587,1.056-0.587,1.342
			c0,0.063,0.013,0.109,0.04,0.135s0.082,0.04,0.167,0.04c0.116,0,0.211-0.061,0.286-0.183s0.143-0.235,0.207-0.341
			c0.116-0.106,0.23-0.22,0.341-0.342c0.111-0.122,0.22-0.241,0.326-0.357c0.127-0.148,0.222-0.296,0.286-0.445
			c0.063-0.148,0.095-0.296,0.095-0.445c0-0.095-0.019-0.172-0.055-0.23C47.355,13.17,47.299,13.141,47.226,13.141z"/>
		<path fill="#003051" d="M58.262,18.302c0.064-0.074,0.138-0.172,0.223-0.294c0.085-0.122,0.18-0.257,0.286-0.405
			c0.466-0.583,0.919-1.104,1.359-1.564s0.856-0.871,1.249-1.23c0.201-0.19,0.445-0.437,0.731-0.738
			c0.286-0.302,0.62-0.648,1.001-1.041c0.381-0.148,0.8-0.317,1.256-0.508c0.286,0,0.498,0.093,0.635,0.278
			c0.137,0.185,0.206,0.453,0.206,0.802c0,0.296-0.023,0.617-0.071,0.961c-0.048,0.344-0.114,0.696-0.199,1.056
			c-0.095,0.286-0.174,0.562-0.238,0.826c0,0.074,0.016,0.129,0.047,0.167s0.084,0.056,0.159,0.056
			c0.159-0.074,0.466-0.339,0.921-0.794c0.455-0.455,1.053-1.09,1.794-1.906c0.635-0.699,1.191-1.22,1.667-1.564
			c0.477-0.344,0.857-0.516,1.144-0.516c0.307,0,0.531,0.114,0.674,0.341c0.143,0.228,0.214,0.564,0.214,1.008
			c0,0.646-0.048,1.268-0.143,1.866c-0.095,0.599-0.259,1.173-0.492,1.723c-0.042,0.106-0.069,0.196-0.08,0.27
			c-0.011,0.074-0.016,0.143-0.016,0.207c0,0.074,0.063,0.143,0.19,0.206c0.084-0.074,0.182-0.18,0.293-0.317
			c0.111-0.137,0.241-0.312,0.389-0.524c0.243-0.201,0.486-0.402,0.729-0.604s0.507-0.407,0.793-0.619
			c0.296-0.233,0.597-0.41,0.904-0.532c0.307-0.122,0.608-0.183,0.904-0.183c0.053,0,0.106,0.016,0.159,0.048
			s0.105,0.069,0.159,0.111c0.243,0.212,0.444,0.405,0.603,0.58c0.158,0.175,0.27,0.326,0.333,0.453
			c0.412,0.847,0.78,1.479,1.103,1.898c0.323,0.418,0.605,0.627,0.849,0.627c0.053,0,0.105-0.013,0.158-0.04
			c0.053-0.026,0.106-0.061,0.159-0.103c0.243,0.519,0.45,1.006,0.619,1.461c-0.381,0.296-0.719,0.521-1.016,0.675
			s-0.556,0.23-0.777,0.23c-0.73,0-1.484-0.474-2.262-1.421c-0.777-0.948-1.373-1.421-1.785-1.421c-0.55,0-1.465,0.813-2.745,2.438
			c-1.28,1.625-2.079,2.438-2.396,2.438c-0.159,0-0.371-0.016-0.635-0.048c-0.085-0.032-0.148-0.098-0.191-0.198
			c-0.042-0.101-0.063-0.22-0.063-0.357c0-0.159,0.032-0.368,0.095-0.627c0.064-0.259,0.148-0.564,0.254-0.913
			c0.137-0.445,0.249-0.799,0.333-1.064c0.084-0.265,0.132-0.45,0.143-0.556c0.032-0.137,0.077-0.407,0.135-0.81
			c0.058-0.402,0.135-0.937,0.23-1.604c0-0.116-0.032-0.207-0.095-0.27s-0.138-0.095-0.222-0.095c-0.074,0-0.156,0.024-0.246,0.071
			c-0.09,0.048-0.193,0.125-0.31,0.23c-0.127,0.138-0.268,0.275-0.421,0.413c-0.154,0.138-0.4,0.333-0.738,0.587
			c-0.371,0.423-0.749,0.855-1.136,1.294c-0.386,0.439-0.781,0.881-1.183,1.326c-0.635,0.741-1.141,1.289-1.517,1.644
			c-0.376,0.355-0.617,0.532-0.723,0.532c-0.318,0-0.56-0.037-0.725-0.111s-0.247-0.185-0.247-0.333c0-0.35,0.188-1.077,0.565-2.184
			c0.376-1.106,0.565-1.887,0.565-2.342c0-0.074-0.024-0.135-0.071-0.183c-0.048-0.047-0.109-0.071-0.183-0.071
			c-0.127,0-0.278,0.071-0.454,0.214s-0.375,0.368-0.597,0.675c-0.149,0.169-0.329,0.365-0.542,0.587
			c-0.212,0.223-0.473,0.482-0.78,0.778c-0.032,0.085-0.074,0.167-0.127,0.246s-0.112,0.156-0.175,0.23
			c-0.042-0.159-0.116-0.355-0.222-0.588C58.569,18.942,58.432,18.651,58.262,18.302z"/>
		<path fill="#003051" d="M78.302,18.302l0.095-0.111l0.048-0.159c0.286-0.392,0.789-0.902,1.508-1.533
			c0.72-0.629,1.217-1.141,1.493-1.532c0.106-0.169,0.228-0.291,0.365-0.365c0.138-0.074,0.275-0.111,0.413-0.111
			c0.371,0,0.683,0.093,0.937,0.278c0.254,0.186,0.423,0.463,0.508,0.834c0.074,0.328,0.143,0.659,0.207,0.992
			c0.063,0.333,0.117,0.67,0.159,1.009c0.074,0.212,0.164,0.532,0.27,0.96s0.185,0.675,0.238,0.738
			c0.053,0.106,0.132,0.183,0.238,0.23c0.105,0.048,0.238,0.071,0.397,0.071c0.19,0,0.386-0.034,0.587-0.103s0.408-0.188,0.62-0.357
			c0.159-0.137,0.325-0.278,0.5-0.421c0.175-0.143,0.347-0.283,0.516-0.42l0.635,1.461c-0.169,0.169-0.395,0.362-0.675,0.58
			c-0.281,0.217-0.617,0.468-1.008,0.754c-0.435,0.318-0.805,0.554-1.112,0.707s-0.54,0.23-0.699,0.23
			c-0.963,0-1.588-0.111-1.874-0.333c-0.286-0.222-0.604-0.841-0.953-1.858c-0.042-0.084-0.106-0.185-0.19-0.302
			c-0.085-0.116-0.18-0.254-0.286-0.413c-0.127-0.244-0.238-0.426-0.333-0.548s-0.175-0.183-0.238-0.183
			c-0.169,0-0.397,0.114-0.683,0.341c-0.286,0.228-0.635,0.569-1.048,1.024c-0.053-0.138-0.119-0.302-0.198-0.493
			c-0.08-0.19-0.162-0.413-0.247-0.667c-0.021-0.063-0.047-0.122-0.079-0.174C78.382,18.375,78.345,18.333,78.302,18.302z
			 M84.94,5.772c0.265,0,0.458,0.053,0.58,0.159c0.122,0.106,0.183,0.26,0.183,0.46c-0.063,0.297-0.117,0.545-0.159,0.747
			c-0.106,0.381-0.199,0.693-0.278,0.937c-0.08,0.244-0.141,0.418-0.183,0.524c-0.095,0.233-0.225,0.437-0.389,0.611
			s-0.363,0.331-0.595,0.468c-0.244,0.169-0.448,0.289-0.612,0.357s-0.278,0.098-0.341,0.087c-0.18-0.021-0.352-0.04-0.516-0.056
			c-0.164-0.016-0.325-0.024-0.484-0.024c-0.138-0.074-0.246-0.217-0.325-0.429c-0.08-0.211-0.119-0.498-0.119-0.857
			c0-0.317,0.193-0.717,0.58-1.199c0.386-0.482,0.728-0.739,1.024-0.771c0.18-0.222,0.392-0.476,0.635-0.762
			c0.106-0.074,0.244-0.135,0.413-0.183C84.521,5.796,84.718,5.772,84.94,5.772z"/>
	</g>
</g>
</svg>
