<?xml version="1.0" encoding="utf-8"?>
<!-- Generator: Adobe Illustrator 16.0.0, SVG Export Plug-In . SVG Version: 6.00 Build 0)  -->
<!DOCTYPE svg PUBLIC "-//W3C//DTD SVG 1.1//EN" "http://www.w3.org/Graphics/SVG/1.1/DTD/svg11.dtd">
<svg version="1.1" id="Layer_1" xmlns="http://www.w3.org/2000/svg" xmlns:xlink="http://www.w3.org/1999/xlink" x="0px" y="0px"
	 width="130.262px" height="24.772px" viewBox="0 0 130.262 24.772" enable-background="new 0 0 130.262 24.772"
	 xml:space="preserve">
<g>
	<g>
		<path fill="#003051" d="M4.145,13.164c-0.105,0.371-0.188,0.688-0.246,0.953s-0.086,0.487-0.086,0.667
			c0,0.096,0.004,0.223,0.016,0.381c0.01,0.159,0.031,0.524,0.063,1.096c0.064-0.01,0.127-0.026,0.191-0.048l0.27,0.191
			c0.01,0.116,0.016,0.201,0.016,0.254c0,0.222-0.063,0.563-0.189,1.024c-0.127,0.46-0.191,0.796-0.191,1.008v0.873
			c0,0.17-0.016,0.342-0.047,0.517c-0.033,0.175-0.086,0.357-0.16,0.548c-0.084,0.233-0.176,0.421-0.277,0.563
			C3.4,21.335,3.283,21.428,3.145,21.47c-0.063,0.021-0.129,0.045-0.197,0.071c-0.07,0.026-0.131,0.056-0.184,0.087
			c-0.191,0.159-0.371,0.31-0.539,0.453c-0.17,0.143-0.35,0.288-0.541,0.437c-0.254,0.201-0.486,0.35-0.699,0.444
			c-0.211,0.096-0.402,0.144-0.57,0.144c-0.139,0-0.242-0.063-0.311-0.19C0.035,22.787,0,22.587,0,22.312
			c0-0.17,0.021-0.382,0.064-0.636c0.041-0.254,0.105-0.55,0.189-0.889c0.096-0.35,0.164-0.651,0.207-0.905s0.074-0.461,0.096-0.619
			c0.031-0.244,0.088-0.659,0.166-1.247c0.08-0.588,0.199-1.374,0.357-2.358c0.117-0.646,0.262-1.455,0.438-2.43
			c0.174-0.974,0.379-2.111,0.611-3.414c0.01-0.116,0.023-0.256,0.039-0.421C2.184,9.229,2.197,9.03,2.207,8.798
			C2.26,8.745,2.301,8.679,2.326,8.599C2.354,8.52,2.383,8.438,2.414,8.353c0.031-0.063,0.08-0.291,0.143-0.683
			C2.621,7.278,2.68,6.733,2.732,6.034c0.021-0.201,0.295-0.537,0.826-1.008c0.527-0.472,0.883-0.707,1.063-0.707l0.207,0.096
			c0,0.074,0.008,0.183,0.023,0.325s0.023,0.246,0.023,0.31c-0.127,0.413-0.18,0.651-0.158,0.715
			c0.031,0.37,0.068,0.741,0.111,1.111c0,0.254-0.008,0.492-0.023,0.715C4.789,7.813,4.764,8.004,4.732,8.162
			c-0.01,0.063-0.025,0.146-0.047,0.246S4.621,8.634,4.559,8.781C4.525,8.908,4.5,9.025,4.479,9.131
			C4.457,9.237,4.447,9.327,4.447,9.401c0.01,0.275,0.025,0.529,0.047,0.762c-0.031,0.201-0.059,0.429-0.078,0.683
			c-0.012,0.085-0.014,0.173-0.008,0.263c0.004,0.09,0.002,0.188-0.01,0.293c-0.127,0.35-0.209,0.673-0.246,0.969
			C4.115,12.667,4.113,12.932,4.145,13.164z M5.098,0c0.244,0,0.426,0.111,0.549,0.334c0.121,0.222,0.182,0.55,0.182,0.984
			c0,0.455-0.23,0.884-0.689,1.286c-0.461,0.402-0.92,0.604-1.375,0.604c-0.381,0-0.666-0.034-0.857-0.104
			C2.717,3.036,2.621,2.943,2.621,2.827c0-0.074,0.008-0.164,0.023-0.271C2.66,2.451,2.674,2.329,2.684,2.191
			c0.053-0.169,0.102-0.381,0.145-0.635V1.144c0-0.232,0.049-0.421,0.15-0.563c0.1-0.144,0.256-0.235,0.469-0.278
			C3.637,0.26,3.828,0.223,4.018,0.19c0.191-0.031,0.387-0.063,0.588-0.095C4.723,0.063,4.887,0.032,5.098,0z"/>
		<path fill="#003051" d="M7.83,22.74c0.096-0.085,0.23-0.199,0.404-0.342c0.176-0.143,0.4-0.314,0.676-0.516
			c0.211-0.138,0.365-0.271,0.459-0.397c0.096-0.127,0.145-0.26,0.145-0.397c0-0.498-0.004-0.816-0.008-0.954
			c-0.006-0.138-0.01-0.243-0.01-0.317c0-1.018,0.027-1.813,0.08-2.385c0.053-0.571,0.121-0.927,0.207-1.064l-0.031-0.477
			l-0.096-0.111c0-0.117,0.002-0.22,0.008-0.311c0.006-0.09,0.008-0.167,0.008-0.23c0-0.582-0.258-0.953-0.77-1.112
			c-0.514-0.158-0.771-0.482-0.771-0.97c0-0.147,0.148-0.33,0.445-0.547s0.73-0.479,1.303-0.786
			c0.072-0.518,0.152-1.084,0.238-1.697c0.084-0.613,0.184-1.29,0.301-2.031c-0.043-0.137-0.074-0.251-0.096-0.341
			s-0.031-0.172-0.031-0.246c0-0.37,0.043-0.708,0.127-1.015c0.084-0.308,0.201-0.599,0.35-0.873
			c0.096-0.148,0.217-0.31,0.365-0.484c0.148-0.174,0.328-0.367,0.539-0.579c0.17-0.158,0.297-0.299,0.381-0.42
			c0.086-0.122,0.129-0.22,0.129-0.294c0-0.085-0.035-0.153-0.104-0.206c-0.07-0.053-0.168-0.079-0.295-0.079
			c-0.391,0-0.969,0.124-1.73,0.373S8.719,4.304,8.338,4.304c-0.127,0-0.221-0.016-0.277-0.048C8.002,4.225,7.973,4.171,7.973,4.097
			c0-0.211,0.01-0.396,0.031-0.556c0.021-0.158,0.049-0.27,0.08-0.333c0.18-0.138,0.32-0.271,0.42-0.397
			C8.605,2.684,8.656,2.557,8.656,2.43c0-0.053,0.055-0.121,0.166-0.206s0.289-0.159,0.531-0.223
			c0.975-0.275,1.719-0.486,2.232-0.635c0.512-0.148,0.807-0.233,0.881-0.255c0.592-0.147,1.158-0.256,1.699-0.325
			c0.539-0.068,1.043-0.104,1.508-0.104c0.053,0,0.16,0.014,0.318,0.04s0.264,0.029,0.316,0.008
			c0.213-0.031,0.436-0.068,0.668-0.111c0.063,0,0.248,0.029,0.555,0.088c0.309,0.058,0.736,0.14,1.287,0.246
			c0.117-0.021,0.244-0.048,0.381-0.08c0.307,0,0.564,0.048,0.77,0.144c0.207,0.095,0.369,0.228,0.484,0.396
			c0.148,0.031,0.291,0.048,0.43,0.048c0.275,0,0.527,0.076,0.754,0.229c0.229,0.153,0.426,0.373,0.596,0.659
			c0.148,0.274,0.264,0.547,0.35,0.816C22.666,3.437,22.709,3.714,22.709,4c0,0.561-0.119,1.092-0.357,1.595
			s-0.596,0.971-1.072,1.404c-0.053,0.031-0.309,0.22-0.77,0.563s-1.131,0.822-2.01,1.436c-0.094,0.063-0.205,0.153-0.332,0.271
			c-0.127,0.116-0.281,0.237-0.461,0.364c-0.869,0.519-1.705,1.017-2.51,1.492c-0.678,0.37-1.189,0.683-1.539,0.936
			c-0.35,0.255-0.525,0.435-0.525,0.54c0,0.212,0.09,0.4,0.271,0.564c0.18,0.164,0.455,0.31,0.824,0.437
			c0.541,0.191,1.148,0.408,1.826,0.652c0.678,0.243,1.402,0.534,2.176,0.873c0.074,0.021,0.168,0.064,0.277,0.128
			c0.111,0.063,0.236,0.132,0.375,0.206c0.91,0.339,1.584,0.755,2.023,1.248c0.439,0.492,0.66,1.062,0.66,1.708
			c0,0.942-0.85,1.838-2.549,2.686s-4.244,1.652-7.631,2.415c-0.053,0.148-0.113,0.297-0.184,0.445
			c-0.068,0.147-0.129,0.291-0.182,0.429c-0.074,0.116-0.18,0.209-0.318,0.277c-0.137,0.069-0.295,0.104-0.477,0.104
			c-0.201,0-0.359-0.071-0.475-0.214c-0.117-0.144-0.197-0.368-0.238-0.676c-0.086-0.074-0.154-0.105-0.207-0.095L8.4,24.026
			c-0.115-0.063-0.225-0.119-0.324-0.167c-0.102-0.048-0.205-0.098-0.311-0.15c-0.105-0.063-0.189-0.141-0.254-0.23
			c-0.063-0.09-0.096-0.188-0.096-0.294c0-0.096,0.035-0.172,0.104-0.23S7.691,22.825,7.83,22.74z M12.705,15.207
			c-0.17,0-0.316,0.146-0.438,0.438c-0.121,0.291-0.219,0.723-0.293,1.295c-0.043,0.53-0.086,1.063-0.127,1.598
			c-0.043,0.535-0.086,1.067-0.127,1.598c-0.064,0.265-0.117,0.546-0.16,0.842l0.033,0.159l0.127,0.063
			c0.422-0.116,0.895-0.238,1.412-0.365c0.361,0,0.574-0.034,0.645-0.104c0.068-0.068,0.922-0.469,2.564-1.2
			c0.697-0.296,1.223-0.574,1.572-0.834c0.348-0.26,0.523-0.485,0.523-0.676c0-0.116-0.049-0.228-0.143-0.334
			c-0.096-0.105-0.238-0.217-0.43-0.334c-0.498-0.317-1.047-0.606-1.65-0.866c-0.604-0.259-1.266-0.495-1.986-0.707
			c-0.094-0.032-0.203-0.066-0.324-0.104c-0.123-0.037-0.258-0.076-0.406-0.119c-0.232-0.105-0.41-0.19-0.531-0.254
			S12.758,15.207,12.705,15.207z M15.785,3.303c-0.402,0-0.729,0.029-0.977,0.088c-0.248,0.058-0.426,0.15-0.531,0.277
			c-0.086,0.085-0.172,0.249-0.262,0.492c-0.092,0.243-0.189,0.576-0.295,0.999c-0.043,0.233-0.07,0.492-0.088,0.777
			c-0.016,0.286-0.018,0.598-0.008,0.937c-0.115,0.275-0.238,0.508-0.365,0.698l0.08,0.412c-0.127,0.529-0.217,0.952-0.27,1.27
			s-0.08,0.529-0.08,0.635c0,0.158,0.031,0.27,0.096,0.333c0.063,0.063,0.152,0.096,0.27,0.096c0.105,0,0.357-0.117,0.754-0.35
			c0.398-0.232,0.945-0.581,1.645-1.047c0.771-0.508,1.363-0.896,1.77-1.166c0.408-0.27,0.645-0.421,0.707-0.452
			c0.139-0.17,0.273-0.336,0.406-0.5c0.131-0.164,0.262-0.325,0.389-0.484c0.18-0.222,0.313-0.42,0.396-0.595
			c0.084-0.174,0.127-0.33,0.127-0.468c0-0.254-0.08-0.481-0.238-0.683s-0.396-0.375-0.715-0.523
			c-0.105-0.042-0.293-0.105-0.563-0.19c-0.271-0.084-0.617-0.169-1.041-0.254c-0.35-0.095-0.625-0.169-0.826-0.222
			S15.838,3.303,15.785,3.303z"/>
		<path fill="#003051" d="M21.693,18.15l0.094-0.111l0.049-0.158c0.285-0.392,0.787-0.902,1.508-1.532s1.217-1.141,1.492-1.533
			c0.105-0.169,0.229-0.291,0.365-0.365c0.139-0.073,0.275-0.11,0.414-0.11c0.369,0,0.682,0.093,0.936,0.277
			c0.256,0.186,0.424,0.464,0.51,0.834c0.072,0.328,0.143,0.659,0.205,0.992c0.064,0.334,0.117,0.67,0.16,1.009
			c0.072,0.212,0.164,0.532,0.27,0.961s0.186,0.675,0.238,0.738c0.053,0.105,0.133,0.183,0.238,0.229
			c0.105,0.048,0.238,0.072,0.396,0.072c0.191,0,0.387-0.034,0.588-0.104c0.201-0.068,0.406-0.188,0.619-0.357
			c0.158-0.138,0.326-0.277,0.5-0.421c0.174-0.143,0.348-0.283,0.516-0.421l0.637,1.461c-0.17,0.17-0.395,0.363-0.676,0.58
			s-0.617,0.468-1.008,0.754c-0.436,0.317-0.805,0.554-1.111,0.707c-0.309,0.153-0.541,0.23-0.699,0.23
			c-0.963,0-1.588-0.111-1.875-0.334c-0.285-0.223-0.604-0.842-0.951-1.857c-0.043-0.085-0.107-0.186-0.191-0.302
			c-0.084-0.117-0.18-0.255-0.285-0.413c-0.127-0.243-0.238-0.426-0.334-0.548s-0.174-0.183-0.238-0.183
			c-0.17,0-0.396,0.113-0.684,0.341c-0.285,0.229-0.635,0.569-1.047,1.024c-0.053-0.137-0.119-0.302-0.199-0.492
			s-0.16-0.413-0.246-0.667c-0.021-0.063-0.047-0.121-0.08-0.175C21.771,18.225,21.734,18.183,21.693,18.15z M28.33,5.621
			c0.264,0,0.457,0.054,0.58,0.159c0.121,0.106,0.182,0.26,0.182,0.461c-0.063,0.296-0.115,0.545-0.158,0.746
			c-0.105,0.381-0.199,0.693-0.277,0.937c-0.08,0.244-0.141,0.419-0.184,0.524c-0.096,0.232-0.225,0.437-0.389,0.611
			s-0.363,0.331-0.596,0.469c-0.244,0.169-0.447,0.288-0.611,0.357c-0.164,0.068-0.277,0.098-0.342,0.087
			c-0.18-0.021-0.352-0.04-0.516-0.056s-0.326-0.023-0.484-0.023c-0.137-0.074-0.246-0.217-0.326-0.429
			c-0.078-0.212-0.119-0.498-0.119-0.857c0-0.318,0.193-0.718,0.58-1.199s0.729-0.738,1.025-0.771
			c0.18-0.222,0.391-0.477,0.635-0.762c0.105-0.074,0.242-0.136,0.412-0.183C27.912,5.646,28.107,5.621,28.33,5.621z"/>
		<path fill="#003051" d="M30.775,18.15c0.127-0.222,0.291-0.447,0.492-0.675s0.455-0.463,0.762-0.706
			c0.033-0.212,0.064-0.421,0.096-0.628c0.031-0.206,0.053-0.415,0.064-0.627c0.031-0.148,0.082-0.323,0.15-0.524
			c0.068-0.2,0.145-0.418,0.23-0.65c0.096-0.233,0.225-0.524,0.389-0.874c0.164-0.349,0.379-0.74,0.643-1.175
			c0.223-0.243,0.455-0.511,0.699-0.802s0.486-0.585,0.73-0.882c0.117-0.095,0.244-0.185,0.381-0.27
			c0.139-0.085,0.275-0.18,0.414-0.286c0.127-0.042,0.27-0.079,0.428-0.111c0.158-0.031,0.334-0.047,0.523-0.047
			c0.266,0,0.48,0.026,0.645,0.079s0.299,0.143,0.404,0.27c0.074,0.085,0.145,0.212,0.215,0.382
			c0.068,0.169,0.135,0.376,0.197,0.619c0.033,0.212,0.07,0.444,0.111,0.698c0-0.063-0.018-0.037-0.055,0.08
			c-0.037,0.116-0.094,0.302-0.168,0.556l-0.143,0.508c-0.148,0.508-0.48,1.096-1,1.763s-1.217,1.429-2.096,2.287
			c-0.074,0.074-0.139,0.166-0.191,0.277s-0.078,0.23-0.078,0.357c0,0.223,0.039,0.418,0.119,0.588
			c0.078,0.169,0.191,0.296,0.34,0.381c0.086,0.063,0.221,0.127,0.406,0.19c0.184,0.063,0.404,0.122,0.658,0.175
			c0.414-0.032,0.789-0.101,1.127-0.206c0.34-0.106,0.641-0.233,0.906-0.382c0.053-0.031,0.137-0.076,0.254-0.135
			c0.115-0.058,0.232-0.135,0.35-0.23c0.137,0.308,0.26,0.583,0.365,0.826s0.189,0.455,0.254,0.635
			c-0.604,0.594-1.152,1.04-1.645,1.342s-0.943,0.453-1.357,0.453c-0.17,0.105-0.363,0.183-0.58,0.23
			c-0.217,0.047-0.473,0.071-0.77,0.071c-0.391,0-0.738-0.059-1.039-0.175c-0.303-0.116-0.555-0.286-0.756-0.509
			c-0.105-0.105-0.211-0.262-0.316-0.468c-0.105-0.207-0.217-0.453-0.334-0.738c-0.096-0.233-0.186-0.405-0.27-0.517
			c-0.086-0.111-0.18-0.167-0.287-0.167c-0.084,0-0.18,0.04-0.285,0.119c-0.105,0.08-0.223,0.199-0.35,0.357
			c-0.041-0.158-0.115-0.354-0.223-0.587C31.082,18.791,30.945,18.5,30.775,18.15z M35.857,12.989c-0.232,0-0.545,0.305-0.938,0.913
			c-0.391,0.609-0.588,1.057-0.588,1.343c0,0.063,0.014,0.108,0.041,0.135c0.025,0.026,0.082,0.039,0.166,0.039
			c0.117,0,0.211-0.061,0.285-0.183c0.074-0.121,0.143-0.235,0.207-0.341c0.117-0.105,0.23-0.22,0.342-0.342
			c0.111-0.121,0.219-0.24,0.324-0.357c0.129-0.147,0.223-0.296,0.287-0.444c0.063-0.148,0.096-0.296,0.096-0.444
			c0-0.096-0.02-0.172-0.057-0.23S35.932,12.989,35.857,12.989z"/>
		<path fill="#003051" d="M38.764,18.15c0.041-0.073,0.098-0.156,0.166-0.246s0.15-0.198,0.246-0.325
			c0.105-0.085,0.244-0.207,0.412-0.365c0.17-0.159,0.361-0.344,0.572-0.556c0.191-0.212,0.424-0.474,0.699-0.786
			s0.607-0.691,1-1.136c0.17-0.18,0.381-0.41,0.635-0.69s0.557-0.617,0.906-1.009c0.295-0.349,0.613-0.608,0.951-0.777
			c0.34-0.17,0.699-0.255,1.08-0.255s0.662,0.119,0.842,0.357s0.27,0.585,0.27,1.04c0,0.244-0.09,0.71-0.27,1.397
			c-0.18,0.688-0.461,1.599-0.842,2.731c-0.094,0.212-0.186,0.413-0.27,0.604c-0.063,0.138-0.105,0.26-0.127,0.365
			s-0.031,0.186-0.031,0.238c0,0.063,0.037,0.143,0.111,0.238c0.053-0.032,0.104-0.074,0.15-0.127s0.104-0.116,0.166-0.19
			c0.086-0.159,0.215-0.326,0.391-0.501c0.174-0.174,0.383-0.367,0.627-0.579c0.094-0.18,0.219-0.357,0.373-0.532
			c0.152-0.175,0.324-0.336,0.516-0.484c0.043-0.042,0.098-0.111,0.166-0.206c0.07-0.096,0.152-0.196,0.246-0.302
			c0.139-0.138,0.303-0.28,0.492-0.429c0.191-0.148,0.414-0.302,0.668-0.461c0.285-0.147,0.543-0.265,0.77-0.35
			c0.229-0.084,0.426-0.127,0.596-0.127c0.328,0,0.619,0.08,0.873,0.238c0.254,0.159,0.471,0.408,0.652,0.747
			c0.211,0.656,0.412,1.265,0.604,1.826c0.115,0.328,0.246,0.571,0.389,0.73c0.143,0.158,0.305,0.237,0.484,0.237
			c0.137,0,0.262-0.025,0.373-0.079c0.111-0.053,0.215-0.132,0.309-0.238l0.637,1.461c-0.182,0.148-0.365,0.302-0.557,0.461
			c-0.191,0.158-0.375,0.313-0.557,0.46c-0.242,0.223-0.471,0.379-0.682,0.469c-0.213,0.09-0.424,0.135-0.635,0.135
			c-0.244,0-0.477-0.053-0.699-0.158c-0.223-0.106-0.414-0.265-0.572-0.477c-0.084-0.085-0.189-0.241-0.316-0.469
			s-0.275-0.511-0.445-0.85c-0.139-0.138-0.293-0.32-0.469-0.548c-0.174-0.228-0.379-0.494-0.611-0.802l-0.143-0.048
			c-0.201,0.063-0.4,0.159-0.596,0.286s-0.404,0.291-0.625,0.492c-0.477,0.424-0.82,0.688-1.031,0.794
			c-0.213,0.106-0.355,0.228-0.428,0.365c-0.148,0.254-0.402,0.582-0.762,0.984s-0.811,0.879-1.35,1.43
			c-0.137,0.138-0.273,0.272-0.412,0.404c-0.137,0.133-0.273,0.263-0.412,0.39c-0.137,0.116-0.293,0.198-0.467,0.246
			c-0.176,0.048-0.369,0.071-0.58,0.071c-0.424,0-0.654-0.146-0.689-0.437c-0.039-0.291-0.072-0.585-0.104-0.882
			c0.158-0.444,0.338-1,0.539-1.667s0.432-1.445,0.695-2.334c0-0.053,0.018-0.125,0.055-0.215c0.035-0.09,0.08-0.209,0.133-0.357
			c0.053-0.138,0.09-0.256,0.109-0.357c0.021-0.101,0.033-0.188,0.033-0.262s-0.027-0.132-0.08-0.175
			c-0.053-0.042-0.139-0.063-0.254-0.063c-0.105,0-0.246,0.063-0.422,0.19c-0.174,0.127-0.383,0.328-0.627,0.604
			c-0.297,0.317-0.535,0.566-0.715,0.746c-0.18,0.181-0.301,0.286-0.365,0.318c-0.105,0.074-0.23,0.18-0.373,0.317
			s-0.305,0.291-0.484,0.46c-0.021,0.043-0.053,0.106-0.096,0.191c-0.041,0.084-0.109,0.18-0.205,0.285
			c-0.043-0.158-0.117-0.354-0.223-0.587C39.07,18.791,38.932,18.5,38.764,18.15z"/>
		<path fill="#003051" d="M53.945,18.15c0.041-0.084,0.139-0.23,0.293-0.437s0.373-0.463,0.658-0.771
			c0.297-0.296,0.543-0.573,0.738-0.833c0.197-0.26,0.336-0.49,0.422-0.691c0.127-0.243,0.277-0.55,0.453-0.921
			c0.174-0.37,0.367-0.799,0.578-1.286c0.033-0.053,0.26-0.225,0.684-0.516s0.688-0.437,0.795-0.437c0.137,0,0.24,0.098,0.309,0.293
			c0.068,0.196,0.104,0.495,0.104,0.897c0,0.593-0.008,1.088-0.023,1.484c-0.016,0.397-0.057,0.718-0.119,0.961
			c0.021,0.054,0.041,0.117,0.063,0.19c0.021,0.074,0.049,0.159,0.08,0.255c-0.021,0.105-0.047,0.217-0.08,0.333
			c0,1.26,0.049,2.199,0.143,2.818c0.096,0.619,0.223,0.93,0.383,0.93c0.199,0,0.486-0.268,0.857-0.803
			c0.369-0.534,0.82-1.342,1.35-2.421c0.529-1.049,0.932-1.908,1.207-2.581c0.273-0.672,0.434-1.178,0.477-1.517
			c0.094-0.593,0.25-1.04,0.467-1.342s0.512-0.452,0.883-0.452c0.105,0,0.18,0.029,0.221,0.087c0.043,0.059,0.064,0.146,0.064,0.263
			c0,0.423-0.057,0.854-0.166,1.294c-0.111,0.439-0.285,0.876-0.518,1.31c0,0.286-0.066,0.609-0.197,0.969
			c-0.133,0.36-0.336,0.757-0.611,1.191c-0.096,0.286-0.17,0.566-0.223,0.842c-0.021,0.138-0.262,0.624-0.723,1.461
			c-0.461,0.836-0.754,1.323-0.881,1.461c0,0.254-0.123,0.559-0.365,0.913c-0.244,0.354-0.619,0.76-1.129,1.215
			c-0.105,0.138-0.217,0.27-0.332,0.396c-0.117,0.127-0.229,0.254-0.334,0.381c-0.117,0.148-0.246,0.263-0.389,0.342
			s-0.311,0.119-0.5,0.119c-0.572,0-1.006-0.217-1.303-0.651c-0.297-0.434-0.445-1.085-0.445-1.953
			c0.033-0.158,0.053-0.296,0.064-0.413c-0.053-0.127-0.105-0.293-0.158-0.5c-0.055-0.206-0.092-0.437-0.111-0.69
			c0-0.339-0.004-0.614-0.008-0.826c-0.006-0.211-0.025-0.354-0.057-0.429l0.111-0.365l-0.158-0.095
			c-0.074,0.031-0.271,0.212-0.588,0.54c-0.318,0.328-0.768,0.81-1.35,1.444c-0.074-0.232-0.164-0.466-0.27-0.698
			C54.203,18.68,54.082,18.426,53.945,18.15z"/>
		<path fill="#003051" d="M64.408,18.15c0.127-0.222,0.291-0.447,0.492-0.675s0.455-0.463,0.762-0.706
			c0.033-0.212,0.064-0.421,0.096-0.628c0.031-0.206,0.053-0.415,0.064-0.627c0.031-0.148,0.082-0.323,0.15-0.524
			c0.068-0.2,0.145-0.418,0.23-0.65c0.096-0.233,0.225-0.524,0.389-0.874c0.164-0.349,0.379-0.74,0.643-1.175
			c0.223-0.243,0.455-0.511,0.699-0.802s0.486-0.585,0.73-0.882c0.117-0.095,0.244-0.185,0.381-0.27
			c0.139-0.085,0.275-0.18,0.414-0.286c0.127-0.042,0.27-0.079,0.428-0.111c0.158-0.031,0.334-0.047,0.523-0.047
			c0.266,0,0.48,0.026,0.645,0.079s0.299,0.143,0.404,0.27c0.074,0.085,0.145,0.212,0.215,0.382
			c0.068,0.169,0.135,0.376,0.197,0.619c0.033,0.212,0.07,0.444,0.111,0.698c0-0.063-0.018-0.037-0.055,0.08
			c-0.037,0.116-0.094,0.302-0.168,0.556l-0.143,0.508c-0.148,0.508-0.48,1.096-1,1.763s-1.217,1.429-2.096,2.287
			c-0.074,0.074-0.139,0.166-0.191,0.277s-0.078,0.23-0.078,0.357c0,0.223,0.039,0.418,0.119,0.588
			c0.078,0.169,0.191,0.296,0.34,0.381c0.086,0.063,0.221,0.127,0.406,0.19c0.184,0.063,0.404,0.122,0.658,0.175
			c0.414-0.032,0.789-0.101,1.127-0.206c0.34-0.106,0.641-0.233,0.906-0.382c0.053-0.031,0.137-0.076,0.254-0.135
			c0.115-0.058,0.232-0.135,0.35-0.23c0.137,0.308,0.26,0.583,0.365,0.826s0.189,0.455,0.254,0.635
			c-0.604,0.594-1.152,1.04-1.645,1.342s-0.943,0.453-1.357,0.453c-0.17,0.105-0.363,0.183-0.58,0.23
			c-0.217,0.047-0.473,0.071-0.77,0.071c-0.391,0-0.738-0.059-1.039-0.175c-0.303-0.116-0.555-0.286-0.756-0.509
			c-0.105-0.105-0.211-0.262-0.316-0.468c-0.105-0.207-0.217-0.453-0.334-0.738c-0.096-0.233-0.186-0.405-0.27-0.517
			c-0.086-0.111-0.18-0.167-0.287-0.167c-0.084,0-0.18,0.04-0.285,0.119c-0.105,0.08-0.223,0.199-0.35,0.357
			c-0.041-0.158-0.115-0.354-0.223-0.587C64.715,18.791,64.578,18.5,64.408,18.15z M69.49,12.989c-0.232,0-0.545,0.305-0.938,0.913
			c-0.391,0.609-0.588,1.057-0.588,1.343c0,0.063,0.014,0.108,0.041,0.135c0.025,0.026,0.082,0.039,0.166,0.039
			c0.117,0,0.211-0.061,0.285-0.183c0.074-0.121,0.143-0.235,0.207-0.341c0.117-0.105,0.23-0.22,0.342-0.342
			c0.111-0.121,0.219-0.24,0.324-0.357c0.129-0.147,0.223-0.296,0.287-0.444c0.063-0.148,0.096-0.296,0.096-0.444
			c0-0.096-0.02-0.172-0.057-0.23S69.564,12.989,69.49,12.989z"/>
		<path fill="#003051" d="M72.396,18.15c0.043-0.073,0.098-0.156,0.166-0.246c0.07-0.09,0.152-0.198,0.246-0.325
			c0.107-0.085,0.244-0.207,0.414-0.365c0.168-0.159,0.359-0.344,0.572-0.556c0.189-0.212,0.422-0.474,0.697-0.786
			s0.609-0.691,1-1.136c0.17-0.18,0.383-0.41,0.637-0.69s0.555-0.617,0.904-1.009c0.297-0.349,0.613-0.608,0.953-0.777
			c0.338-0.17,0.699-0.255,1.08-0.255s0.662,0.119,0.842,0.357s0.27,0.585,0.27,1.04c0,0.244-0.09,0.71-0.27,1.397
			c-0.18,0.688-0.461,1.599-0.842,2.731c-0.096,0.212-0.186,0.413-0.27,0.604c-0.064,0.138-0.107,0.26-0.127,0.365
			c-0.021,0.105-0.033,0.186-0.033,0.238c0,0.063,0.037,0.143,0.111,0.238c0.053-0.032,0.104-0.074,0.15-0.127
			c0.049-0.053,0.104-0.116,0.168-0.19c0.084-0.159,0.215-0.326,0.389-0.501c0.174-0.174,0.383-0.367,0.627-0.579
			c0.096-0.18,0.221-0.357,0.373-0.532c0.154-0.175,0.326-0.336,0.516-0.484c0.043-0.042,0.1-0.111,0.168-0.206
			c0.068-0.096,0.15-0.196,0.246-0.302c0.137-0.138,0.301-0.28,0.492-0.429c0.189-0.148,0.412-0.302,0.666-0.461
			c0.287-0.147,0.543-0.265,0.771-0.35c0.227-0.084,0.426-0.127,0.596-0.127c0.328,0,0.619,0.08,0.873,0.238
			c0.254,0.159,0.471,0.408,0.65,0.747c0.211,0.656,0.414,1.265,0.604,1.826c0.117,0.328,0.246,0.571,0.389,0.73
			c0.143,0.158,0.305,0.237,0.484,0.237c0.139,0,0.262-0.025,0.373-0.079c0.111-0.053,0.215-0.132,0.311-0.238l0.635,1.461
			c-0.18,0.148-0.365,0.302-0.555,0.461c-0.191,0.158-0.377,0.313-0.557,0.46c-0.244,0.223-0.471,0.379-0.684,0.469
			c-0.211,0.09-0.424,0.135-0.635,0.135c-0.244,0-0.477-0.053-0.699-0.158c-0.221-0.106-0.412-0.265-0.57-0.477
			c-0.086-0.085-0.191-0.241-0.318-0.469s-0.275-0.511-0.445-0.85c-0.137-0.138-0.293-0.32-0.467-0.548
			c-0.176-0.228-0.379-0.494-0.611-0.802l-0.145-0.048c-0.201,0.063-0.398,0.159-0.594,0.286s-0.404,0.291-0.627,0.492
			c-0.477,0.424-0.82,0.688-1.031,0.794c-0.211,0.106-0.354,0.228-0.428,0.365c-0.148,0.254-0.402,0.582-0.762,0.984
			s-0.809,0.879-1.348,1.43c-0.137,0.138-0.275,0.272-0.412,0.404c-0.139,0.133-0.275,0.263-0.412,0.39
			c-0.139,0.116-0.295,0.198-0.469,0.246s-0.367,0.071-0.578,0.071c-0.424,0-0.654-0.146-0.691-0.437s-0.072-0.585-0.104-0.882
			c0.158-0.444,0.34-1,0.539-1.667c0.201-0.667,0.434-1.445,0.695-2.334c0-0.053,0.018-0.125,0.055-0.215s0.082-0.209,0.135-0.357
			c0.051-0.138,0.088-0.256,0.109-0.357c0.021-0.101,0.031-0.188,0.031-0.262s-0.027-0.132-0.08-0.175
			c-0.053-0.042-0.137-0.063-0.254-0.063c-0.105,0-0.246,0.063-0.42,0.19c-0.176,0.127-0.385,0.328-0.627,0.604
			c-0.297,0.317-0.535,0.566-0.715,0.746c-0.18,0.181-0.303,0.286-0.365,0.318c-0.105,0.074-0.23,0.18-0.373,0.317
			s-0.305,0.291-0.484,0.46c-0.021,0.043-0.053,0.106-0.096,0.191c-0.043,0.084-0.111,0.18-0.207,0.285
			c-0.041-0.158-0.115-0.354-0.223-0.587C72.703,18.791,72.566,18.5,72.396,18.15z"/>
		<path fill="#003051" d="M87.578,18.15l0.094-0.111l0.049-0.158c0.285-0.392,0.787-0.902,1.508-1.532s1.217-1.141,1.492-1.533
			c0.105-0.169,0.229-0.291,0.365-0.365c0.139-0.073,0.275-0.11,0.414-0.11c0.369,0,0.682,0.093,0.936,0.277
			c0.256,0.186,0.424,0.464,0.51,0.834c0.072,0.328,0.143,0.659,0.205,0.992c0.064,0.334,0.117,0.67,0.16,1.009
			c0.072,0.212,0.164,0.532,0.27,0.961s0.186,0.675,0.238,0.738c0.053,0.105,0.133,0.183,0.238,0.229
			c0.105,0.048,0.238,0.072,0.396,0.072c0.191,0,0.387-0.034,0.588-0.104c0.201-0.068,0.406-0.188,0.619-0.357
			c0.158-0.138,0.326-0.277,0.5-0.421c0.174-0.143,0.348-0.283,0.516-0.421l0.637,1.461c-0.17,0.17-0.395,0.363-0.676,0.58
			s-0.617,0.468-1.008,0.754c-0.436,0.317-0.805,0.554-1.111,0.707c-0.309,0.153-0.541,0.23-0.699,0.23
			c-0.963,0-1.588-0.111-1.875-0.334c-0.285-0.223-0.604-0.842-0.951-1.857c-0.043-0.085-0.107-0.186-0.191-0.302
			c-0.084-0.117-0.18-0.255-0.285-0.413c-0.127-0.243-0.238-0.426-0.334-0.548s-0.174-0.183-0.238-0.183
			c-0.17,0-0.396,0.113-0.684,0.341c-0.285,0.229-0.635,0.569-1.047,1.024c-0.053-0.137-0.119-0.302-0.199-0.492
			s-0.16-0.413-0.246-0.667c-0.021-0.063-0.047-0.121-0.08-0.175C87.656,18.225,87.619,18.183,87.578,18.15z M94.215,5.621
			c0.264,0,0.457,0.054,0.58,0.159c0.121,0.106,0.182,0.26,0.182,0.461c-0.063,0.296-0.115,0.545-0.158,0.746
			c-0.105,0.381-0.199,0.693-0.277,0.937c-0.08,0.244-0.141,0.419-0.184,0.524c-0.096,0.232-0.225,0.437-0.389,0.611
			s-0.363,0.331-0.596,0.469c-0.244,0.169-0.447,0.288-0.611,0.357c-0.164,0.068-0.277,0.098-0.342,0.087
			c-0.18-0.021-0.352-0.04-0.516-0.056s-0.326-0.023-0.484-0.023c-0.137-0.074-0.246-0.217-0.326-0.429
			c-0.078-0.212-0.119-0.498-0.119-0.857c0-0.318,0.193-0.718,0.58-1.199s0.729-0.738,1.025-0.771
			c0.18-0.222,0.391-0.477,0.635-0.762c0.105-0.074,0.242-0.136,0.412-0.183C93.797,5.646,93.992,5.621,94.215,5.621z"/>
		<path fill="#003051" d="M96.66,18.15l0.096-0.111l0.047-0.158c0.191-0.232,0.355-0.415,0.492-0.548
			c0.139-0.133,0.244-0.235,0.318-0.31c0.053-0.053,0.17-0.122,0.35-0.207c0.18-0.084,0.422-0.19,0.73-0.317l0.205-0.127
			c0.074-0.116,0.207-0.286,0.398-0.508c0.189-0.223,0.418-0.477,0.682-0.763c0.053-0.063,0.133-0.132,0.238-0.206
			s0.217-0.169,0.334-0.286c0.254-0.243,0.508-0.495,0.762-0.754c0.254-0.26,0.492-0.517,0.715-0.771
			c0.096-0.096,0.291-0.268,0.588-0.516c0.297-0.249,0.699-0.596,1.207-1.04c0.074-0.054,0.207-0.13,0.396-0.23
			c0.191-0.101,0.439-0.22,0.746-0.357c0.139-0.063,0.24-0.167,0.311-0.31c0.068-0.144,0.104-0.326,0.104-0.548
			c0.084-0.138,0.166-0.305,0.246-0.5c0.078-0.196,0.156-0.427,0.23-0.691c0.105-0.328,0.188-0.596,0.246-0.802
			c0.057-0.206,0.102-0.347,0.135-0.421c0.18-0.477,0.422-1.034,0.73-1.675c0.307-0.641,0.672-1.374,1.096-2.2
			c0.211-0.434,0.459-0.915,0.746-1.444c0.18-0.265,0.381-0.463,0.604-0.596c0.223-0.132,0.455-0.198,0.699-0.198
			c0.189,0,0.33,0.074,0.42,0.222c0.09,0.148,0.135,0.365,0.135,0.651c0,0.455-0.031,0.89-0.096,1.302
			c-0.063,0.413-0.18,0.8-0.35,1.159c-0.031,0.074-0.057,0.186-0.078,0.334s-0.043,0.328-0.064,0.54
			c-0.01,0.148-0.051,0.291-0.119,0.429s-0.156,0.265-0.262,0.381c0,0.074-0.01,0.162-0.031,0.262
			c-0.021,0.102-0.043,0.221-0.064,0.357l-0.221,0.286c-0.021,0.063-0.033,0.141-0.033,0.23s0,0.183,0,0.277
			c0,0.063-0.037,0.188-0.111,0.373c-0.074,0.186-0.186,0.448-0.332,0.786c-0.17,0.36-0.305,0.646-0.406,0.857
			c-0.1,0.212-0.156,0.345-0.166,0.397c-0.043,0.053-0.098,0.138-0.166,0.254c-0.07,0.117-0.152,0.249-0.246,0.397l0.047,0.349
			l-1.016,3.652c0,0.403,0.004,0.747,0.016,1.032c0.01,0.286,0.041,0.514,0.094,0.684c0.055,0.18,0.141,0.399,0.264,0.658
			c0.121,0.26,0.277,0.538,0.467,0.834c0.117,0.201,0.256,0.347,0.414,0.437s0.328,0.135,0.508,0.135
			c0.201,0,0.404-0.055,0.611-0.166s0.416-0.283,0.627-0.517c0.127,0.275,0.246,0.535,0.357,0.778
			c0.111,0.244,0.203,0.472,0.277,0.683c-0.053,0.032-0.166,0.141-0.34,0.326c-0.176,0.185-0.406,0.447-0.691,0.786
			c-0.17,0.201-0.379,0.347-0.627,0.437c-0.25,0.09-0.553,0.135-0.914,0.135c-0.793,0-1.439-0.206-1.938-0.619
			c-0.496-0.413-0.846-1.032-1.047-1.858c-0.043-0.169-0.08-0.317-0.111-0.444s-0.064-0.243-0.096-0.35
			c-0.074-0.201-0.201-0.418-0.381-0.651c-0.074,0.106-0.133,0.186-0.174,0.238c-0.129,0.085-0.268,0.207-0.422,0.365
			c-0.154,0.159-0.309,0.36-0.469,0.604c-0.031,0.106-0.09,0.236-0.174,0.39c-0.086,0.153-0.201,0.336-0.35,0.548
			c-0.34,0.392-0.684,0.786-1.033,1.183c-0.348,0.397-0.697,0.786-1.047,1.167c-0.477,0.53-0.916,0.919-1.318,1.167
			c-0.402,0.249-0.752,0.374-1.049,0.374c-0.529,0-0.92-0.125-1.174-0.374c-0.254-0.248-0.381-0.637-0.381-1.167
			c0-0.243,0.09-0.585,0.27-1.024c0.18-0.438,0.27-0.765,0.27-0.977l-0.096-0.254L96.66,18.15z M104.648,13.609
			c0-0.053-0.021-0.133-0.064-0.238c-0.158,0.158-0.355,0.344-0.588,0.556s-0.508,0.444-0.824,0.698
			c-0.074,0.17-0.244,0.438-0.51,0.803c-0.264,0.365-0.635,0.817-1.111,1.357c-0.137,0.158-0.322,0.432-0.555,0.817
			c-0.234,0.387-0.52,0.86-0.857,1.422c-0.117,0.222-0.238,0.492-0.365,0.81c0,0.063,0.041,0.133,0.127,0.206
			c0.316-0.095,0.705-0.373,1.166-0.833c0.461-0.461,1.01-1.099,1.645-1.914c0.656-0.868,1.143-1.606,1.461-2.215
			C104.488,14.47,104.648,13.979,104.648,13.609z"/>
		<path fill="#003051" d="M109.936,18.15c0.074-0.073,0.15-0.172,0.23-0.294c0.08-0.121,0.172-0.256,0.277-0.404l1.223-0.842
			c0.148-0.18,0.377-0.41,0.684-0.69s0.688-0.622,1.143-1.024c0.053-0.116,0.141-0.252,0.262-0.405
			c0.123-0.153,0.268-0.304,0.438-0.452c0.148-0.138,0.297-0.268,0.445-0.39c0.148-0.121,0.285-0.24,0.412-0.357
			c0.158-0.158,0.311-0.317,0.453-0.476c0.143-0.159,0.287-0.313,0.436-0.461c0.17-0.148,0.344-0.265,0.525-0.35
			c0.18-0.084,0.375-0.127,0.586-0.127c0.234,0,0.41,0.029,0.533,0.088c0.121,0.058,0.188,0.14,0.197,0.246
			c-0.105,0.243-0.217,0.486-0.332,0.73l0.096,0.143c0.465-0.18,0.83-0.313,1.096-0.396c0.264-0.085,0.434-0.128,0.508-0.128
			c0.771,0,1.352,0.236,1.738,0.707c0.387,0.472,0.58,1.183,0.58,2.136c0,0.181-0.021,0.392-0.064,0.636
			c-0.043,0.243-0.111,0.508-0.205,0.794c-0.107,0.317-0.221,0.582-0.342,0.794c-0.123,0.212-0.236,0.365-0.342,0.46
			c0.043,0.138,0.09,0.236,0.143,0.294c0.053,0.059,0.121,0.087,0.207,0.087c0.084,0,0.172-0.025,0.262-0.079
			c0.09-0.053,0.199-0.132,0.326-0.238c0.105,0.233,0.209,0.475,0.309,0.723c0.102,0.249,0.203,0.495,0.311,0.738
			c-0.191,0.17-0.377,0.334-0.557,0.492c-0.18,0.159-0.371,0.313-0.572,0.461c-0.242,0.201-0.473,0.347-0.689,0.437
			s-0.432,0.135-0.645,0.135c-0.242,0-0.443-0.058-0.602-0.175c-0.16-0.116-0.287-0.28-0.383-0.492
			c-0.264,0.35-0.584,0.67-0.959,0.961c-0.377,0.291-0.793,0.532-1.248,0.723c-0.264,0.127-0.506,0.225-0.723,0.294
			c-0.217,0.068-0.414,0.104-0.596,0.104c-0.053,0-0.156,0.021-0.309,0.063c-0.154,0.042-0.277,0.063-0.373,0.063
			c-0.604,0-1.148-0.255-1.637-0.763c-0.486-0.508-0.73-1.074-0.73-1.699c0-0.254,0.059-0.59,0.176-1.008
			c0.115-0.419,0.174-0.665,0.174-0.739c0-0.073-0.023-0.135-0.07-0.183c-0.049-0.047-0.115-0.071-0.199-0.071
			c-0.053,0-0.18,0.08-0.381,0.238c-0.201,0.159-0.486,0.387-0.857,0.683c-0.031,0.043-0.068,0.106-0.111,0.191
			c-0.043,0.084-0.111,0.18-0.207,0.285c-0.084-0.243-0.18-0.489-0.285-0.738C110.18,18.625,110.063,18.384,109.936,18.15z
			 M117.574,15.245c-0.053,0.01-0.131,0.065-0.23,0.166c-0.102,0.101-0.199,0.226-0.295,0.373c-0.146,0.244-0.316,0.509-0.508,0.794
			c-0.115,0.128-0.24,0.226-0.373,0.294c-0.133,0.069-0.283,0.119-0.451,0.151c-0.107,0.011-0.219,0.113-0.334,0.31
			c-0.117,0.196-0.234,0.479-0.35,0.85c-0.117,0.328-0.201,0.608-0.254,0.842c-0.053,0.232-0.08,0.429-0.08,0.587
			c0,0.297,0.074,0.52,0.223,0.667c0.148,0.148,0.375,0.223,0.684,0.223c0.486,0,0.934-0.135,1.342-0.405
			c0.406-0.27,0.791-0.675,1.15-1.215c0.17-0.201,0.328-0.392,0.477-0.571c0.084-0.063,0.154-0.167,0.207-0.31
			c0.053-0.144,0.105-0.32,0.158-0.532l0.285-0.905c-0.094-0.317-0.186-0.568-0.27-0.754s-0.17-0.299-0.254-0.342
			c-0.053-0.031-0.17-0.065-0.35-0.104C118.172,15.327,117.912,15.287,117.574,15.245z"/>
		<path fill="#003051" d="M126.451,19.897c0.328,0,0.588,0.04,0.777,0.119c0.191,0.079,0.307,0.188,0.35,0.325l-0.158,1.223
			c-0.031,0.148-0.053,0.3-0.064,0.453c-0.01,0.153-0.031,0.305-0.063,0.452c-0.053,0.138-0.143,0.238-0.27,0.302
			s-0.303,0.096-0.525,0.096c-0.168,0-0.404,0.039-0.707,0.119c-0.301,0.079-0.531,0.119-0.689,0.119
			c-0.244,0-0.426-0.109-0.549-0.326c-0.121-0.217-0.182-0.553-0.182-1.008c0-0.424,0.234-0.842,0.707-1.255
			C125.549,20.104,126.006,19.897,126.451,19.897z M126.133,9.988c0.117-0.35,0.207-0.656,0.271-0.921
			c0.063-0.265,0.094-0.486,0.094-0.667c0-0.095-0.014-0.22-0.039-0.373c-0.027-0.153-0.045-0.521-0.055-1.104
			c-0.064,0.021-0.133,0.031-0.207,0.031l-0.27-0.174l-0.049-0.223c0-0.243,0.076-0.598,0.23-1.064
			c0.154-0.466,0.221-0.81,0.199-1.032l-0.016-0.841c-0.021-0.148-0.014-0.315,0.023-0.501c0.037-0.185,0.098-0.373,0.182-0.563
			c0.086-0.232,0.18-0.421,0.287-0.563c0.105-0.143,0.221-0.235,0.35-0.278c0.053-0.031,0.113-0.061,0.182-0.087
			s0.135-0.05,0.199-0.071c0.201-0.159,0.391-0.31,0.57-0.453c0.18-0.143,0.344-0.288,0.492-0.437
			c0.266-0.18,0.506-0.322,0.723-0.429c0.217-0.105,0.41-0.159,0.58-0.159c0.137,0,0.236,0.066,0.293,0.199
			c0.059,0.132,0.088,0.331,0.088,0.595c0,0.159-0.018,0.368-0.055,0.628s-0.098,0.559-0.184,0.897
			c-0.084,0.349-0.152,0.65-0.205,0.904c-0.055,0.255-0.086,0.461-0.096,0.62c-0.012,0.232-0.059,0.653-0.143,1.262
			c-0.086,0.609-0.213,1.39-0.383,2.343c-0.115,0.635-0.258,1.442-0.428,2.422c-0.17,0.979-0.365,2.114-0.588,3.405
			c0,0.117-0.014,0.255-0.039,0.413c-0.027,0.159-0.057,0.355-0.088,0.588c-0.021,0.063-0.047,0.135-0.08,0.214
			c-0.031,0.08-0.074,0.162-0.127,0.246c-0.021,0.074-0.057,0.305-0.111,0.691c-0.053,0.387-0.109,0.935-0.174,1.644
			c-0.031,0.201-0.311,0.532-0.834,0.992c-0.523,0.461-0.875,0.69-1.055,0.69c-0.117-0.01-0.191-0.042-0.223-0.095
			c0-0.053-0.006-0.153-0.016-0.302c-0.012-0.148-0.018-0.26-0.018-0.334l0.16-0.65c-0.043-0.381-0.086-0.752-0.127-1.111
			c0-0.244,0.008-0.477,0.023-0.699s0.033-0.439,0.055-0.651c0.064-0.243,0.127-0.438,0.191-0.587
			c0.031-0.106,0.059-0.217,0.08-0.334c0.02-0.116,0.031-0.211,0.031-0.285c-0.012-0.275-0.016-0.535-0.016-0.778
			c0,0.053,0.002,0.021,0.008-0.096c0.004-0.116,0.012-0.302,0.023-0.556c0.021-0.095,0.031-0.188,0.031-0.277s0-0.188,0-0.294
			c0.117-0.328,0.199-0.641,0.246-0.938C126.174,10.55,126.176,10.264,126.133,9.988z"/>
	</g>
</g>
</svg>
