<?xml version="1.0" encoding="utf-8"?>
<!-- Generator: Adobe Illustrator 16.0.0, SVG Export Plug-In . SVG Version: 6.00 Build 0)  -->
<!DOCTYPE svg PUBLIC "-//W3C//DTD SVG 1.1//EN" "http://www.w3.org/Graphics/SVG/1.1/DTD/svg11.dtd">
<svg version="1.1" id="Layer_1" xmlns="http://www.w3.org/2000/svg" xmlns:xlink="http://www.w3.org/1999/xlink" x="0px" y="0px"
	 width="16.566px" height="16.568px" viewBox="0 0 16.566 16.568" enable-background="new 0 0 16.566 16.568" xml:space="preserve">
<g>
	<g>
		<g>
			<g>
				<path fill="#FCB4C4" d="M11.389,0H5.178C2.318,0,0,2.32,0,5.178v6.213c0,2.859,2.318,5.178,5.178,5.178h6.211
					c2.859,0,5.178-2.318,5.178-5.178V5.178C16.566,2.32,14.248,0,11.389,0z M15.014,11.391c0,1.998-1.627,3.625-3.625,3.625H5.178
					c-2,0-3.625-1.627-3.625-3.625V5.178c0-1.998,1.625-3.625,3.625-3.625h6.211c1.998,0,3.625,1.627,3.625,3.625V11.391z"/>
			</g>
		</g>
		<g>
			<g>
				<path fill="#FCB4C4" d="M8.283,4.141c-2.287,0-4.143,1.857-4.143,4.143c0,2.289,1.855,4.143,4.143,4.143
					s4.143-1.854,4.143-4.143C12.426,5.998,10.57,4.141,8.283,4.141z M8.283,10.873c-1.428,0-2.588-1.162-2.588-2.59
					c0-1.426,1.16-2.59,2.588-2.59s2.588,1.164,2.588,2.59C10.871,9.711,9.711,10.873,8.283,10.873z"/>
			</g>
		</g>
		<g>
			<g>
				<circle fill="#FCB4C4" cx="12.734" cy="3.831" r="0.552"/>
			</g>
		</g>
	</g>
</g>
</svg>
