<?xml version="1.0" encoding="utf-8"?>
<!-- Generator: Adobe Illustrator 16.0.0, SVG Export Plug-In . SVG Version: 6.00 Build 0)  -->
<!DOCTYPE svg PUBLIC "-//W3C//DTD SVG 1.1//EN" "http://www.w3.org/Graphics/SVG/1.1/DTD/svg11.dtd">
<svg version="1.1" id="Layer_1" xmlns="http://www.w3.org/2000/svg" xmlns:xlink="http://www.w3.org/1999/xlink" x="0px" y="0px"
	 width="53.601px" height="47.11px" viewBox="0 0 53.601 47.11" enable-background="new 0 0 53.601 47.11" xml:space="preserve">
<g>
	<path fill="#FFFFFF" d="M17.27,31.407h0.003c0.002,0,0.004-0.001,0.007-0.001h28.47c0.701,0,1.317-0.465,1.51-1.139l6.282-21.984
		c0.135-0.474,0.04-0.983-0.257-1.376c-0.297-0.394-0.762-0.626-1.254-0.626H13.648l-1.122-5.052C12.366,0.511,11.729,0,10.993,0
		H1.571C0.703,0,0,0.703,0,1.57s0.703,1.57,1.571,1.57h8.161c0.2,0.896,5.372,24.175,5.67,25.514
		c-1.668,0.726-2.839,2.39-2.839,4.322c0,2.598,2.112,4.711,4.711,4.711h28.475c0.867,0,1.57-0.703,1.57-1.57s-0.703-1.57-1.57-1.57
		H17.274c-0.866,0-1.57-0.704-1.57-1.57C15.704,32.112,16.405,31.408,17.27,31.407z M49.948,9.422l-5.384,18.844h-26.03
		L14.346,9.422H49.948z"/>
	<path fill="#FFFFFF" d="M15.704,42.398c0,2.598,2.112,4.712,4.711,4.712c2.598,0,4.711-2.114,4.711-4.712s-2.113-4.711-4.711-4.711
		C17.816,37.688,15.704,39.801,15.704,42.398z M20.415,40.828c0.865,0,1.57,0.705,1.57,1.57c0,0.866-0.705,1.57-1.57,1.57
		c-0.866,0-1.57-0.704-1.57-1.57C18.845,41.533,19.549,40.828,20.415,40.828z"/>
	<path fill="#FFFFFF" d="M37.897,42.398c0,2.598,2.113,4.712,4.711,4.712s4.711-2.114,4.711-4.712s-2.113-4.711-4.711-4.711
		S37.897,39.801,37.897,42.398z M42.608,40.828c0.866,0,1.57,0.705,1.57,1.57c0,0.866-0.704,1.57-1.57,1.57
		c-0.865,0-1.57-0.704-1.57-1.57C41.038,41.533,41.743,40.828,42.608,40.828z"/>
</g>
</svg>
