<?xml version="1.0" encoding="utf-8"?>
<!-- Generator: Adobe Illustrator 16.0.0, SVG Export Plug-In . SVG Version: 6.00 Build 0)  -->
<!DOCTYPE svg PUBLIC "-//W3C//DTD SVG 1.1//EN" "http://www.w3.org/Graphics/SVG/1.1/DTD/svg11.dtd">
<svg version="1.1" id="Layer_1" xmlns="http://www.w3.org/2000/svg" xmlns:xlink="http://www.w3.org/1999/xlink" x="0px" y="0px"
	 width="16.971px" height="15.798px" viewBox="0 0 16.971 15.798" enable-background="new 0 0 16.971 15.798" xml:space="preserve">
<g>
	<g>
		<g>
			<path fill="#003051" d="M5.205,5.258c0.212-0.246,0.329-0.373,0.464-0.66C5.812,4.322,5.71,4.035,5.608,3.824
				C5.507,3.611,4.666,1.557,4.32,0.723C4.042,0.059,3.831,0.033,3.409,0.016C3.267,0.008,3.107,0,2.931,0
				c-0.549,0-1.12,0.16-1.467,0.514C1.044,0.943,0,1.943,0,4.002c0,2.053,1.499,4.043,1.701,4.32
				c0.212,0.279,2.924,4.557,7.135,6.303c3.292,1.365,4.271,1.236,5.019,1.078c1.096-0.236,2.467-1.047,2.813-2.023
				s0.346-1.811,0.245-1.986c-0.102-0.18-0.378-0.277-0.8-0.49c-0.422-0.209-2.469-1.221-2.855-1.355
				c-0.379-0.145-0.741-0.094-1.028,0.313c-0.403,0.564-0.8,1.137-1.119,1.482c-0.253,0.27-0.665,0.303-1.011,0.158
				c-0.464-0.193-1.761-0.646-3.361-2.07C5.499,8.625,4.657,7.252,4.413,6.84C4.169,6.42,4.388,6.174,4.581,5.947
				C4.794,5.688,4.993,5.5,5.205,5.258z"/>
		</g>
	</g>
</g>
</svg>
