<?xml version="1.0" encoding="utf-8"?>
<!-- Generator: Adobe Illustrator 16.0.0, SVG Export Plug-In . SVG Version: 6.00 Build 0)  -->
<!DOCTYPE svg PUBLIC "-//W3C//DTD SVG 1.1//EN" "http://www.w3.org/Graphics/SVG/1.1/DTD/svg11.dtd">
<svg version="1.1" id="Layer_1" xmlns="http://www.w3.org/2000/svg" xmlns:xlink="http://www.w3.org/1999/xlink" x="0px" y="0px"
	 width="18.357px" height="18.355px" viewBox="0 0 18.357 18.355" enable-background="new 0 0 18.357 18.355" xml:space="preserve">
<g>
	<g>
		<path fill="#FCB4C4" d="M9.18,0H9.176C4.115-0.002,0,4.115,0,9.178c0,2.008,0.646,3.869,1.748,5.379l-1.145,3.41l3.527-1.127
			c1.451,0.961,3.184,1.516,5.049,1.516c5.063,0,9.178-4.117,9.178-9.178S14.242,0,9.18,0z M14.521,12.961
			c-0.221,0.625-1.1,1.145-1.801,1.295c-0.48,0.102-1.107,0.184-3.215-0.689c-2.697-1.119-4.436-3.859-4.57-4.039
			c-0.129-0.176-1.09-1.451-1.09-2.768c0-1.318,0.668-1.957,0.938-2.232c0.223-0.227,0.588-0.33,0.939-0.33
			c0.113,0,0.215,0.006,0.307,0.012c0.27,0.01,0.404,0.025,0.584,0.451c0.221,0.535,0.76,1.852,0.824,1.986
			c0.066,0.135,0.131,0.318,0.039,0.496C7.391,7.326,7.314,7.408,7.18,7.564S6.916,7.84,6.781,8.008
			c-0.125,0.145-0.266,0.303-0.109,0.57c0.156,0.264,0.695,1.145,1.49,1.852c1.023,0.912,1.855,1.203,2.152,1.326
			c0.221,0.094,0.484,0.072,0.646-0.102c0.205-0.221,0.459-0.588,0.717-0.949c0.184-0.26,0.416-0.291,0.658-0.199
			c0.248,0.086,1.561,0.734,1.83,0.867c0.27,0.137,0.447,0.199,0.512,0.314C14.742,11.801,14.742,12.334,14.521,12.961z"/>
	</g>
</g>
</svg>
